<svg xmlns="http://www.w3.org/2000/svg" width="1920" height="1080"><path d="M180-264l669 1 318-67z" fill="#d4c1ce" stroke="#d4c1ce" stroke-width="1.51"/><path d="M1744 1321l-220 42 440-11z" fill="#434d60" stroke="#434d60" stroke-width="1.51"/><path d="M2152 620l-106 203 117 68z" fill="#465b83" stroke="#465b83" stroke-width="1.51"/><path d="M1167-330l658 68 388 6z" fill="#9e9da7" stroke="#9e9da7" stroke-width="1.51"/><path d="M1825-262l201 64 187-58z" fill="#9d9693" stroke="#9d9693" stroke-width="1.51"/><path d="M2094 496l58 124 69-318z" fill="#5f6c97" stroke="#5f6c97" stroke-width="1.51"/><path d="M2213-256l-187 58 223 267z" fill="#9e8975" stroke="#9e8975" stroke-width="1.51"/><path d="M2026-198l-77 245 300 22z" fill="#a18062" stroke="#a18062" stroke-width="1.51"/><path d="M2006 236l215 66 28-233z" fill="#93705a" stroke="#93705a" stroke-width="1.51"/><path d="M1871 1161l314 178 87-211z" fill="#434c5a" stroke="#434c5a" stroke-width="1.51"/><path d="M2163 891l-292 270 401-33z" fill="#424d62" stroke="#424d62" stroke-width="1.51"/><path d="M2221 302l-69 318 120 508z" fill="#48618d" stroke="#48618d" stroke-width="1.51"/><path d="M2152 620l11 271 109 237z" fill="#455471" stroke="#455471" stroke-width="1.51"/><path d="M2249 69l-28 233 51 826z" fill="#586b99" stroke="#586b99" stroke-width="1.51"/><path d="M1871 1161l93 191 221-13z" fill="#434b5a" stroke="#434b5a" stroke-width="1.51"/><path d="M1949 47l57 189 243-167z" fill="#9f734a" stroke="#9f734a" stroke-width="1.51"/><path d="M1827 1021l44 140 292-270z" fill="#424f68" stroke="#424f68" stroke-width="1.51"/><path d="M2006 236l88 260 127-194z" fill="#7d6f7c" stroke="#7d6f7c" stroke-width="1.51"/><path d="M1996 634l50 189 106-203z" fill="#466191" stroke="#466191" stroke-width="1.51"/><path d="M2046 823l-219 198 336-130z" fill="#435372" stroke="#435372" stroke-width="1.51"/><path d="M2094 496l-98 138 156-14z" fill="#4769a1" stroke="#4769a1" stroke-width="1.51"/><path d="M2006 236l-122 228 210 32z" fill="#726e8b" stroke="#726e8b" stroke-width="1.51"/><path d="M1884 464l112 170 98-138z" fill="#496ca9" stroke="#496ca9" stroke-width="1.51"/><path d="M1167-330l415 155 243-87z" fill="#a1a0af" stroke="#a1a0af" stroke-width="1.51"/><path d="M1803 692l-65 272 89 57z" fill="#42567c" stroke="#42567c" stroke-width="1.51"/><path d="M1752-19l197 66 77-245z" fill="#a2856e" stroke="#a2856e" stroke-width="1.51"/><path d="M1825-262l-73 243 274-179z" fill="#9f8f86" stroke="#9f8f86" stroke-width="1.51"/><path d="M1996 634l-193 58 243 131z" fill="#456191" stroke="#456191" stroke-width="1.51"/><path d="M1803 692l24 329 219-198z" fill="#445980" stroke="#445980" stroke-width="1.51"/><path d="M1949 47l-181 151 238 38z" fill="#9b7359" stroke="#9b7359" stroke-width="1.51"/><path d="M1768 198l116 266 122-228z" fill="#867179" stroke="#867179" stroke-width="1.51"/><path d="M1884 464l-81 228 193-58z" fill="#456aa5" stroke="#456aa5" stroke-width="1.51"/><path d="M180-264l406 38 263-37z" fill="#ebc0a6" stroke="#ebc0a6" stroke-width="1.51"/><path d="M1167-330l71 66 344 89z" fill="#a7a9c3" stroke="#a7a9c3" stroke-width="1.51"/><path d="M1871 1161l-127 160 220 31z" fill="#434c5f" stroke="#434c5f" stroke-width="1.51"/><path d="M1742 491l61 201 81-228z" fill="#436eaf" stroke="#436eaf" stroke-width="1.51"/><path d="M1752-19l16 217 181-151z" fill="#a47753" stroke="#a47753" stroke-width="1.51"/><path d="M1768 198l-26 293 142-27z" fill="#76708f" stroke="#76708f" stroke-width="1.51"/><path d="M1827 1021l-89-57 133 197z" fill="#424f6b" stroke="#424f6b" stroke-width="1.51"/><path d="M1738 964l6 357 127-160z" fill="#424e68" stroke="#424e68" stroke-width="1.51"/><path d="M1738 964l-257 119 263 238z" fill="#41506d" stroke="#41506d" stroke-width="1.51"/><path d="M1524 897l214 67 65-272z" fill="#425a86" stroke="#425a86" stroke-width="1.51"/><path d="M1582-175l170 156 73-243z" fill="#a08f8a" stroke="#a08f8a" stroke-width="1.51"/><path d="M1562 513l180-22 26-293z" fill="#727196" stroke="#727196" stroke-width="1.51"/><path d="M1502 167l60 346 206-315z" fill="#897482" stroke="#897482" stroke-width="1.51"/><path d="M1752-19L1528-8l240 206z" fill="#a57a5c" stroke="#a57a5c" stroke-width="1.51"/><path d="M1562 513l-90 73 331 106z" fill="#406caf" stroke="#406caf" stroke-width="1.51"/><path d="M1472 586l52 311 279-205z" fill="#41649d" stroke="#41649d" stroke-width="1.51"/><path d="M1742 491l-180 22 241 179z" fill="#416db1" stroke="#416db1" stroke-width="1.51"/><path d="M1481 1083l43 280 220-42z" fill="#43506b" stroke="#43506b" stroke-width="1.51"/><path d="M1528-8l-26 175 266 31z" fill="#a4775b" stroke="#a4775b" stroke-width="1.51"/><path d="M1582-175L1528-8l224-11z" fill="#a3877a" stroke="#a3877a" stroke-width="1.51"/><path d="M1524 897l-43 186 257-119z" fill="#415379" stroke="#415379" stroke-width="1.51"/><path d="M1472 586l-166 25 218 286z" fill="#3f6db2" stroke="#3f6db2" stroke-width="1.51"/><path d="M1372 1274l-233-1 385 90z" fill="#465b80" stroke="#465b80" stroke-width="1.51"/><path d="M1139 1273l-247 116 632-26z" fill="#47618e" stroke="#47618e" stroke-width="1.51"/><path d="M1481 1083l-109 191 152 89z" fill="#445679" stroke="#445679" stroke-width="1.51"/><path d="M1502 167l-186 280 246 66z" fill="#7b79a3" stroke="#7b79a3" stroke-width="1.51"/><path d="M1382 41l146-49 54-167z" fill="#a98b82" stroke="#a98b82" stroke-width="1.51"/><path d="M1238-264l144 305 200-216z" fill="#a9989f" stroke="#a9989f" stroke-width="1.51"/><path d="M1260 223l56 224 186-280z" fill="#937f98" stroke="#937f98" stroke-width="1.51"/><path d="M1378 1012l103 71 43-186z" fill="#415983" stroke="#415983" stroke-width="1.51"/><path d="M1382 41l120 126 26-175z" fill="#ac806b" stroke="#ac806b" stroke-width="1.51"/><path d="M1316 447l156 139 90-73z" fill="#4a78c3" stroke="#4a78c3" stroke-width="1.51"/><path d="M1192 880l186 132 146-115z" fill="#426196" stroke="#426196" stroke-width="1.51"/><path d="M1306 611l-114 269 332 17z" fill="#406bac" stroke="#406bac" stroke-width="1.51"/><path d="M1382 41l-122 182 242-56z" fill="#aa8077" stroke="#aa8077" stroke-width="1.51"/><path d="M1316 447l-10 164 166-25z" fill="#397bd1" stroke="#397bd1" stroke-width="1.51"/><path d="M1378 1012l-6 262 109-191z" fill="#435a82" stroke="#435a82" stroke-width="1.51"/><path d="M667 1312l-649 75 874 2z" fill="#8c6f64" stroke="#8c6f64" stroke-width="1.51"/><path d="M1159 1133l-20 140 233 1z" fill="#466090" stroke="#466090" stroke-width="1.51"/><path d="M1159 1133l213 141 6-262z" fill="#445e8c" stroke="#445e8c" stroke-width="1.51"/><path d="M1064-27l196 250 122-182z" fill="#b78a81" stroke="#b78a81" stroke-width="1.51"/><path d="M1238-264L1064-27l318 68z" fill="#b19ba6" stroke="#b19ba6" stroke-width="1.51"/><path d="M1192 880l-33 253 219-121z" fill="#426299" stroke="#426299" stroke-width="1.51"/><path d="M1043 746l149 134 114-269z" fill="#3c76c5" stroke="#3c76c5" stroke-width="1.51"/><path d="M1085 372l221 239 10-164z" fill="#5c82d1" stroke="#5c82d1" stroke-width="1.51"/><path d="M1260 223l-175 149 231 75z" fill="#8885b6" stroke="#8885b6" stroke-width="1.51"/><path d="M1085 372l-42 374 263-135z" fill="#3383e4" stroke="#3383e4" stroke-width="1.51"/><path d="M1018 229l67 143 175-149z" fill="#9c8ab0" stroke="#9c8ab0" stroke-width="1.51"/><path d="M1064-27l-46 256 242-6z" fill="#b68d92" stroke="#b68d92" stroke-width="1.51"/><path d="M1167-330L1064-27l174-237z" fill="#aeacca" stroke="#aeacca" stroke-width="1.51"/><path d="M852 491l191 255 42-374z" fill="#2a8df9" stroke="#2a8df9" stroke-width="1.51"/><path d="M1012 783l-178 394 325-44z" fill="#416db0" stroke="#416db0" stroke-width="1.51"/><path d="M849-263l215 236 103-303z" fill="#b2b3d8" stroke="#b2b3d8" stroke-width="1.51"/><path d="M1012 783l147 350 33-253z" fill="#406cae" stroke="#406cae" stroke-width="1.51"/><path d="M1043 746l-31 37 180 97z" fill="#3c76c6" stroke="#3c76c6" stroke-width="1.51"/><path d="M865 790l-31 387 178-394z" fill="#5174b9" stroke="#5174b9" stroke-width="1.51"/><path d="M834 1177l305 96 20-140z" fill="#4569a4" stroke="#4569a4" stroke-width="1.51"/><path d="M852 491l48 249 143 6z" fill="#4086e6" stroke="#4086e6" stroke-width="1.51"/><path d="M834 1177l58 212 247-116z" fill="#486ca7" stroke="#486ca7" stroke-width="1.51"/><path d="M729 1090l105 87 31-387z" fill="#67709f" stroke="#67709f" stroke-width="1.51"/><path d="M757 32l261 197 46-256z" fill="#c4979b" stroke="#c4979b" stroke-width="1.51"/><path d="M1018 229L852 491l233-119z" fill="#8890d2" stroke="#8890d2" stroke-width="1.51"/><path d="M849-263L757 32l307-59z" fill="#c4aab8" stroke="#c4aab8" stroke-width="1.51"/><path d="M759 271l93 220 166-262z" fill="#a092c0" stroke="#a092c0" stroke-width="1.51"/><path d="M900 740l112 43 31-37z" fill="#377ed8" stroke="#377ed8" stroke-width="1.51"/><path d="M757 32l2 239 259-42z" fill="#c39498" stroke="#c39498" stroke-width="1.51"/><path d="M900 740l-35 50 147-7z" fill="#477ed3" stroke="#477ed3" stroke-width="1.51"/><path d="M757 32l-36 40 38 199z" fill="#d4977c" stroke="#d4977c" stroke-width="1.51"/><path d="M586-226L757 32l92-295z" fill="#d6b3ae" stroke="#d6b3ae" stroke-width="1.51"/><path d="M759 271l-52 114 145 106z" fill="#a592bc" stroke="#a592bc" stroke-width="1.51"/><path d="M575 778l154 312 136-300z" fill="#7977a3" stroke="#7977a3" stroke-width="1.51"/><path d="M834 1177l-167 135 225 77z" fill="#6a6d90" stroke="#6a6d90" stroke-width="1.51"/><path d="M664 547l201 243 35-50z" fill="#6b85ce" stroke="#6b85ce" stroke-width="1.51"/><path d="M852 491l-188 56 236 193z" fill="#6d8cde" stroke="#6d8cde" stroke-width="1.51"/><path d="M333 1230L18 1387l649-75z" fill="#9d724b" stroke="#9d724b" stroke-width="1.51"/><path d="M664 547l-89 231 290 12z" fill="#8385bb" stroke="#8385bb" stroke-width="1.51"/><path d="M707 385l-43 162 188-56z" fill="#9391cc" stroke="#9391cc" stroke-width="1.51"/><path d="M729 1090l-62 222 167-135z" fill="#736f8d" stroke="#736f8d" stroke-width="1.51"/><path d="M225 1251L18 1387l315-157z" fill="#a27a55" stroke="#a27a55" stroke-width="1.51"/><path d="M448-139l-5 158 143-245z" fill="#eeb27e" stroke="#eeb27e" stroke-width="1.51"/><path d="M586-226L443 19l278 53z" fill="#e6a97d" stroke="#e6a97d" stroke-width="1.51"/><path d="M575 778l-146 59 300 253z" fill="#8e788b" stroke="#8e788b" stroke-width="1.51"/><path d="M586-226L721 72l36-40z" fill="#dca78d" stroke="#dca78d" stroke-width="1.51"/><path d="M721 72L601 281l158-10z" fill="#ce9688" stroke="#ce9688" stroke-width="1.51"/><path d="M601 281l106 104 52-114z" fill="#bd949f" stroke="#bd949f" stroke-width="1.51"/><path d="M429 837l-68 151 368 102z" fill="#927475" stroke="#927475" stroke-width="1.51"/><path d="M443 19l158 262L721 72z" fill="#e29962" stroke="#e29962" stroke-width="1.51"/><path d="M333 1230l334 82 62-222z" fill="#897173" stroke="#897173" stroke-width="1.51"/><path d="M361 988l-28 242 396-140z" fill="#947369" stroke="#947369" stroke-width="1.51"/><path d="M498 427l166 120 43-162z" fill="#ab93b6" stroke="#ab93b6" stroke-width="1.51"/><path d="M601 281L498 427l209-42z" fill="#bf949e" stroke="#bf949e" stroke-width="1.51"/><path d="M443 19l48 278 110-16z" fill="#df9868" stroke="#df9868" stroke-width="1.51"/><path d="M322 636l253 142 89-231z" fill="#a28aa8" stroke="#a28aa8" stroke-width="1.51"/><path d="M498 427L322 636l342-89z" fill="#ab92b5" stroke="#ab92b5" stroke-width="1.51"/><path d="M322 636l107 201 146-59z" fill="#a6848d" stroke="#a6848d" stroke-width="1.51"/><path d="M180-264l268 125 138-87z" fill="#f8be86" stroke="#f8be86" stroke-width="1.51"/><path d="M491 297l7 130 103-146z" fill="#cb958c" stroke="#cb958c" stroke-width="1.51"/><path d="M443 19L206 194l285 103z" fill="#ed9b49" stroke="#ed9b49" stroke-width="1.51"/><path d="M100 443l222 193 176-209z" fill="#c89590" stroke="#c89590" stroke-width="1.51"/><path d="M491 297L206 194l292 233z" fill="#db9870" stroke="#db9870" stroke-width="1.51"/><path d="M206 194L100 443l398-16z" fill="#de9a71" stroke="#de9a71" stroke-width="1.51"/><path d="M100 443l97 175 125 18z" fill="#c099a2" stroke="#c099a2" stroke-width="1.51"/><path d="M130-77l313 96 5-158z" fill="#faaf57" stroke="#faaf57" stroke-width="1.51"/><path d="M180-264L130-77l318-62z" fill="#ffbd6f" stroke="#ffbd6f" stroke-width="1.51"/><path d="M130-77l76 271L443 19z" fill="#fda738" stroke="#fda738" stroke-width="1.51"/><path d="M109 925l252 63 68-151z" fill="#aa7a5f" stroke="#aa7a5f" stroke-width="1.51"/><path d="M322 636L109 925l320-88z" fill="#b28372" stroke="#b28372" stroke-width="1.51"/><path d="M197 618l-88 307 213-289z" fill="#b78e89" stroke="#b78e89" stroke-width="1.51"/><path d="M157 1123l68 128 108-21z" fill="#a37853" stroke="#a37853" stroke-width="1.51"/><path d="M157 1123l176 107 28-242z" fill="#a47650" stroke="#a47650" stroke-width="1.51"/><path d="M109 925l48 198 204-135z" fill="#a67c61" stroke="#a67c61" stroke-width="1.51"/><path d="M109 925l-67 163 115 35z" fill="#a4836f" stroke="#a4836f" stroke-width="1.51"/><path d="M-197-144l193 4 184-124z" fill="#ffd39f" stroke="#ffd39f" stroke-width="1.51"/><path d="M-85 790l194 135 88-307z" fill="#b09496" stroke="#b09496" stroke-width="1.51"/><path d="M130-77L-82 66l288 128z" fill="#feb154" stroke="#feb154" stroke-width="1.51"/><path d="M-3 348l103 95 106-249z" fill="#e1a784" stroke="#e1a784" stroke-width="1.51"/><path d="M157 1123L18 1387l207-136z" fill="#a27f60" stroke="#a27f60" stroke-width="1.51"/><path d="M42 1088l-24 299 139-264z" fill="#a1846b" stroke="#a1846b" stroke-width="1.51"/><path d="M-4-140l134 63 50-187z" fill="#ffc888" stroke="#ffc888" stroke-width="1.51"/><path d="M100 443L-44 561l241 57z" fill="#bda4b9" stroke="#bda4b9" stroke-width="1.51"/><path d="M-44 561l-41 229 282-172z" fill="#b5a0b0" stroke="#b5a0b0" stroke-width="1.51"/><path d="M-75 192l72 156 209-154z" fill="#ecad78" stroke="#ecad78" stroke-width="1.51"/><path d="M-82 66l7 126 281 2z" fill="#f8b163" stroke="#f8b163" stroke-width="1.51"/><path d="M-4-140L-82 66 130-77z" fill="#ffc27b" stroke="#ffc27b" stroke-width="1.51"/><path d="M-148 1094l166 293 24-299z" fill="#a08b7b" stroke="#a08b7b" stroke-width="1.51"/><path d="M-85 790l-63 304 190-6z" fill="#a18f8a" stroke="#a18f8a" stroke-width="1.51"/><path d="M-85 790l127 298 67-163z" fill="#a58d85" stroke="#a58d85" stroke-width="1.51"/><path d="M-3 348l-41 213 144-118z" fill="#ccabae" stroke="#ccabae" stroke-width="1.51"/><path d="M-161-51l79 117 78-206z" fill="#ffc989" stroke="#ffc989" stroke-width="1.51"/><path d="M-148 1094l-128 285 294 8z" fill="#9e9085" stroke="#9e9085" stroke-width="1.51"/><path d="M-265 669l180 121 41-229z" fill="#afaac5" stroke="#afaac5" stroke-width="1.51"/><path d="M-75 192l-118-25L-3 348z" fill="#edb78b" stroke="#edb78b" stroke-width="1.51"/><path d="M-193 167l-139 238 329-57z" fill="#e3bbaa" stroke="#e3bbaa" stroke-width="1.51"/><path d="M-332 405l288 156 41-213z" fill="#cbb5c1" stroke="#cbb5c1" stroke-width="1.51"/><path d="M-197-144l36 93 157-89z" fill="#ffd3a0" stroke="#ffd3a0" stroke-width="1.51"/><path d="M-332 909l184 185 63-304z" fill="#a29ba5" stroke="#a29ba5" stroke-width="1.51"/><path d="M-332 405l67 264 221-108z" fill="#b1b9e7" stroke="#b1b9e7" stroke-width="1.51"/><path d="M-82 66l-111 101 118 25z" fill="#fbbb77" stroke="#fbbb77" stroke-width="1.51"/><path d="M-161-51l-32 218L-82 66z" fill="#ffc27a" stroke="#ffc27a" stroke-width="1.51"/><path d="M-265 669l-67 240 247-119z" fill="#a7a9c2" stroke="#a7a9c2" stroke-width="1.51"/><path d="M-332 909l56 470 128-285z" fill="#9e9b9f" stroke="#9e9b9f" stroke-width="1.51"/><path d="M-197-144l4 311 32-218z" fill="#ffcc91" stroke="#ffcc91" stroke-width="1.51"/><path d="M-197-144l-135 549 139-238z" fill="#fcc48b" stroke="#fcc48b" stroke-width="1.51"/><path d="M-332 405v504l67-240z" fill="#aab8e4" stroke="#aab8e4" stroke-width="1.51"/></svg>