<svg xmlns="http://www.w3.org/2000/svg" viewBox="0 0 800 800"><style>.st0{fill:#fff}.st1{fill:#f39e32}</style><path class="st0" d="M400 534.8l92.3-36 78-1.3-20.7 22.7-58.7.7-69.3 52 1.3 152.7 28 35.3 134.7-169.3 15.9-1.7c7.8-.7 13.7-7.3 13.6-15.1l2.5-51.8 27.5-147.7c.8-4.2 1.2-8.4 1.2-12.7v-64.9c0-2.2-2.8-3.2-4.2-1.5L596.3 353l-11.7-194c-.1-1.1-1.6-1.3-2-.2l-17 52.9-10 56.7-8 26.3c-1.2 3.8-4.7 6.4-8.6 6.4-3.6 0-6.8 2.3-8 5.7l-9.6 27.7-54-34.5-33-148.5-32-104.1c-.7-2.4-4.1-2.4-4.9 0l-32 104.1-33 148.5-54 34.5-9.6-27.7c-1.2-3.4-4.4-5.7-8-5.7-4 0-7.5-2.6-8.6-6.4l-8-26.3-10-56.7-17-52.9c-.3-1.1-1.9-.9-2 .2l-11.7 194-45.8-56.8c-1.4-1.7-4.2-.8-4.2 1.5v64.9c0 4.2.4 8.5 1.2 12.7L182.3 523l2.5 51.8c-.1 7.8 5.8 14.4 13.6 15.1l15.9 1.7L349 760.8l28-35.3 1.3-152.7-69.3-52-58.7-.7-20.7-22.7 78 1.3 92.4 36.1z" id="Layer_1"/></svg>