<svg xmlns="http://www.w3.org/2000/svg" viewBox="0 0 800 800"><style>.st0{fill:#fff}.st1{fill:#f39e32}</style><g id="Layer_1"><path class="st0" d="M561.3 166.6c-47.2-51.9-89.2-77.4-118.5-89.9-27.3-11.7-58.2-11.7-85.5 0-29.3 12.5-71.4 38-118.5 89.9-90 99-114.9 140.1-115 167.5-.1 17.8 26.9 116.6 59.9 120.6 20.3 2.5 33.5 5.4 40.5 5.8 4.2.2 8.3 1.9 11.4 4.9l87.1 78.4s31 34 77.3 34 77.3-34 77.3-34l87.1-78.4c3.1-2.9 7.1-4.6 11.4-4.9 7.1-.4 20.2-3.3 40.5-5.8 33.1-4 60-102.8 59.9-120.6 0-27.4-24.9-68.5-114.9-167.5zM247.7 375.7c-15.5 0-28-12.5-28-28s12.5-28 28-28 28 12.5 28 28-12.6 28-28 28zM400 516.1c-37.8 0-68.4-30.6-68.4-68.4s30.6-68.4 68.4-68.4 68.4 30.6 68.4 68.4-30.6 68.4-68.4 68.4zm152.3-140.4c-15.5 0-28-12.5-28-28s12.5-28 28-28 28 12.5 28 28-12.5 28-28 28z"/><path class="st0" d="M760.7 471.9c-9.4-33-30.5-58.2-43.9-71.6-6.4-6.4-16.7-6.5-23.2-.3l-55 52.1c-6.4 6.1-14.5 10.3-23.1 12l-37.4 6.1c-2.3.4-4.5 1.4-6.3 2.8-87 70.3-130 110.7-134.9 125.8-1.8 5.6-9.2 7.3-15.1 7.3h-43.4c-5.9 0-13.4-1.7-15.1-7.3-5.1-16.6-47.9-55.5-134.9-125.8-1.8-1.5-4-2.4-6.3-2.8l-37.4-6.1c-8.7-1.8-16.7-5.9-23.1-12l-55-52.1c-6.5-6.2-16.8-6.1-23.2.3-13.4 13.4-34.5 38.6-43.9 71.6-3.5 12.2-3.6 25.2-.4 37.5 8 30.8 29.3 100.1 71 155.4 0 0 55.2 67.3 103.6 67.3 61.1 0 109.8-98 186.4-98s125.3 98 186.4 98c48.4 0 103.6-67.3 103.6-67.3 41.7-55.3 63.1-124.6 71-155.4 3.1-12.3 3-25.3-.4-37.5zm-657.2 54.5c-10.4 0-18.8-11.7-18.8-26.1s8.4-26.1 18.8-26.1 26.2 13.5 26.2 27.9-15.8 24.3-26.2 24.3zm146.7 130.8c-31.5 0-57-25.5-57-57s25.5-57 57-57 57 25.5 57 57-25.6 57-57 57zm299.6 0c-31.5 0-57-25.5-57-57s25.5-57 57-57 57 25.5 57 57-25.5 57-57 57zm146.7-130.8c-10.4 0-26.2-9.9-26.2-24.3s15.8-27.9 26.2-27.9 18.8 11.7 18.8 26.1-8.4 26.1-18.8 26.1z"/></g></svg>