<svg xmlns="http://www.w3.org/2000/svg" viewBox="0 0 800 800"><style>.st0{fill:#fff}.st1{fill:#f39e32}</style><g id="Layer_1"><path class="st0" d="M150.4 281.2c.6 10.5 10.1 20.8 21.1 22.9 20.2 3.8 63.5 9 141.4 2.9 8.5-.7 17.7-4.8 21.2-12.1 6.8-13.9 15.5-37.3 5.6-62.8-3.1-8.1-15.7-14.1-24.6-16.3-21.1-5.1-71-9.7-144.2-11.7-9.6-.3-17.9 6-20.5 14.6 0 0-2.6 14.6 0 62.5zm521.2 0c-.6 10.5-10.1 20.8-21.1 22.9-20.2 3.8-63.5 9-141.4 2.9-8.5-.7-19.7-4.8-23.2-12.1-6.8-13.9-15.5-37.3-5.6-62.8 3.1-8.1 17.7-14.1 26.6-16.3 21.1-5.1 71-9.7 144.2-11.7 9.6-.3 17.9 6 20.5 14.6 0 0 2.6 14.6 0 62.5z"/><path class="st0" d="M741.9 134.5c-27.5-50.4-54.2-78.1-115.8-71.3-57.1 6.4-115.3 41.9-140.8 67.6-38.3 38.3-74.3 36.9-74.3 36.9s-36 1.4-74.3-36.9c-25.6-25.6-83.8-61.2-140.8-67.6-61.5-6.9-88.3 20.9-115.8 71.3-29.6 54.2-46.7 137.1 6.9 222.1 47 74.6 87.5 138 67.8 160.3-23.2 26.2-39.7 39.7-6.5 140.9 30 91.3 50.1 96.8 82.8 54.9 20.2-25.9 177.1-20.7 179.9-20.6 2.8-.1 159.7-5.3 179.9 20.6 32.7 41.9 52.8 36.4 82.8-54.9 33.2-101.2 16.7-114.7-6.5-140.9-19.7-22.3 20.8-85.7 67.8-160.3 53.6-85 36.5-167.9 6.9-222.1zM546.3 665.8c-31.2-7.3-128-11.3-128-11.3-168 0-182.7 24.7-202.7 30s-12-22.7 4-32 14.7 7.3 14.7 7.3 24-5 63.6-17.7 120.4-8 120.4-8 47.1 2.8 92 3.7c44.7.9 76 6.9 100.3 38 21.5 27.5-31.3-2.3-64.3-10zM314.5 407.6C258 370.1 291 347.1 291 347.1c-3.5 31.5 23.5 60.5 23.5 60.5zm26.7-19.5s-26.1-17.8-9.2-41.5c13.7-19.2 20-1.5 48.1 35.5s16.4 49.5 16.4 49.5c-1-13-39.8-52.2-55.3-61.5-10.6-6.3 0 18 0 18zm139.6-18c-15.5 9.3-54.3 48.5-55.3 61.5 0 0-11.8-12.5 16.4-49.5s34.5-54.7 48.1-35.5c16.9 23.7-9.2 41.5-9.2 41.5s10.6-24.3 0-18zm50.2-23s33 23-23.5 60.5c0 0 27-29 23.5-60.5zm159.5-59.3c-.7 14-12.5 27.7-26.2 30.4-25.1 5.1-71.3 11.9-167.7 3.9-10.6-.9-21.9-6.4-26.3-16.1-2-4.3-4.1-9.4-6-15-.1-.2-.2-.5-.2-.7-1.6-4.4-12.1-27.3-53.1-27.3s-51.5 22.9-53.1 27.3c-.1.2-.2.5-.2.7-1.9 5.6-4 10.6-6 15-4.4 9.7-15.7 15.2-26.3 16.1-96.5 8-142.6 1.2-167.7-3.9-13.7-2.8-25.5-16.5-26.2-30.4-3.2-63.6 0-87.1 0-87.1 3.2-11.4 13.6-19.7 25.5-19.4 90.7 2.7 152.5 12.7 178.7 19.6 7.6 2 14.2 7 19.5 12.8 5.3 5.7 8.2 12.4 12.4 18.8 6 9.1 17.6 3.1 26 1.2 5.7-1.3 11.7-2.3 17.5-2.2 26.7.3 37 14 44.7-1 6.2-12.2 16.9-25.9 30.7-29.5 26.1-6.8 88-16.8 178.7-19.6 11.9-.4 22.2 8 25.5 19.4-.2 0 3 23.4-.2 87z"/></g></svg>