<svg xmlns="http://www.w3.org/2000/svg" viewBox="0 0 800 800"><style>.st0{fill:#fff}.st1{fill:#f39e32}</style><path class="st0" d="M403.4 40.4h-6.8c-162.3 0-278.8 130.9-278.8 334.4 0 49 8.3 108.7 20 151.9l23-9 70 112 7 78 57.1 52 29.8-160.3s4-24 20-24h110.7c16 0 20 24 20 24l29.8 160.3 57.1-52 7-78 70-112 23 9c11.8-43.2 20-102.8 20-151.9-.1-203.5-116.6-334.4-278.9-334.4zm-91.2 100.8c12.2 0 22.2 9.9 22.2 22.2 0 12.2-9.9 22.2-22.2 22.2-12.2 0-22.2-9.9-22.2-22.2 0-12.3 9.9-22.2 22.2-22.2zm0 72.4c12.2 0 22.2 9.9 22.2 22.2 0 12.2-9.9 22.2-22.2 22.2-12.2 0-22.2-9.9-22.2-22.2 0-12.2 9.9-22.2 22.2-22.2zm0 72.4c12.2 0 22.2 9.9 22.2 22.2 0 12.2-9.9 22.2-22.2 22.2-12.2 0-22.2-9.9-22.2-22.2 0-12.2 9.9-22.2 22.2-22.2zm23.4 137.9l-56.2 39.8c-9 6.4-21.6 4.3-28-4.8-6.4-9-4.3-21.6 4.8-28l56.2-39.9c9-6.4 21.6-4.3 28 4.8 6.4 9.2 4.2 21.7-4.8 28.1zm67-93.5c-12.2 0-22.2-9.9-22.2-22.2 0-12.2 9.9-22.2 22.2-22.2 12.2 0 22.2 9.9 22.2 22.2 0 12.3-9.9 22.2-22.2 22.2zm0-72.4c-12.2 0-22.2-9.9-22.2-22.2 0-12.2 9.9-22.2 22.2-22.2 12.2 0 22.2 9.9 22.2 22.2 0 12.3-9.9 22.2-22.2 22.2zm0-72.4c-12.2 0-22.2-9.9-22.2-22.2 0-12.2 9.9-22.2 22.2-22.2 12.2 0 22.2 9.9 22.2 22.2 0 12.2-9.9 22.2-22.2 22.2zm90.4-44.4c12.2 0 22.2 9.9 22.2 22.2 0 12.2-9.9 22.2-22.2 22.2-12.2 0-22.2-9.9-22.2-22.2.1-12.3 10-22.2 22.2-22.2zm0 72.4c12.2 0 22.2 9.9 22.2 22.2 0 12.2-9.9 22.2-22.2 22.2-12.2 0-22.2-9.9-22.2-22.2.1-12.2 10-22.2 22.2-22.2zm0 72.4c12.2 0 22.2 9.9 22.2 22.2 0 12.2-9.9 22.2-22.2 22.2-12.2 0-22.2-9.9-22.2-22.2.1-12.2 10-22.2 22.2-22.2zm55.6 173c-6.4 9-18.9 11.2-28 4.8L464.4 424c-9-6.4-11.2-18.9-4.8-28 6.4-9 18.9-11.2 28-4.8l56.2 39.9c9.1 6.3 11.2 18.9 4.8 27.9z" id="Layer_1"/></svg>