<svg xmlns="http://www.w3.org/2000/svg" viewBox="0 0 800 800"><style>.st0{fill:#fff}.st1{fill:#f39e32}</style><g id="Layer_1"><path class="st0" d="M653.5 568.3c-6.7-10-16.6-15.3-28.6-15.3-20.9 0-43.8 22.9-58.5 37.3-21.3 20.9-44.4 34.5-75 35.8-31.7-1.3-55.6-15-77.7-35.8-15.2-14.4-38.9-30.3-60.5-30.3-12.5 0-22.7 5.3-29.6 15.3-14.1 20.5-12.5 59.5 4.9 115.9 9.1 29.5 27.2 68.8 62.3 68.8 18.7 0 38.1-11.6 55.8-22.8 16.2-10.2 29.9-22.8 44.8-23.3 14.4.5 27.6 13.1 43.3 23.3 17.2 11.2 33.9 22.8 51.9 22.8 33.9 0 52.4-39.2 61.2-68.8 16.7-56.5 19.3-102.5 5.7-122.9zm-21 114.6c-12.3 51.1-38.2 49.6-43.3 49.6-11.8 0-31.7-11-47.4-20.7-19.5-12.1-33.7-28.3-50.4-28.3-17.3 0-32.1 16.2-52.3 28.3-16.3 9.8-38.8 20.7-51 20.7-5.3 0-26.4.5-42.7-49.6-21.7-66.8-11.3-83.2-2.6-88.1 20.6-11.6 31.5.9 49.9 16 23.5 19.3 57.7 49.2 98.7 47.2 39.6 2 71.8-27.9 94.4-47.2 17.8-15.2 36.4-32.9 51.2-15 9.3 11.3 8.7 32.3-4.5 87.1z"/><path class="st0" d="M656 246C598.5 116.6 457 98.4 341 91.4S156 40.8 156 40.8c66 87.4 199 166.6 199 166.6-38-14.4-108.7-63.7-108.7-63.7 59.3 88.7 101.3 111.1 101.3 111.1-93.3-36-96-24-172-31.3s-124-40.7-124-40.7 72 95.3 102 120c30 24.7 109.8 55.2 109.8 55.2-116 35-200.5-7.5-200.5-7.5 13 40 67 91 119 112s83 45 83 45l1 28c-41 30-73 98-73 98 38-64 79-80 79-80-64 44-90 114-90 114 115.1-16.3 134-91.8 288-97 149-5 195-63 195-63 10 127.6-17.5 212-17.5 212 13-13.5 24-75 24-75-2 46-8 58.5-8 58.5 11.5-12 18.6-42.9 18.6-42.9l64.5-241.7c2.1-8.1.6-16.8-4.2-23.7l-6.9-9.8c-7.7-10.9-16.2-22.3-19.8-35.1C683.8 237.1 653 201 653 201s5.1 22.3 3 45z"/><path class="st0" d="M285.5 350.9c-67.5 32-159.5 9.5-159.5 9.5 99.5 4 124.5-17 124.5-17l35 7.5zm-1.8 257.7s-4.2 62.6 14.4 112c0 0-2.9-50.1.5-72.5l8.1 35.7 3.8-88.9-26.8 13.7z"/></g></svg>