<svg xmlns="http://www.w3.org/2000/svg" viewBox="0 0 800 800"><style>.st0{fill:#fff}.st1{fill:#f39e32}</style><g id="Layer_1"><path class="st0" d="M296.9 107.6s-10 24 7 35 26.1 12.5 15 34c-14.8 28.6 3.1 78.8 23 114.7 1.5 2.7 5.2 3.3 7.5 1.2 9.7-8.7 33.3-29.5 55.5-43.9 24.8-16.1 35.5-56 10-70-20.9-11.5-8-45 27-53 0 0-25 27.7 5 56 23.6 22.3-39.7 75.6 2 103.1 3.5 2.3 8.3 1.3 10.5-2.3 6.5-10.8 22.6-33.3 49.6-46.8 37-18.5 41-35 41-35s3 18-8 30.5c-9.9 11.3-29.5 48.4-16.6 78.3 1.8 4.1 7.5 4.4 9.7.4 4.4-8 12.4-19 25.4-23.8 0 0 31.5 42.5 23.8 98.7-.3 2.5 2.7 4 4.5 2.2 13.6-14 45.6-53.1 36.7-101.9-7.3-40.3-27-8-37-75.5-10.2-69-77.9-51.2-97-102-15-40-38.5-50-78-37.5 0 0-58-65.5-116-15.5 0 0-52-12-72 13s-16 44.5-35 54.5c0 0-103.5 26.5-82.5 95.1-63 20-70.5 99.4-49 136.9 16.1 28 21.5 60.9 23.3 75.6.4 3.2 4.3 4.5 6.5 2.2 14.6-15.1 51.1-57.1 39.8-87.3-14-37.5-6-66.5-6-66.5s10 20 42 17c18.8-1.8 27.7 6.3 31.7 12.2 1.3 2 4.3 1.4 4.9-.9 3.2-13.1 6.4-43.9-21.6-74.9-37-41-20-65.5 10-76 0 0-19.1 46.6 23.5 73 30.6 19 36.5 41.4 37.5 52.1.2 2.6 3.3 3.8 5.3 2.1 14.6-12.5 53.8-50.8 40.7-93.8-16.2-52.2-58.2-37.2.3-81.2zm49 475l24.2.7c12.6.4 24.8 4.9 34.4 13.1 19.1 16.2 38.5 26 53.9 31.9 17.4 6.7 36.8 6.3 53.9-1.1 38.3-16.5 113.3-48.8 112.6-86.5-.8-40.7-.9-60.6-11.2-82.3-4.1-8.6-13.2-13.7-22.7-12.7-140 13.8-184.5 13-245.1 13-60.7 0-105.2.8-245.8-13.1-9.1-.9-17.8 3.9-21.7 12.2-10.6 21.9-10.7 41.8-11.5 82.9-.7 37.7 74.3 70 112.6 86.5 17.1 7.4 36.5 7.8 53.9 1.1 15.4-5.9 34.7-15.7 53.9-31.9 9.6-8.2 21.8-12.7 34.4-13.1l24.2-.7zm385.4-167v255.7l13.8-12.9c4.4-4.1 6.9-9.9 6.9-15.9V443.3c0-4.1-1.6-8.1-4.5-11l-16.2-16.7zM624.9 745.2l-44.3 19.1 13.3-35.7 31-31.4zm99.7-126.5v-216l-92.7-65.5v223.7h41.4z"/><path class="st0" d="M673.3 574.9h-41.4v167.7l34-16.7 58.7-43.3v-49.9z"/></g></svg>