<svg xmlns="http://www.w3.org/2000/svg" viewBox="0 0 800 800"><style>.st0{fill:#fff}.st1{fill:#f39e32}</style><g id="Layer_1"><path class="st0" d="M516 420.9c-12.7 51-61.3 63-61.3 63 6.3-23.6 2-49.5 2-49.5-29.6 45-102.3 60-102.3 60 29.3-29.4 33-63.5 33-63.5-35.7 55.5-116.8 79.5-116.8 79.5-81-36.1-112.2-105.8-112.2-105.8-25.3 28.7-1.6 73.8-1.6 73.8-59.8-32.1-100.7-113-100.7-113S39 189 208.9 132.4c0 0-52.9 51.5-50.1 114.5 0 0 55.7-85.1 191.1-87.5C484 157 514 119.9 514 119.9s-10.6 54.5-62.7 90.5c0 0 161.3 38 307.7-136 0 0-3.4 145.5-131.5 222 0 0 62.7-1 120.4-49 0 0-34.9 141.6-170.9 131.5 0 0 40.7 49.4 42 90.1s-9 98-9 98-15.7-70.3-35.7-90.3-58.3-55.8-58.3-55.8z"/><path class="st0" d="M489 485s32.4 34 34.2 95c2 70.5-7.2 91-7.2 91s31-21 39-78 6.9-95.2-1-105c-10.5-13.1-37-33-37-33s-7 14-28 30zM45.5 384.3S77 443 111 466.3c0 0-3 23.5-23.8 60.9-18 32.4 8.5 94.4-12.9 128.4 0 0-15.1-58.8-23.3-84-12.3-37.6 1-68.2-7.5-111.3-6.6-33.3 2-76 2-76zm295.2 298c29.8 4.4 55.8-1.8 93.7-32 26.6-21.2 47.7-20.8 68.8-11 2.1 1 4.1-1.5 2.8-3.5l-5.5-8.4c-4.6-7-12-13.6-20.3-14.5-15.3-1.8-31.3-.2-46 4.3-23.1 7.1-49.5 33-75.2 25.8-17.7-5-36.5-10.5-40 10.5s7.8 26.7 21.7 28.8z"/><path class="st0" d="M225.8 683.3c-28.1.6-51.4-8.2-82.8-40.4-22.1-22.6-41.6-24.8-62.3-18.1-2 .7-3.6-1.9-2.2-3.5l6.1-7.1c5-5.9 12.7-11.2 20.4-11.1 14.3.2 28.9 3.4 42 9.3 20.5 9.2 41.9 36.2 66.5 32.5 17-2.6 34.9-5.5 35.7 14.3s-10.4 23.8-23.4 24.1z"/><path class="st0" d="M220.3 492.3L174.8 534c-1.2 1.1-2.6 1.8-4.2 2.1l-12 2.3c-1.9.4-3.8 0-5.4-1l-47.5-29.1s17.2 37.7 32.3 60.4c.7 1.1 1.2 2.3 1.3 3.5l.9 6.4c.2 1.1.1 2.3-.1 3.4l-29 143.7s36.5-81.2 58.8-110.3c1.5-2 3.7-3.4 6.1-4.1l5.8-1.6c1.7-.5 3.5-.4 5.2.2l68 23.1-51.2-54.4c-1.4-1.4-2.2-3.3-2.3-5.3l-.9-12.7c-.2-2.3.1-4.7.8-6.9l18.9-61.4z"/></g></svg>