<svg xmlns="http://www.w3.org/2000/svg" viewBox="0 0 800 800"><style>.st0{fill:#fff}.st1{fill:#f39e32}</style><g id="Layer_1"><path class="st0" d="M400 74.9l129.7 149.5 45-36 80.5 68 36-184.5-82.5 109.5-9.4-48.3c-1.6-8.3-7.2-15.3-14.9-18.7L427.3 44.9c-17.4-7.7-37.1-7.7-54.5 0l-157.1 69.5c-7.7 3.4-13.3 10.4-14.9 18.7l-9.4 48.3-82.5-109.5 36 184.5 80.5-68 45 36L400 74.9z"/><path class="st0" d="M400 529.5l152.4-113.3 68-74.7 41.4 66 8-18.7-21.4-115-73.1-58.2-41.2 32.6-5.5-11.9L400 86.9 270.2 237.7l-4.3 10.5-41.2-32.6-73.1 58.2-21.4 115 8 18.7 41.4-66 68 74.7z"/><path class="st0" d="M400 760.8l154.1-119.3 37-118h33l23-79-30-61-58.1 57c-3.2 3.3-5.5 7.3-6.8 11.7l-6.6 25.3-145.6 98-145.6-98-6.6-25.3c-1.2-4.4-3.6-8.4-6.8-11.7l-58.1-57-30 61 23 79h33l37 118L400 760.8z"/></g></svg>