<svg xmlns="http://www.w3.org/2000/svg" viewBox="0 0 800 800"><style>.st0{fill:#fff}.st1{fill:#f39e32}</style><path class="st0" d="M655.7 361.2c-9.6-26.8-27.4-50.1-34.1-58.3-1.7-2.1-2.7-4.8-2.7-7.5v-13.3c0-2.2.5-4.4 1.4-6.4l19.8-41.2c1.1-2.4 3.3-4.2 5.8-4.9l2.8-.8c2.7 0 4.7-2.6 3.8-5.2-9.4-29.2-54.6-72.3-54.6-72.3-61.6-112.4-171-109.8-193.9-108-2.8.2-5.7.2-8.5 0-22.9-1.9-132.3-4.4-193.9 108 0 0-45.1 43-54.6 72.3-.8 2.6 1.1 5.2 3.8 5.2l2.8.8c2.5.7 4.6 2.5 5.8 4.9l19.8 41.2c1 2 1.4 4.2 1.4 6.4v13.3c0 2.7-.9 5.4-2.7 7.5-6.7 8.2-24.4 31.5-34.1 58.3-1.8 5.1 1.9 10.5 7.3 10.5h.4c2.6 0 5 1.2 6.6 3.2l36.5 46.7c2.5 3.2 6.3 5.1 10.4 5.1l12.7-2c2.5 0 4.9.9 6.8 2.4l40 33.1c3.6 2.9 6.3 6.8 7.6 11.3l56.2 185.2c.8 2.7 1.3 5.4 1.3 8.2l.7 26.3c.1 4.1 1.9 8 5 10.8l57.8 52.7c3.7 3.3 9.2 3.3 12.9 0l21.1-20.3-1-10.6c0-2.7 2.6-4.6 5.1-3.7l10.2 2.3 22.3-20.4c3.1-2.8 4.8-6.7 5-10.8l.7-26.3c.1-2.8.5-5.5 1.3-8.2L525 477.9l-.9-28.8c0-1.3-.3-2.5-1-3.5l-5.1-8.3c-.6-.9.4-2 1.2-1.4l7.1 5.9c1.3 1.1 2.1 2.9 2.2 4.8l.5 19.1.2.6c1.4-2.3 3.2-4.3 5.3-6l40-33.1c1.9-1.6 4.4-2.4 6.8-2.4l12.7 2c4.1 0 7.9-1.9 10.4-5.1l36.5-46.7c1.6-2 4-3.2 6.6-3.2h.4c5.9-.1 9.7-5.5 7.8-10.6zM421.3 282l18.4 12.6c.9.6.4 1.9-.6 1.9h-6.4c-2 0-3.9-.9-5.2-2.5l-7.9-10.2c-.8-1.2.5-2.6 1.7-1.8zm-76.9 89.7c-1.1 4.3-4.3 7.7-8.6 9l-48.4 15c-3.3 1-6.9.7-9.9-1l-45.4-25.1c-2.7-1.5-4.7-3.9-5.8-6.8l-16-44c-2.1-5.9.3-12.4 5.8-15.4l9.7-5.4c3.8-2.1 8.4-2.1 12.2 0l96.1 52.5c3.9 2.2 8.8 1.9 12.5-.7l6.3-3.8-4.3 10.5c-.9 2.3-1.7 4.7-2.3 7.1l-1.9 8.1zM447 505.3c-15.1 48.6-22.5 98.8-41.8 116.3-2.9 2.6-7.4 2.6-10.3 0-19.4-17.5-26.8-67.7-41.8-116.3-11.8-38.2-3.5-53.2 1.9-58.6 1.5-1.5 4.1-.7 4.5 1.4C373 521.5 400 566.7 400 566.7s27-45.1 40.6-118.6c.4-2.1 3-2.9 4.5-1.4 5.4 5.4 13.7 20.5 1.9 58.6zm140.7-185.2l-17.3 41.2c-1 2.8-3 5.1-5.5 6.5l-46.5 25c-2.9 1.6-6.3 1.9-9.5 1l-18.8-4.2 2.2 4.9c.6 1.3 1.3 2.5 2.1 3.7l11.5 16.2c.8 1.1-.7 2.5-1.7 1.6l-16.9-14.1c-2.1-1.7-3.8-3.8-5.1-6.2l-4.9-9-9.6-2.2c-4.1-1.3-7.2-4.5-8.2-8.7l-.9-6.8c-.6-2.3-1.3-4.6-2.2-6.8l-6.1-10.1 6 3.7c3.4 2.3 7.7 2.6 11.4.9v-22.3c0-1.7-.5-3.5-1.5-4.9l-8.1-11.5c-.9-1.3.7-2.8 1.9-1.9l11.4 8.2c2.1 1.5 3.4 4 3.5 6.6l.7 21.2 85.8-51.9c3.6-2 8.1-2 11.7 0l9.3 5.2c5 2.8 7.3 9.1 5.3 14.7z" id="Layer_1"/></svg>