<svg xmlns="http://www.w3.org/2000/svg" viewBox="0 0 800 800"><style>.st0{fill:#fff}.st1{fill:#f39e32}</style><g id="Layer_1"><path class="st0" d="M208.5 498c2.3 11.6 1.3 10.5-3.3 88.7-5.5 92.2 40 158 40 158-20.7-5.3-31.3-20.7-31.3-20.7l19.3 36.7c-110-77.3-115.3-164-115.3-164-6 20-2.7 43.5-2.7 43.5-82-231.1 49-334.5 49-334.5 27-76.4 99.5-108 99.5-108-42-61.5-9-121.5-9-121.5s17.5 55.1 58.5 76.1c0 0-31-46-9-113 0 0 23 36 40 48 0 0 127-24 138 73 0 0 115 24 146 182 0 0 123.7 131.8 23 270 0 0 8.7-25.7 2.7-58.3 0 0-10.7 151.3-104.7 206.7 0 0 70.7-139.3 36.7-256.7 0 0-6 20-10.7 31.3 0 0-1.3-72.4-22-116.9 0 0-13.3 77.2-154.7 57.2 0 0 48.7-11.3 71.7-53.7 0 0-90.3 76-202.3 67.3 0 0 28.7-12 44.7-44 0 0-20.3 23.7-62 37.3-34.5 11.5-42.1 15.5-42.1 15.5m414.7-334l6 101.3s12.7 6.7 28.7 0l-3.3-95.3c-.1 0-15.4-14.7-31.4-6z"/><circle class="st0" cx="693.9" cy="214.8" r="38.9"/><path class="st0" d="M591.7 513.8s-12.9-1-22.4.7c-1.3-5.8-6.4-10.2-12.7-10.2H437.2c-13.1 0-24 8.3-28.2 19.7h-31.6c-4.2-11.4-15.1-19.7-28.2-19.7H229.9c-6.2 0-11.3 4.3-12.7 10-8.3-1.5-18.5-.5-18.5-.5l-5.5 34.5c20.7-7.5 27.3 4.6 29.3 13.1l1 7.2 1.7 12.6c2.9 24.7 25.5 43.5 50.4 44l62.7 1.4c10.7.2 20.4-5.1 26.1-13.5 0 0 11.9-13.7 14.8-34 3.3-22.5 14-20.5 14-20.5s10.7-2 14 20.5c3 20.2 14.8 33.9 14.8 33.9 5.7 8.4 15.4 13.7 26.1 13.5l62.7-1.4c24.9-.5 47.5-19.3 50.4-44l1.7-12.6.8-6.2c2-8.5 9.1-21.9 33.5-14.1l-5.5-34.4zm-234.4 26.5l-7.7 49.5c-1.4 8.9-9.1 15.5-18.1 15.5h-53.8c-16.2 0-29.7-12.3-31.1-28.4l-3.4-38c-.7-8 5.6-14.9 13.6-14.9h86.5c8.7 0 15.3 7.8 14 16.3zm185.9-1.4l-3.4 38c-1.5 16.1-14.9 28.4-31.1 28.4h-53.8c-9 0-16.7-6.6-18.1-15.5l-7.7-49.5c-1.3-8.6 5.3-16.3 14-16.3h86.5c8 0 14.3 6.9 13.6 14.9zm26.1-335.4c7.9 7.6 17.5 18.5 25.2 32.3l46.7-1.4v-35l-71.9 4.1zm-359.7 20.6l-142.4 8.2v19l122-3.6c4.6-6.7 11.5-15.6 20.4-23.6z"/></g></svg>