<svg xmlns="http://www.w3.org/2000/svg" viewBox="0 0 800 800"><style>.st0{fill:#fff}.st1{fill:#f39e32}</style><g id="Layer_1"><path class="st0" d="M360 161.9c18.9 0 25.5 33.9 27.8 54.4 1.3 11.3 4.3 22.4 8.9 32.8l29 65.6c-39-10-70-37-70-37l20-18s-42.5 8.5-84 99c-44.5 97-132.2 174.8-154.8 196.1-3.3 3.2-7.5 5.3-12 6.2L78 570.5h-.4c-2 0-2.8-2.8-.9-3.8 34-17.3 58.7-33.1 115.5-184.4 57.3-154.7 133.3-213.3 164-220 1.3-.3 2.6-.4 3.8-.4"/><path class="st0" d="M719.6 313.3c2.6-4.1 4.1-8.7 4.4-13.5l.3-18.7c.1-.9-1-1.5-1.7-.9l-30.1 25c-5.3 3.6-11.1 6.1-17.3 7.5l-32.6 7.9 22.7-25.4c2.2-2.4 3.8-5.2 5-8.2l7.7-20.3c1-2.7 1.5-5.6 1.2-8.5l-.5-6.1c-.1-1-1.3-1.4-2-.7-18.1 17.5-41.2 30.2-41.2 30.2s62-217-201-239.1c-249.7-21-264 153.1-250 207.1 0 0-17.4-2.8-26.9-13.9-1.2-1.4-3.5-.7-3.6 1.2l-1.2 15.4c-.5 6.4.8 12.9 3.8 18.6l15.4 29.2-61-36.7c-3.5-2.1-6.4-5.2-8.3-8.9l-3.9-9.5c-1.2-2.3-4.5-2-5.3.5l-2.3 14.4c-1.9 6.5-2 13.4.1 19.8 3.9 12.5 10.1 34 30.8 55H110c-5 0-9.8-2.2-13.1-6L87.6 318c-.8-.9-2.4-.6-2.6.7l-1.9 8.3c-1 4.3-.7 8.8.9 12.9 4.5 12 15.8 37.6 36.2 56.3 20.1 18.3 32.3 26.1 35.6 51.8 8.7-19.6 17.8-44.1 27.3-69.8 25.5-68.7 51-129.2 87.2-171.2 27.4-31.8 59.8-49.7 81.5-54.4 2.1-.5 4.2-.7 6.3-.7 9.5 0 22.6 2.7 31.3 25.1 3.9 10 5.7 22.8 7.4 37.9 1.1 10 4.8 19.9 8.9 29.2l27 65.6 2.4 5.4 2.1.9s60.5-38 85-49 70.6-.5 69 22c-.8 10.8-4.5 16.4-7 19-1.2 1.3-1.3 3.3-.2 4.6l9.2 10.4v44.5l-3.7 2.6c-.8.5-1.1 1.5-.9 2.4 3.2 13 15.2 43.5 15.2 43.5.4 36-12.4 80.4-19.5 94.5-2.8 5.5-.4 8.9 2.9 9.9l6.4 1.6c4.9.7 7.2-.7 9.1-3.9 5.6-9.2 17.6-27.2 32.6-38.6 21.4-16.3 32.3-41.3 35.5-49.7.3-.8-.7-1.6-1.4-1L650.6 443c-1.5 1.3-3.2 2.4-5.1 3.1l-18.7 7.4 52.8-45.5 44-65.9c.6-.9-.5-1.9-1.3-1.3l-28.8 19.6c-4 3.1-8.7 5.1-13.6 6l-7 1.2c26-22.7 40.2-43.9 46.7-54.3z"/><path class="st0" d="M431.4 444.3l1.7-7.1c.7-2.9 2.7-5.3 5.4-6.5 8.5-3.8 13.3-9.3 31.7-13.4 45.2-10 99.1-37.9 97-37.3l-.7 13.7h9.7v10l14 1.3s-51.3 27.3-83.3 33.3c-30.4 5.7-55-2.3-73.4 7.6-1.1.6-2.4-.4-2.1-1.6zm-36.2.6l-.1-8.2c-.5-2.9-2-6-4.9-7-15.7-5.5-19.5-14.9-36.5-19-17.1-4.2-48.6-18.8-66.5-28.9l-15.4 26c14.7 7 32.1 14.6 46.5 18.6 29.8 8.3 57.1 8.4 74.6 19.9 1.2.7 2.5-.2 2.3-1.4zm84.4 83.4V525c-20.3 3-29.3 13.7-29.3 13.7-1.2-6.6-1.7-9.7-1.7-9.7-14 16-41 17.3-41 17.3-33.8-24-42.8-24-90-17.7-32.8 4.4-67 58.5-17.5 119.5 47.9 59 52.8 90.5 52.8 90.5 12.2-7.8 16-20 16-20s1.9 9.7 10.8 20.2C390 751 389.9 759 389.9 759l7.2-7.5 5.5 5.9s2-6.1 9.8-15.2c9.8-11.5 18.6-22.8 18.6-22.8 4.7 11 3.7 21.7 3.7 21.7 27-24 90.3-97.7 92.3-151.7s-47.4-61.1-47.4-61.1zm-21 144.9s-37-38.5-49-38.5-32.7 1.7-41.5 22.5l-11.7 2.4c-3 .3-5.6 2.2-7 4.9l-2.3 4.7s-50.8-58.9-36-97c10-25.8 36.5-27.5 65.4-22.2 6.7 1.2 21.4 10.6 24.4 11.3l2.5.6c4.5 1.1 11.2 1.6 15.4-.4 15.7-7.4 62.9-14.2 74.9 8.1 20.3 38.1-10.1 61.4-35.1 103.6z"/></g></svg>