<svg xmlns="http://www.w3.org/2000/svg" viewBox="0 0 800 800"><style>.st0{fill:#fff}.st1{fill:#f39e32}</style><g id="Layer_1"><path class="st0" d="M277.4 341.5L752.4 57c4.7-2.8 10.2 2.3 7.8 7.2l-20.7 41.9c-1.6 3.2-3.6 6.1-6 8.8-23.8 26-163 174.3-374.6 327.7-3.2 2.3-7.5 2.7-11.1 1l-15.8-7.4c-3.9-1.8-8.5-1.3-11.9 1.5l-47.5 38.7-74.9 26.3c-2.2.8-4.3-1.5-3.2-3.6l75.6-149.8c1.7-3.3 4.2-6 7.3-7.8zm-98.3 350l-13.4-7.9c-2.5-1.5-4.4-3.8-5.3-6.5l-5-11.1c-.7-2.1-1.2-5.1.7-6.3 8.7-5.7 18.7-33.2 5.3-86.6-.4-1.7-.1-3.6.7-5.2 5.4-11.2 27.4-56.2 29.5-56.9l397-130.5c3.6-1.2 6.5 3 4.1 5.9l-20 24.7c-1.5 1.9-3.3 3.5-5.3 4.9-19.7 13.7-125.3 88.5-288.8 158.9-2.5 1.1-5.4.7-7.5-1l-9.4-7.3c-2.3-1.8-5.5-2.1-8.1-.8l-35.1 15.8c-1.3.6-.9 2.6.6 2.6l281-10.8c2-.1 3 2.4 1.5 3.7l-13 11.8c-2.2 2-4.7 3.4-7.5 4.3-23.3 7.3-138 42.2-243.4 54.1-3.2.4-6.5-.4-9.3-2.1l-11.2-7c-2.5-1.5-5.4-2-8.2-1.5l-34.9 7.1 255.5 35.7c2 .3 2.4 3 .6 3.9l-13.1 6c-4.5 2.1-9.2 3.3-14.1 3.7-26.5 2.3-128.3 8.9-219.1-.4-2 .1-3.4-.4-4.8-1.2z"/><path class="st0" d="M55.2 644c3.1 44 110 105.3 134.7 99.3 23.5-5.7-24.3-30.5-38.7-71.3-1.3-3.7-4.7-6.2-8.6-6.5-9.5-.6-26.6-2.1-35.9-12.2-1.3-1.4 0-3.6 1.9-3.2 0 0 45.2 19.4 46.3-24.6 1-40.2-18.6-62-18.6-62-.5-1.1.2-2.3 1.3-2.5 3.1-.6 8.9-1.6 13.2-2.3 3.4-.6 6.4-2.7 8-5.7 8.9-16 37.9-69.6 59.7-125.7 20.8-53.6 38.3-96 44.5-110.8 1-2.4-1.1-5-3.7-4.4l-10.5 2.2c-4.1.8-7.9 2.6-11.2 5.3C215.2 337 125.3 411.8 59.8 511c-4.1 6.3-4.6 14.3-1 21l21 39.4L62 558.6c-3-2.2-7.2-1.1-8.9 2.2C44.9 577 31.7 622 55.2 644"/></g></svg>