<svg xmlns="http://www.w3.org/2000/svg" viewBox="0 0 800 800"><style>.st0{fill:#fff}.st1{fill:#f39e32}</style><g id="Layer_1"><path class="st0" d="M52.4 259c20.6 22.8 60.4 68 79.5 89.8 7.2 8.2 15.8 14.9 25.5 19.8l54 27.2 30.7-42-27.3-48.3-58-15.7L78 237.5c-9.3-6.2-15.4-16.1-16.7-27.1l-2.7-18c-.5-4.4-6.8-4.8-7.9-.5l-7.5 33.9c-2.4 11.8 1 24.2 9.2 33.2z"/><path class="st0" d="M196 377.1s-25.3 38-77.3 34.7c0 0 22.7 24.4 67.3.2 0 0-40.7 36.5-28.7 74.5 0 0 9.3-36 38.7-40.7 0 0-38 40.7-9.3 92 0 0-.7-32.7 18.7-53.3 0 0-6.6 41.3 40.7 94v-22l20.6 22s-10-62.7-10.7-109.3c-.7-46.7 14.7-61.3 14.7-61.3s124.7 43.3 252 37.3c0 0 8.7 16.7 4.7 55.3s-18 82.7-18 82.7 26.7-12.7 31.3-50.7c0 0 4.7 21.3-4.7 38 0 0 30.7-19.3 30-70 0 0 12 21.3 6 38.7 0 0 23.3-26.7 8-72.7 0 0 21.3 20.7 56.7 21.3 0 0-30-19.3-34-46s-167.3-27.3-167.3-27.3L196 377.1z"/><path class="st0" d="M572.7 366.8c1.5-.8 47.8 12.8 69.2 19.1 7.2 2.1 14.6 3.2 22.1 3.2h34.2c15.6 0 30.4-6.7 40.7-18.3l6.9-7.7c5.1-5.8 14.3.3 11 7.3L744 397.5c-5.2 11.1-13.5 20.4-23.9 26.9l-12.8 8c-7.9 4.9-16.7 8-25.9 9l-102.7 11.1-6-85.7zm-216 221.1s-.3-16.7 39.6-15c32.7 1.4 35.4 22.6 35.4 22.5 0 0-26.5 4.5-38.5 29.5 0 0-7.5-31.5-36.5-37z"/><path class="st0" d="M524.7 613.4s-21.5-22.5-24-49-24-52.5-41.5-57c6.8 8 2.5 15.3 2.5 15.3l-10-9-3 4c-1 1.3-3.1 1.1-3.7-.5l-3.3-8.1-7.3 9.7-1.7-7-7 6.7-4.3-12.7-5.5 6.1c-1.2 1.4-3.5.9-4-.9l-1.5-5.2-9.1 7-7.3-8-3.7 8.7-7-4.3-7.3 7-12-5.3-2.3 3.7c-1.9 3.1-5.9 4.1-9.1 2.3l-3.7-4-5.5 5.1c-.8 1.7-3.4 1.4-3.8-.4l-.7-3.1-11.8 6.5c2-10.5 14-19.5 14-19.5s-28.5-1.5-49.5 48-49.6 50.4-49.6 50.4 26.2 7 44.2-2.5c0 0-10.5 14-7 33.5 0 0 8.5-10 19.5-10.5 0 0-7 12.5-3.5 23 0 0 14.5-11.5 28.5-6 0 0-4.5 12 8.5 22.5s15.5 23.5 9 30.5c0 0 18 1 29.5-12.5l16 15 23.5-15s16.5 5.5 21.5 17.5c0 0 10.5-8.5 8.5-29.5 0 0 8.5 3 17 3 0 0-4.5-16 15-25l3.5 10s9-10 12-26.5l6.5 11.5s6-25 0-35.5c0 0 11.5 10.5 30.5 10zm-47-22.7c-7-17.2-25.5-17.9-25.5-17.9 27.5 28.9-7 66.1-28 70.6s-31-18.5-31-18.5c-20 32-48.5 19-59-13s14-39.1 14-39.1c-27-4.6-41.5 10.3-41.5 10.3.5-34.8 23-45.7 23-45.7l6.5 5.5 7.5-10.5 6 9 6.8-9.1c2.2-2.9 6-3.9 9.3-2.4l5.4 2.4 6.5-7.5 5.7 10 12.3-8s8.5 4.5 18.5 3 17.5 4 17.5 4l4.8-4.2c1.8-1.6 4.6-1.6 6.5 0l7.8 6.7 5.5-3.5 8 8.5 4-4c16.9 26.1 9.4 53.4 9.4 53.4zm-281-249.3l5 65.2 66-6 293.5 41.8 59.5-12-35.4-44-388.6-58.1z"/><path class="st0" d="M586.3 232.3c-18-24.9-63.7-82.6-125.6-121.2-8.4-5.2-18.2-7.4-28-6.2-33.9 4.2-118.1 19.4-175.7 70.6-4 3.6-7.4 7.8-9.9 12.6l-22.4 42.5c-2.7 5.2-4.4 10.8-4.9 16.6l-5.2 58.2 5 34 223 45 135 16.2v-28.2l14.5-40.8c1.7-4.7 2.5-9.7 2.5-14.8v-58.6c.1-9.3-2.8-18.4-8.3-25.9zm-344.9 84.1L231 254.2c-1-5.7 2.1-11.4 7.4-13.7l15-6.7 8 83.7-20-1.1zm53.3 3.4l-10-86H333l9 83.7-47.3 2.3zm161.2-13.6c-1.4 2.2-3.2 4.2-5.3 5.8l-28.2 21.3c-9.5 7.1-22.9 5.2-30-4.3L372 301.7c-1.7-2.3-2.9-4.8-3.6-7.5l-6.4-25.3c-1.7-6.8 0-14 4.5-19.3l18.3-21.2c4.1-4.7 10-7.4 16.2-7.4h26.6c2.3 0 4.6.4 6.8 1.1l14.8 5c6.5 2.2 11.5 7.3 13.6 13.8l8.4 26.6c1.9 6 1.1 12.5-2.2 17.8l-13.1 20.9zm13.1 30.9l40.3-72 40.3 16.7-37.3 75-43.3-19.7zm115.2-22.9l-24.5 52.5L537 365s31.3-74 31.3-75.3l12.8 10.6c4.1 3.4 5.4 9.1 3.1 13.9z"/><path class="st0" d="M377.8 264.9c1.7 30.9 17.2 44.5 27.2 49.7 4.4 2.3 9.6 2.6 14.3 1 21.3-7.4 35.6-31.3 39.6-41.7 1.2-3 1.2-6.4 0-9.5l-3.6-9.6c-1.3-3.4-4.8-5.3-8.3-4.4l-6.9 2.3c-4.1 1.4-7.2 4.7-8.4 8.8l-6.1 21c-.4 1.2-1 2.4-1.9 3.3L417 293c-1.1 1.2-3.1.9-3.8-.6l-3.7-7.4c-.6-1.1-.8-2.3-.8-3.6v-19.7c0-3.8-1.4-7.5-3.9-10.3l-7.1-8.2c-2.8-3.2-7.9-3-10.4.5L382 251c-3 4.1-4.4 9-4.2 13.9z"/></g></svg>