<svg xmlns="http://www.w3.org/2000/svg" viewBox="0 0 800 800"><style>.st0{fill:#fff}.st1{fill:#f39e32}</style><g id="Layer_1"><ellipse transform="rotate(-70.264 241.516 267.131)" class="st0" cx="241.5" cy="267.1" rx="69.4" ry="44.2"/><path class="st0" d="M154.4 597.6c-30.1-59.9-74.2-98.6-98.5-86.4-24.3 12.2-19.6 70.7 10.4 130.6 30.1 59.9 74.2 98.6 98.5 86.4 24.4-12.2 19.7-70.7-10.4-130.6zm-15.9 92.1c-13.8 6.9-40.3-17.7-59-55.1s-22.8-73.3-8.9-80.2c13.8-6.9 40.3 17.7 59 55.1 18.7 37.4 22.7 73.3 8.9 80.2z"/><ellipse transform="rotate(-19.736 558.479 267.142)" class="st0" cx="558.5" cy="267.1" rx="44.2" ry="69.4"/><path class="st0" d="M744.1 511.2c-24.3-12.2-68.4 26.5-98.5 86.4-30.1 59.9-34.8 118.4-10.4 130.6 24.3 12.2 68.4-26.5 98.5-86.4 30.1-59.9 34.7-118.4 10.4-130.6zm-23.6 123.4c-18.8 37.4-45.2 62-59 55.1-13.8-6.9-9.8-42.9 8.9-80.2 18.8-37.4 45.2-62 59-55.1 13.9 7 9.9 42.9-8.9 80.2z"/><path class="st0" d="M633.4 590.9c23.7-47.2 57.7-80.9 85.9-88.4l-74.4-35.1c1.7-16.4 1.8-33.4.1-50.8-4.7-48.6-16.5-94.4-34.3-134.9 2.6 32-8.5 59.1-29.9 66.8-28.6 10.3-64.9-17.8-81-62.8-16.1-44.9-6-89.7 22.7-100 28.6-10.3 64.9 17.8 81 62.8 1 2.7 1.8 5.4 2.6 8C586 146.9 501.4 64.6 400 64.6c-101.4 0-186 82.3-205.9 191.8.8-2.6 1.6-5.3 2.6-8 16.1-44.9 52.4-73 81-62.8 28.6 10.3 38.8 55 22.7 100-16.1 44.9-52.4 73-81 62.8-21.5-7.7-32.6-34.8-29.9-66.8-17.8 40.5-29.6 86.4-34.3 134.9-1.7 17.4-1.6 34.4.1 50.8l-74.4 35.1c28.2 7.6 62.1 41.2 85.9 88.4 23 45.9 30 91.9 20.5 119.3l88.1-54.6C312.9 678.2 356 691 400.1 691c44.2 0 87.3-12.8 124.7-35.5l88.1 54.6c-9.5-27.3-2.6-73.3 20.5-119.2zM371.2 91.6h64.7c5.3 0 9.7 4.3 9.7 9.7 0 5.3-4.4 9.7-9.7 9.7h-64.7c-5.3 0-9.7-4.4-9.7-9.7.1-5.4 4.4-9.7 9.7-9.7zm-14.4 41.1c1.1-5.2 6.3-8.5 11.5-7.4l71.9 15.7c5.2 1.1 8.5 6.3 7.4 11.5-1.1 5.2-6.3 8.5-11.5 7.4l-71.9-15.7c-5.2-1.1-8.6-6.3-7.4-11.5zm-2 45.9c.6-5.3 5.3-9.2 10.6-8.6l75.7 8c5.3.6 9.2 5.3 8.6 10.6-.6 5.3-5.3 9.2-10.6 8.6l-75.7-8c-5.3-.5-9.2-5.3-8.6-10.6zm-48 419.4c-4.4 2.9-10.5 1.7-13.4-2.8l-35.6-54c-2.9-4.4-1.7-10.5 2.8-13.4 4.4-2.9 10.5-1.7 13.4 2.8l35.6 54c2.9 4.4 1.7 10.4-2.8 13.4zm21.3-8.6c-5.2 1-10.3-2.5-11.3-7.7L303 508.3c-1-5.2 2.5-10.3 7.7-11.3s10.3 2.5 11.3 7.7l13.8 73.4c1 5.3-2.5 10.4-7.7 11.3zm55.6-13.6c-4.8 2.4-10.6.5-13-4.3l-33.5-66.8c-2.4-4.8-.5-10.6 4.3-13 4.8-2.4 10.6-.5 13 4.3l33.5 66.8c2.4 4.8.5 10.6-4.3 13zm-106-200.3S302.3 273.6 400 213.9c97.7 59.7 122.3 161.6 122.3 161.6C466.3 257.8 400 234.2 400 234.2s-66.3 23.6-122.3 141.3zm130.1 198.9c-4.8-2.2-6.9-8-4.7-12.8l31.4-67.8c2.2-4.8 8-6.9 12.8-4.7 4.8 2.2 6.9 8 4.7 12.8l-31.4 67.8c-2.2 4.8-7.9 7-12.8 4.7zm39.6 10.1c-4.2-3.2-5.1-9.3-1.9-13.5l45.2-59.5c3.2-4.2 9.3-5.1 13.5-1.9 4.2 3.2 5.1 9.3 1.9 13.5l-45.2 59.5c-3.2 4.3-9.3 5.1-13.5 1.9zm89-37.5l-34.8 45.9c-3.1 4-8.9 4.8-12.9 1.8l-.7-.5c-4-3.1-4.8-8.9-1.8-12.9l34.8-45.9c3.1-4 8.9-4.8 12.9-1.8l.7.5c4.1 3 4.9 8.9 1.8 12.9z"/></g></svg>