<svg xmlns="http://www.w3.org/2000/svg" viewBox="0 0 5786.3 2581.6"><style>.st0{fill:#fff}.st1{fill:#f39e32}</style><g id="Layer_1"><path class="st0" d="M154.8 2113.2c.5 9.2 8.8 18.3 18.5 20.1 17.8 3.3 55.7 7.9 124 2.6 7.5-.6 15.5-4.2 18.6-10.6 5.9-12.2 13.6-32.8 4.9-55.1-2.8-7.1-13.7-12.4-21.6-14.3-18.5-4.5-62.3-8.5-126.4-10.3-8.4-.2-15.7 5.3-18 12.8 0 0-2.3 12.8 0 54.8zm457.1 0c-.5 9.2-8.8 18.3-18.5 20.1-17.8 3.3-55.7 7.9-124 2.6-7.5-.6-17.2-4.2-20.4-10.6-5.9-12.2-13.6-32.8-4.9-55.1 2.8-7.1 15.5-12.4 23.3-14.3 18.5-4.5 62.3-8.5 126.4-10.3 8.4-.2 15.7 5.3 18 12.8.1 0 2.4 12.8.1 54.8z"/><path class="st0" d="M673.6 1984.5C649.5 1940.3 626 1916 572 1922c-50.1 5.6-101.1 36.8-123.5 59.3-33.6 33.6-65.2 32.4-65.2 32.4s-31.6 1.2-65.2-32.4c-22.4-22.5-73.5-53.7-123.5-59.3-54-6-77.4 18.3-101.5 62.5-25.9 47.5-41 120.2 6 194.8 41.2 65.4 76.7 121.1 59.5 140.6-20.3 23-34.8 34.8-5.7 123.6 26.3 80.1 43.9 84.9 72.6 48.2 17.7-22.7 155.4-18.2 157.8-18.1 2.4-.1 140-4.7 157.8 18.1 28.7 36.7 46.3 31.9 72.6-48.2 29.2-88.8 14.6-100.6-5.7-123.6-17.2-19.5 18.3-75.1 59.5-140.6 47-74.6 32-147.2 6.1-194.8zm-171.6 466c-27.4-6.4-112.3-9.9-112.3-9.9-147.3 0-160.2 21.6-177.8 26.3-17.5 4.7-10.5-19.9 3.5-28.1s12.9 6.4 12.9 6.4 21-4.4 55.8-15.5 105.6-7 105.6-7 41.3 2.4 80.7 3.2c39.2.8 66.7 6 88 33.3 18.9 24.2-27.4-2-56.4-8.7zm-203.3-226.4c-49.6-32.9-20.6-53.1-20.6-53.1-3.1 27.6 20.6 53.1 20.6 53.1zm23.4-17.1s-22.9-15.6-8-36.4c12-16.8 17.5-1.3 42.2 31.1 24.7 32.5 14.4 43.4 14.4 43.4-.9-11.4-34.9-45.8-48.5-53.9-9.3-5.6-.1 15.8-.1 15.8zm122.5-15.8c-13.6 8.2-47.7 42.5-48.5 53.9 0 0-10.3-11 14.4-43.4 24.7-32.5 30.2-47.9 42.2-31.1 14.8 20.8-8 36.4-8 36.4s9.1-21.4-.1-15.8zm44-20.2s28.9 20.2-20.6 53.1c0 0 23.7-25.5 20.6-53.1zm139.9-52c-.6 12.2-11 24.3-23 26.7-22 4.5-62.5 10.5-147.1 3.4-9.3-.8-19.2-5.6-23.1-14.1-1.7-3.8-3.6-8.2-5.2-13.1-.1-.2-.1-.4-.2-.6-1.4-3.8-10.6-23.9-46.6-23.9s-45.1 20.1-46.6 23.9c-.1.2-.1.4-.2.6-1.7 4.9-3.5 9.3-5.2 13.1-3.9 8.5-13.8 13.3-23.1 14.1-84.6 7.1-125.1 1-147.1-3.4-12-2.4-22.4-14.4-23-26.7-2.8-55.8 0-76.4 0-76.4 2.8-10 11.9-17.3 22.3-17 79.5 2.4 133.8 11.2 156.7 17.2 6.7 1.8 12.4 6.2 17.1 11.2 4.6 5 7.2 10.9 10.9 16.5 5.3 8 15.5 2.7 22.8 1 5-1.1 10.2-2 15.4-1.9 23.4.3 32.5 12.3 39.2-.9 5.5-10.7 14.8-22.7 26.9-25.9 22.9-6 77.2-14.8 156.7-17.2 10.4-.3 19.5 7 22.3 17 .1.1 2.9 20.6.1 76.4zM355.5 91.3h-6.4c-152.7 0-262.3 123.1-262.3 314.5 0 46.1 7.8 102.2 18.8 142.9l21.6-8.5L193 645.6l6.6 73.4 53.7 48.9 28-150.8s3.8-22.6 18.8-22.6h104.2c15.1 0 18.8 22.6 18.8 22.6l28 150.8 53.7-48.9 6.6-73.4 65.8-105.4 21.6 8.5c11.1-40.6 18.8-96.7 18.8-142.9.2-191.3-109.4-314.5-262.1-314.5zm-85.8 94.9c11.5 0 20.9 9.3 20.9 20.9 0 11.5-9.3 20.9-20.9 20.9-11.5 0-20.9-9.3-20.9-20.9.1-11.6 9.4-20.9 20.9-20.9zm0 68.1c11.5 0 20.9 9.3 20.9 20.9 0 11.5-9.3 20.9-20.9 20.9-11.5 0-20.9-9.3-20.9-20.9.1-11.6 9.4-20.9 20.9-20.9zm0 68.1c11.5 0 20.9 9.3 20.9 20.9s-9.3 20.9-20.9 20.9c-11.5 0-20.9-9.3-20.9-20.9s9.4-20.9 20.9-20.9zm22 129.7l-52.9 37.5c-8.5 6-20.3 4-26.3-4.5s-4-20.3 4.5-26.3l52.9-37.5c8.5-6 20.3-4 26.3 4.5 6.1 8.5 4 20.3-4.5 26.3zm63.1-88c-11.5 0-20.9-9.3-20.9-20.9s9.3-20.9 20.9-20.9c11.5 0 20.9 9.3 20.9 20.9s-9.4 20.9-20.9 20.9zm0-68.1c-11.5 0-20.9-9.3-20.9-20.9 0-11.5 9.3-20.9 20.9-20.9 11.5 0 20.9 9.3 20.9 20.9-.1 11.6-9.4 20.9-20.9 20.9zm0-68.1c-11.5 0-20.9-9.3-20.9-20.9 0-11.5 9.3-20.9 20.9-20.9 11.5 0 20.9 9.3 20.9 20.9-.1 11.6-9.4 20.9-20.9 20.9zm85-41.7c11.5 0 20.9 9.3 20.9 20.9 0 11.5-9.3 20.9-20.9 20.9-11.5 0-20.9-9.3-20.9-20.9.1-11.6 9.4-20.9 20.9-20.9zm0 68.1c11.5 0 20.9 9.3 20.9 20.9 0 11.5-9.3 20.9-20.9 20.9-11.5 0-20.9-9.3-20.9-20.9.1-11.6 9.4-20.9 20.9-20.9zm0 68.1c11.5 0 20.9 9.3 20.9 20.9s-9.3 20.9-20.9 20.9c-11.5 0-20.9-9.3-20.9-20.9s9.4-20.9 20.9-20.9zm52.3 162.7c-6 8.5-17.8 10.5-26.3 4.5l-52.9-37.5c-8.5-6-10.5-17.8-4.5-26.3s17.8-10.5 26.3-4.5l52.9 37.5c8.6 6 10.6 17.8 4.5 26.3zm757.5 258c-14.9.5-28.6 13.1-44.8 23.3-17.8 11.2-37.1 22.8-55.8 22.8-35.1 0-53.2-39.2-62.3-68.8-17.4-56.5-19-95.5-4.9-115.9 6.9-10 17.2-15.3 29.6-15.3 21.7 0 45.4 15.9 60.5 30.3 22.1 20.9 46 34.5 77.7 35.8v31.9c-41 2-75.3-27.9-98.7-47.2-18.5-15.2-29.4-27.7-49.9-16-8.7 4.9-19.1 21.3 2.6 88.1 16.3 50.1 37.4 49.6 42.7 49.6 12.2 0 34.7-11 51-20.7 20.2-12.1 35-28.3 52.3-28.3v30.4z"/><path class="st0" d="M1249.6 712.6c16.8 0 30.9 16.2 50.4 28.3 15.7 9.8 35.6 20.7 47.4 20.7 5.2 0 31 1.5 43.3-49.6 13.2-54.8 13.8-75.8 4.5-87.1-14.8-17.9-33.3-.1-51.2 15-22.7 19.3-54.8 49.2-94.4 47.2v-31.9c30.6-1.3 53.7-15 75-35.8 14.7-14.4 37.6-37.3 58.5-37.3 12 0 21.9 5.3 28.6 15.3 13.7 20.5 11.1 66.5-5.8 122.9-8.8 29.5-27.3 68.8-61.2 68.8-18.1 0-34.8-11.6-51.9-22.8-15.6-10.2-28.9-22.8-43.3-23.3v-30.4z"/><path class="st0" d="M1414.2 275.2c-57.5-129.4-199-147.6-315-154.6S914.2 70 914.2 70c66 87.4 199 166.6 199 166.6-38-14.4-108.7-63.7-108.7-63.7 59.3 88.7 101.3 111.1 101.3 111.1-93.3-36-96-24-172-31.3-76-7.3-124-40.7-124-40.7s72 95.3 102 120 109.8 55.2 109.8 55.2c-116 35-200.5-7.5-200.5-7.5 13 40 67 91 119 112s83 45 83 45l1 28c-41 30-73 98-73 98 38-64 79-80 79-80-64 44-90 114-90 114 115.1-16.3 134-91.8 288-97 149-5 195-63 195-63 10 127.6-17.5 212-17.5 212 13-13.5 24-75 24-75-2 46-8 58.5-8 58.5 11.5-12 18.6-42.9 18.6-42.9l64.5-241.7c2.1-8.1.6-16.8-4.2-23.7l-6.9-9.8c-7.7-10.9-16.2-22.3-19.8-35.1-31.9-112.6-62.7-148.7-62.7-148.7s5.2 22.3 3.1 44.9z"/><path class="st0" d="M1043.7 380.1c-67.5 32-159.5 9.5-159.5 9.5 99.5 4 124.5-17 124.5-17l35 7.5zm-1.8 257.8s-4.2 62.6 14.4 112c0 0-2.9-50.1.5-72.5l8.1 35.7 3.8-88.9-26.8 13.7zm984.3 66.1h25.2c7.1 0 14.1 1.5 20.6 4.3l54 23.4c6.9 3 14.9.2 18.5-6.4l20.3-37.4c2-3.6-.7-8-4.8-8h-31c-7.4 0-14.2-3.7-18.3-9.8l-32.3-48.5c-2.6-3.9-8.1-4.1-11.1-.5l-5.2 6.4c-4.4 5.3-10.9 8.5-17.8 8.5h-36.2c-6.9 0-13.4-3.1-17.8-8.5l-5.2-6.4c-2.9-3.6-8.5-3.3-11.1.5l-32.3 48.5c-4.1 6.1-11 9.8-18.3 9.8h-31.1c-4.1 0-6.7 4.4-4.8 8l20.3 37.4c3.6 6.6 11.6 9.3 18.5 6.4l54-23.4c6.5-2.8 13.5-4.3 20.6-4.3h25.3z"/><path class="st0" d="M2026.2 592h41.1c6.9 0 13.4 3.2 17.6 8.6l43.2 54.9c3.2 4.1 8.1 6.5 13.4 6.5h22.2c7 0 13.5-4.1 16.5-10.4l29.1-61.2c3.1-6.6 3.3-14.3.5-21l-7.6-22.2c-3.2-7.7-2.7-16.4 1.1-23.7l69-134.6c1.7-3.2 6.6-1.8 6.3 1.8l-2.5 38c-.3 4.8-1.9 9.3-4.6 13.3l-50.2 72c-2.7 3.9-4.1 8.5-4 13.3l.6 30c.1 5.1 6.6 7.3 9.7 3.1l81.1-108.4c2.9-3.9 5.1-8.4 6.2-13.2l14.3-58c1.2-5.1 4-9.7 7.8-13.2l34.6-31.7c8.3-7.6 13.3-18.3 13.7-29.6l-.1-81.7c.6-13.4-5.1-26.3-15.3-34.9-16.2-13.7-30.6-28.3-38.8-41.8-12.5-20.5-63-34-84-5-13.3 18.4-27.6 29.1-36.3 34.5-4.8 3-10.5 4.1-16.1 3.3l-4.7-1.7c-3.8-1.4-8-1.2-11.6.5l-67.9 31.2c-11.2 5.2-12 20.8-1.4 27.1l27.5 18.6c6 4.1 13.6 5.3 20.6 3.3l27.9-8c8.3-2.4 15.2-8.3 19-16.1l9.8-20.7c2.2-4.5 5.6-8.3 9.9-11l42.4-26c69.6-33.2 72.1 45.9 71 80-.3 9.3-2 17.2-8.4 24L2197 423.6c-3.7 4-8.9 6.3-14.4 6.3h-10.3c-5.5 0-10.6-2.8-13.6-7.4l-3-4.6c-6.3-9.8-14.7-18.1-24.5-24.4l-38.1-26.8c-5.8-3.7-12.6-5.7-19.5-5.7h-94.8c-6.9 0-13.7 2-19.5 5.7l-38.1 26.8c-9.8 6.3-18.2 14.6-24.5 24.4l-3 4.6c-3 4.6-8.1 7.4-13.6 7.4h-10.3c-5.5 0-10.7-2.3-14.4-6.3L1723.6 282c-6.4-6.8-8.1-14.7-8.4-24-1.1-34.1 1.4-113.2 71-80l42.4 26c4.3 2.6 7.7 6.4 9.9 11l9.8 20.7c3.7 7.8 10.6 13.7 19 16.1l27.9 8c7 2 14.5.8 20.6-3.3l27.5-18.6c10.6-6.3 9.8-21.9-1.4-27.1l-67.9-31.2c-3.7-1.7-7.8-1.9-11.6-.5l-4.7 1.7c-5.6.9-11.3-.3-16.1-3.3-8.7-5.4-23-16.2-36.3-34.5-21-29-71.5-15.5-84 5-8.2 13.5-22.6 28.1-38.8 41.8-10.2 8.6-15.9 21.5-15.3 34.9l-.1 81.7c.4 11.3 5.4 21.9 13.7 29.6l34.6 31.7c3.8 3.5 6.6 8.1 7.8 13.2l14.3 58c1.2 4.8 3.3 9.2 6.2 13.2l81.1 108.4c3.1 4.1 9.6 2 9.7-3.1l.6-30c.1-4.7-1.3-9.4-4-13.3l-50.2-72c-2.7-3.9-4.3-8.5-4.6-13.3l-2.5-38c-.2-3.6 4.6-5 6.3-1.8l69 134.6c3.9 7.3 4.3 16 1.1 23.7l-7.6 22.2c-2.8 6.8-2.6 14.4.5 21l29.1 61.2c3 6.4 9.4 10.4 16.5 10.4h22.2c5.2 0 10.1-2.4 13.4-6.5l43.2-54.9c4.3-5.4 10.8-8.6 17.6-8.6h41.1z"/><path class="st0" d="M2026.2 340.2c153 0 266-53.2 274-91 .9-4.2 1.2-15.5.6-25.8-.4-6.5-8.4-9.1-12.5-4.1-37.3 45.2-140.6 77.7-262.1 77.7s-224.7-32.5-262.1-77.7c-4.1-5-12.2-2.3-12.5 4.1-.6 10.3-.3 21.5.6 25.8 8 37.8 121 91 274 91zm729-105.3l-3.6 3.9c-4.7 5.1-6.6 12.1-5.2 18.8l5.9 28.8c1.2 5.9-.5 12.1-4.7 16.5l-24.3 25.7c-3.2 3.4-7.6 5.3-12.3 5.3h-27.7v54l28 31v70l99.5 24.4c4.3 1.1 8.5 2.5 12.6 4.2l30.7 13.3s-81.4-136-128.1-168 22-17.3 52.7 30.7c30.7 48 123 194.7 147.7 217.3 0 0-43.7-116-49.7-156.7s-24.4-136.5-52.7-129c-33.7 9-59.5-45.2-68.8-90.2zm376.2 0l3.6 3.9c4.7 5.1 6.6 12.1 5.2 18.8l-5.9 28.8c-1.2 5.9.5 12.1 4.7 16.5l24.3 25.7c3.2 3.4 7.6 5.3 12.3 5.3h27.7v54l-28 31v70l-99.5 24.4c-4.3 1.1-8.5 2.5-12.6 4.2l-30.7 13.3s81.4-136 128.1-168c46.7-32-22-17.3-52.7 30.7s-123 194.7-147.7 217.3c0 0 43.7-116 49.7-156.7s24.4-136.5 52.7-129c33.7 9 59.4-45.2 68.8-90.2zm-487.2-47l-25.4 50.7c-3 6-3.9 12.8-2.6 19.4l31.5 157.3 27.5-23-31-204.4z"/><path class="st0" d="M2683.2 402.9l-26.7 22.6v118l26.7 27.4 20-24v-124zm260.1 227s43.1-116 58.1-201.1c11.5-65.3 31.7-109.5 40-125.6 2.3-4.4 7.1-7 12.1-6.3l33.8 7.6c2 .3 4.1-.4 5.5-1.9 19.8-19.9 27.5-55.5 29-70.5.5-4.7-.7-9.3-3.3-13.2-43.3-64.4-146.2-130.6-170.2-145.5-3.1-1.9-7-1.9-10.1 0-24 14.9-126.9 81.1-170.2 145.5-2.6 3.9-3.8 8.6-3.3 13.2 1.6 15 9.3 50.6 29 70.5 1.4 1.4 3.5 2.1 5.5 1.9l33.8-7.6c5-.6 9.8 1.9 12.1 6.3 8.3 16.1 28.5 60.3 40 125.6 15.1 85.1 58.2 201.1 58.2 201.1zm299.1-442l25.4 50.7c3 6 3.9 12.8 2.6 19.4l-31.5 157.3-27.5-23 31-204.4zm-39 215l26.6 22.6v118l-26.6 27.4-20-24v-124z"/><path class="st0" d="M2943.3 787.3h60.8c4.7 0 9.1-2 12.1-5.6l135.2-157.5 16-117.7-20 3-6.5 58.1c-1 6.7-4.5 12.8-9.9 17l-49.1 37.5-79.2 125.3-20.9-26.9c-2.8-3.6-7.1-5.7-11.7-5.7h-53.6c-4.6 0-8.9 2.1-11.7 5.7l-20.9 26.9-79.2-125.3-49.1-37.5c-5.4-4.1-9-10.2-9.9-17l-6.5-58.1-20-3 16 117.7 135.2 157.5c3 3.5 7.5 5.6 12.1 5.6h60.8zm880.5-611.2v75.6l-40 64.7 40 50.3v56.4l-70.7-106.7 41.3-69.3v-43.4l7.4-2.6v-16l22-9"/><path class="st0" d="M3748.9 319.2l-1.7-2.7 1.6-2.7 23.1-38.6-14.1-14.1-33.4 58 45.4 66 26.3 5.1zm42.5-73.5v-44l7.3-2.5.1-6.8h-10.3l-28.1 56.7 16.9 16.9zm35.4-69.6l22.1 9v16l7.3 2.6v43.4l41.3 69.3-70.7 106.7v-56.4l40.1-50.3-40.1-64.7v-75.6"/><path class="st0" d="M3901.7 319.2l1.7-2.7-1.6-2.7-23-38.6 14.1-14.1 33.3 58-45.3 66-26.3 5.1zm-42.5-73.5l.1-44-7.4-2.5v-6.8h10.3l28 56.7-16.9 16.9zM3543 277.6l-32.4-127.9-30-26.7-18 46.7 19 93.7c14.5-.1 37.3 2.2 61.4 14.2zm120.7 425.6L3580 585.4l-35.6-165c-1.5-6.4-.2-13.2 3.7-18.6l14.6-24.2c2.5-4.2 3.3-9.3 2.1-14l-17.4-68.9-46.3-11.3-8.3 34.6 55.7 274.5c1 5.2 3.1 10.1 6.1 14.4l80.4 118.7c2 3 5.1 5.1 8.6 6l17.1 4.3c2.8.7 5.4-1.4 5.4-4.3v-21.5c-.2-2.3-1-4.8-2.4-6.9z"/><path class="st0" d="M3825.3 575.4l62.5 7.9c15.4 2.4 29.8 10.8 42.2 20.3 23.2 17.6 46.3 28.9 59.4 33.9 5.1 1.9 10.8.8 14.7-3 37.6-36.9 49.6-80 49.6-80l21.2-130.4c.5-3.3.6-6.6.1-9.9-4.4-30.4-16.8-42.2-23.7-46.5-2.4-1.5-5.6-1.1-7.5 1-20.3 22.3-43.8 38.4-60.3 49.8-12.4 8.6-26.6 14.4-41.5 16.9L3825.3 457l-116.7-21.7c-14.9-2.5-29.1-8.3-41.5-16.9-16.5-11.4-40-27.5-60.3-49.8-1.9-2.1-5.1-2.5-7.5-1-6.9 4.3-19.3 16-23.7 46.5-.5 3.3-.4 6.7.1 9.9l21.2 130.4s12 43.2 49.6 80c3.9 3.8 9.6 4.9 14.7 3 13-5 36.2-16.3 59.4-33.9 12.4-9.4 26.8-17.8 42.2-20.3l62.5-7.8z"/><path class="st0" d="M4107.7 277.6l32.4-127.9 30-26.7 18 46.7-19 93.7c-14.5-.1-37.3 2.2-61.4 14.2zM3987 703.2l83.7-117.8 35.6-165c1.5-6.4.2-13.2-3.7-18.6l-14.6-24.2c-2.5-4.2-3.3-9.3-2.1-14l17.4-68.9 46.3-11.3 8.3 34.6-55.7 274.5c-1 5.2-3.1 10.1-6.1 14.4l-80.4 118.7c-2 3-5.1 5.1-8.6 6l-17.1 4.3c-2.8.7-5.4-1.4-5.4-4.3v-21.5c.1-2.3.9-4.8 2.4-6.9zm530.7-332.1l475.1-284.5c4.7-2.8 10.2 2.3 7.8 7.2l-20.7 41.9c-1.6 3.2-3.6 6.1-6 8.8-23.8 26-163 174.3-374.6 327.7-3.2 2.3-7.5 2.7-11.1 1l-15.8-7.4c-3.9-1.8-8.5-1.3-11.9 1.5L4513 506l-74.9 26.3c-2.2.8-4.3-1.5-3.2-3.6l75.6-149.8c1.7-3.2 4.1-5.9 7.2-7.8zm-98.3 350l-13.4-7.9c-2.5-1.5-4.4-3.8-5.3-6.5l-5-11.1c-.7-2.1-1.2-5.1.7-6.3 8.7-5.7 18.7-33.2 5.3-86.6-.4-1.7-.1-3.6.7-5.2 5.4-11.2 27.4-56.2 29.5-56.9l397-130.5c3.6-1.2 6.5 3 4.1 5.9l-20 24.7c-1.5 1.9-3.3 3.5-5.3 4.9-19.7 13.7-125.3 88.5-288.8 158.9-2.5 1.1-5.4.7-7.5-1l-9.4-7.3c-2.3-1.8-5.5-2.1-8.1-.8l-35.1 15.8c-1.3.6-.9 2.6.6 2.6l281-10.8c2-.1 3 2.4 1.5 3.7l-13 11.8c-2.2 2-4.7 3.4-7.5 4.3-23.3 7.3-138 42.2-243.4 54.1-3.2.4-6.5-.4-9.3-2.1l-11.2-7c-2.5-1.5-5.4-2-8.2-1.5l-34.9 7.1 255.5 35.7c2 .3 2.4 3 .6 3.9l-13.1 6c-4.5 2.1-9.2 3.3-14.1 3.7-26.5 2.3-128.3 8.9-219.1-.4-1.9.1-3.4-.4-4.8-1.2z"/><path class="st0" d="M4295.5 673.7c3.1 44 110 105.3 134.7 99.3 23.5-5.7-24.3-30.5-38.7-71.3-1.3-3.7-4.7-6.2-8.6-6.5-9.5-.6-26.6-2.1-35.9-12.2-1.3-1.4 0-3.6 1.9-3.2 0 0 45.2 19.4 46.3-24.6 1-40.2-18.6-62-18.6-62-.5-1.1.2-2.3 1.3-2.5 3.1-.6 8.9-1.6 13.2-2.3 3.4-.6 6.4-2.7 8-5.7 8.9-16 37.9-69.6 59.7-125.7 20.8-53.6 38.3-96 44.5-110.8 1-2.4-1.1-5-3.7-4.4l-10.5 2.2c-4.1.8-7.9 2.6-11.2 5.3-22.2 17.7-112.1 92.4-177.6 191.7-4.1 6.3-4.6 14.3-1 21l21 39.4-17.8-12.7c-3-2.2-7.2-1.1-8.9 2.2-8.4 15.8-21.5 60.7 1.9 82.8M344.4 1095.4c18.9 0 25.5 33.9 27.8 54.4 1.3 11.3 4.3 22.4 8.9 32.8l29 65.6c-39-10-70-37-70-37l20-18s-42.5 8.5-84 99c-44.5 97-132.2 174.8-154.8 196.1-3.3 3.2-7.5 5.3-12 6.2l-46.8 9.4h-.4c-2 0-2.8-2.8-.9-3.8 34-17.3 58.7-33.1 115.5-184.4 57.3-154.7 133.3-213.3 164-220 1.3-.1 2.6-.3 3.7-.3"/><path class="st0" d="M704.1 1246.8c2.6-4.1 4.1-8.7 4.4-13.5l.3-18.7c.1-.9-1-1.5-1.7-.9l-30.1 25c-5.3 3.6-11.1 6.1-17.3 7.5l-32.6 7.9 22.7-25.4c2.2-2.4 3.8-5.2 5-8.2l7.7-20.3c1-2.7 1.5-5.6 1.2-8.5l-.5-6.1c-.1-1-1.3-1.4-2-.7-18.1 17.5-41.2 30.2-41.2 30.2s62-217-201-239.1c-249.7-21-264 153.1-250 207.1 0 0-17.4-2.8-26.9-13.9-1.2-1.4-3.5-.7-3.6 1.2l-1.2 15.4c-.5 6.4.8 12.9 3.8 18.6l15.4 29.2-61.1-36.7c-3.5-2.1-6.4-5.2-8.3-8.9l-3.9-9.5c-1.2-2.3-4.5-2-5.3.5l-2.3 14.4c-1.9 6.5-2 13.4.1 19.8 3.9 12.5 10.1 34 30.8 55h-12c-5 0-9.8-2.2-13.1-6l-9.3-10.7c-.8-.9-2.4-.6-2.6.7l-1.9 8.3c-1 4.3-.7 8.8.9 12.9 4.5 12 15.8 37.6 36.2 56.3 20.1 18.3 32.3 26.1 35.6 51.8 8.7-19.6 17.8-44.1 27.3-69.8 25.5-68.7 51-129.2 87.2-171.2 27.4-31.8 59.8-49.7 81.5-54.4 2.1-.5 4.2-.7 6.3-.7 9.5 0 22.6 2.7 31.3 25.1 3.9 10 5.7 22.8 7.4 37.9 1.1 10 4.8 19.9 8.9 29.2l27 65.6 2.4 5.4 2.1.9s60.5-38 85-49 70.6-.5 69 22c-.8 10.8-4.5 16.4-7 19-1.2 1.3-1.3 3.3-.2 4.6l9.2 10.4v44.5l-3.7 2.6c-.8.5-1.1 1.5-.9 2.4 3.2 13 15.2 43.5 15.2 43.5.4 36-12.4 80.4-19.5 94.5-2.8 5.5-.4 8.9 2.9 9.9l6.4 1.6c4.9.7 7.2-.7 9.1-3.9 5.6-9.2 17.6-27.2 32.6-38.6 21.4-16.3 32.3-41.3 35.5-49.7.3-.8-.7-1.6-1.4-1l-18.8 14.2c-1.5 1.3-3.2 2.4-5.1 3.1l-18.7 7.4 52.8-45.5 44-65.9c.6-.9-.5-1.9-1.3-1.3l-28.8 19.6c-4 3.1-8.7 5.1-13.6 6l-7 1.2c26-22.7 40.1-43.9 46.7-54.3z"/><path class="st0" d="M415.9 1377.8l1.7-7.1c.7-2.9 2.7-5.3 5.4-6.5 8.5-3.8 13.3-9.3 31.7-13.4 45.2-10 99.1-37.9 97-37.3l-.7 13.7h9.7v10l14 1.3s-51.3 27.3-83.3 33.3c-30.4 5.7-55-2.3-73.4 7.6-1.1.6-2.4-.4-2.1-1.6zm-36.2.6l-.1-8.2c-.5-2.9-2-6-4.9-7-15.7-5.5-19.5-14.9-36.5-19-17.1-4.2-48.6-18.8-66.5-28.9l-15.4 26c14.7 7 32.1 14.6 46.5 18.6 29.8 8.3 57.1 8.4 74.6 19.9 1.2.7 2.5-.2 2.3-1.4zm84.4 83.4v-3.3c-20.3 3-29.3 13.7-29.3 13.7-1.2-6.6-1.7-9.7-1.7-9.7-14 16-41 17.3-41 17.3-33.8-24-42.8-24-90-17.7-32.8 4.4-67 58.5-17.5 119.5 47.9 59 52.8 90.5 52.8 90.5 12.2-7.8 16-20 16-20s1.9 9.7 10.8 20.2c10.3 12.2 10.2 20.2 10.2 20.2l7.2-7.5 5.5 5.9s2-6.1 9.8-15.2c9.8-11.5 18.6-22.8 18.6-22.8 4.7 11 3.7 21.7 3.7 21.7 27-24 90.3-97.7 92.3-151.7 1.9-53.7-47.4-61.1-47.4-61.1zm-21 144.9s-37-38.5-49-38.5-32.7 1.7-41.5 22.5l-11.7 2.4c-3 .3-5.6 2.2-7 4.9l-2.3 4.7s-50.8-58.9-36-97c10-25.8 36.5-27.5 65.4-22.2 6.7 1.2 21.4 10.6 24.4 11.3l2.5.6c4.5 1.1 11.2 1.6 15.4-.4 15.7-7.4 62.9-14.2 74.9 8.1 20.3 38.1-10.1 61.4-35.1 103.6zm500.4 18.4l-27.3-23.6V1158l27.3-27.3zm326.1-9.4l46.6 55.4 78.7-.4 40-39.9V1087l-43.8-41.4h-118.2l17.7 45.5v363.5l-27.3 36.7h-141.8l-27.3-36.7v-363.5l17.7-45.5H993.7l-43.8 41.4v543.8l39.9 39.9 78.7.4 46.7-55.4zm171.7 9.4l27.3-23.6V1158l-27.3-27.3z"/><path class="st0" d="M1271.8 1085.5l-33-89.6H1146l-33 89.6zm-162.5 16v339h166.3v-339h-166.3zm132.3 288.6l-7 8.7c-1.6 2-4 3.1-6.5 3.1h-71.4c-2.5 0-4.9-1.1-6.5-3.1l-7-8.7c-1.2-1.5-1.9-3.4-1.9-5.3v-243.9c0-2.3.9-4.5 2.6-6.1l12.8-12.2c1.6-1.5 3.6-2.3 5.8-2.3h59.8c2.1 0 4.2.8 5.8 2.3l12.8 12.2c1.7 1.6 2.6 3.8 2.6 6.1v243.9c0 1.9-.7 3.8-1.9 5.3zm12.7 88.5l21.2-28.2h-166.3l21.2 28.2zm174.1 759.7c-12.7 51-61.3 63-61.3 63 6.3-23.6 2-49.5 2-49.5-29.6 45-102.3 60-102.3 60 29.3-29.4 33-63.5 33-63.5-35.7 55.5-116.8 79.5-116.8 79.5-81-36.1-112.2-105.8-112.2-105.8-25.3 28.7-1.6 73.8-1.6 73.8-59.8-32.1-100.7-113-100.7-113s-17.1-176.4 152.8-233c0 0-52.9 51.5-50.1 114.5 0 0 55.7-85.1 191.1-87.5 134.1-2.4 164.1-39.5 164.1-39.5s-10.6 54.5-62.7 90.5c0 0 161.3 38 307.7-136 0 0-3.4 145.5-131.5 222 0 0 62.7-1 120.4-49 0 0-34.9 141.6-170.9 131.5 0 0 40.7 49.4 42 90.1 1.3 40.7-9 98-9 98s-15.7-70.3-35.7-90.3-58.3-55.8-58.3-55.8z"/><path class="st0" d="M1401.3 2302.3s32.4 34 34.2 95c2 70.5-7.2 91-7.2 91s31-21 39-78 6.9-95.2-1-105c-10.5-13.1-37-33-37-33s-7 14-28 30zm-443.5-100.6s31.5 58.7 65.5 82c0 0-3 23.5-23.8 60.9-18 32.4 8.5 94.4-12.9 128.4 0 0-15.1-58.8-23.3-84-12.3-37.6 1-68.2-7.5-111.3-6.5-33.4 2-76 2-76zm295.2 298c29.8 4.4 55.8-1.8 93.7-32 26.6-21.2 47.7-20.8 68.8-11 2.1 1 4.1-1.5 2.8-3.5l-5.5-8.4c-4.6-7-12-13.6-20.3-14.5-15.3-1.8-31.3-.2-46 4.3-23.1 7.1-49.5 33-75.2 25.8-17.7-5-36.5-10.5-40 10.5s7.8 26.7 21.7 28.8z"/><path class="st0" d="M1138.1 2500.7c-28.1.6-51.4-8.2-82.8-40.4-22.1-22.6-41.6-24.8-62.3-18.1-2 .7-3.6-1.9-2.2-3.5l6.1-7.1c5-5.9 12.7-11.2 20.4-11.1 14.3.2 28.9 3.4 42 9.3 20.5 9.2 41.9 36.2 66.5 32.5 17-2.6 34.9-5.5 35.7 14.3.8 19.8-10.3 23.8-23.4 24.1z"/><path class="st0" d="M1132.7 2309.7l-45.5 41.7c-1.2 1.1-2.6 1.8-4.2 2.1l-12 2.3c-1.9.4-3.8 0-5.4-1l-47.5-29.1s17.2 37.7 32.3 60.4c.7 1.1 1.2 2.3 1.3 3.5l.9 6.4c.2 1.1.1 2.3-.1 3.4l-29 143.7s36.5-81.2 58.8-110.3c1.5-2 3.7-3.4 6.1-4.1l5.8-1.6c1.7-.5 3.5-.4 5.2.2l68.1 23.1-51.2-54.4c-1.4-1.4-2.2-3.3-2.3-5.3l-.9-12.7c-.2-2.3.1-4.7.8-6.9l18.8-61.4z"/><ellipse transform="rotate(-70.264 2760.39 1203.123)" class="st0" cx="2760.6" cy="1203.2" rx="69.4" ry="44.2"/><path class="st0" d="M2673.4 1533.6c-30.1-59.9-74.2-98.6-98.5-86.4-24.3 12.2-19.6 70.7 10.4 130.6s74.2 98.6 98.5 86.4c24.4-12.2 19.7-70.7-10.4-130.6zm-15.9 92.1c-13.8 6.9-40.3-17.7-59-55.1-18.8-37.4-22.8-73.3-8.9-80.2s40.3 17.7 59 55.1c18.8 37.4 22.8 73.3 8.9 80.2z"/><ellipse transform="rotate(-19.736 3077.555 1203.151)" class="st0" cx="3077.5" cy="1203.2" rx="44.2" ry="69.4"/><path class="st0" d="M3263.1 1447.2c-24.3-12.2-68.4 26.5-98.5 86.4-30.1 59.9-34.8 118.4-10.4 130.6 24.3 12.2 68.4-26.5 98.5-86.4 30.1-59.9 34.8-118.4 10.4-130.6zm-23.6 123.5c-18.8 37.4-45.2 62-59 55.1-13.8-6.9-9.8-42.9 8.9-80.2 18.8-37.4 45.2-62 59-55.1 13.9 6.9 9.9 42.8-8.9 80.2z"/><path class="st0" d="M3152.4 1526.9c23.7-47.2 57.7-80.9 85.9-88.4l-74.4-35.1c1.7-16.4 1.8-33.4.1-50.8-4.7-48.6-16.5-94.4-34.3-134.9 2.6 32-8.5 59.1-29.9 66.8-28.6 10.3-64.9-17.8-81-62.8-16.1-44.9-6-89.7 22.7-100 28.6-10.3 64.9 17.8 81 62.8 1 2.7 1.8 5.4 2.6 8-19.9-109.6-104.5-191.9-205.9-191.9s-186 82.3-205.9 191.8c.8-2.6 1.6-5.3 2.6-8 16.1-44.9 52.4-73 81-62.8 28.6 10.3 38.8 55 22.7 100-16.1 44.9-52.4 73-81 62.8-21.5-7.7-32.6-34.8-29.9-66.8-17.8 40.5-29.6 86.4-34.3 134.9-1.7 17.4-1.6 34.4.1 50.8l-74.4 35.1c28.2 7.6 62.1 41.2 85.9 88.4 23 45.9 30 91.9 20.5 119.3l88.1-54.6c37.5 22.7 80.6 35.5 124.7 35.5 44.2 0 87.3-12.8 124.7-35.5l88.1 54.6c-9.7-27.3-2.7-73.3 20.3-119.2zm-262.1-499.3h64.7c5.3 0 9.7 4.3 9.7 9.7 0 5.3-4.4 9.7-9.7 9.7h-64.7c-5.3 0-9.7-4.4-9.7-9.7 0-5.3 4.3-9.7 9.7-9.7zm-14.5 41.1c1.1-5.2 6.3-8.5 11.5-7.4l71.9 15.7c5.2 1.1 8.5 6.3 7.4 11.5-1.1 5.2-6.3 8.5-11.5 7.4l-71.9-15.7c-5.2-1.1-8.5-6.3-7.4-11.5zm-2 45.9c.6-5.3 5.3-9.2 10.6-8.6l75.7 8c5.3.6 9.2 5.3 8.6 10.6-.6 5.3-5.3 9.2-10.6 8.6l-75.7-8c-5.3-.5-9.2-5.3-8.6-10.6zm-48 419.4c-4.4 2.9-10.5 1.7-13.4-2.8l-35.6-54c-2.9-4.4-1.7-10.5 2.8-13.4 4.4-2.9 10.5-1.7 13.4 2.8l35.6 54c2.9 4.4 1.7 10.5-2.8 13.4zm21.3-8.5c-5.2 1-10.3-2.5-11.3-7.7l-13.8-73.4c-1-5.2 2.5-10.3 7.7-11.3s10.3 2.5 11.3 7.7l13.8 73.4c1 5.2-2.5 10.3-7.7 11.3zm55.7-13.7c-4.8 2.4-10.6.5-13-4.3l-33.5-66.8c-2.4-4.8-.5-10.6 4.3-13 4.8-2.4 10.6-.5 13 4.3l33.5 66.8c2.4 4.8.4 10.6-4.3 13zm-106.1-200.2s24.6-101.9 122.3-161.6c97.7 59.7 122.3 161.6 122.3 161.6-56-117.8-122.3-141.4-122.3-141.4s-66.3 23.6-122.3 141.4zm130.2 198.8c-4.8-2.2-6.9-8-4.7-12.8l31.4-67.8c2.2-4.8 8-6.9 12.8-4.7 4.8 2.2 6.9 8 4.7 12.8l-31.4 67.8c-2.2 4.9-8 7-12.8 4.7zm39.5 10.1c-4.2-3.2-5.1-9.3-1.9-13.5l45.2-59.5c3.2-4.2 9.3-5.1 13.5-1.9 4.2 3.2 5.1 9.3 1.9 13.5l-45.2 59.5c-3.2 4.3-9.2 5.1-13.5 1.9zm89-37.5l-34.8 45.9c-3.1 4-8.9 4.8-12.9 1.8l-.7-.5c-4-3.1-4.8-8.9-1.8-12.9l34.8-45.9c3.1-4 8.9-4.8 12.9-1.8l.7.5c4.1 3.1 4.9 8.9 1.8 12.9zm787.8-289.6c146.1 1.1 216.9 110.1 235.3 136.7 2.2 3.2 6 5.9 12.2 3.6l10.4-4.2c5.3-3.1 6.3-10.1 4.8-16.8l-30.8-204.8c-77.3-106.6-232-98.5-232-98.5s-153-1.5-229.5 91.5l-45.5 195.8c-1.6 6.7.3 13.7 4.9 18.8l6.5 7.2c2.6 2.9 7.2 2.6 9.4-.6 18.8-26.6 100.8-128.7 254.3-128.7z"/><path class="st0" d="M3665.4 1210.1l88 88.7s26.8 27.9 31.3 44.2c.8 2.7 3 4.7 5.7 5.2 3.9.8 9.9 1.3 17.3-.2 2.5-.5 4.7 1.8 4 4.3-1.6 5.9-4.6 12-15 12.8-11 .8-18.7-5.2-21.3-8.3-1.2-1.4-2.6-2.6-4.3-3.5-10-4.9-44.4-21.3-83.1-32.5-29.6-8.6-50.1-17.7-61-23.1-4.1-2-4.3-7.8-.5-10.1l29.3-18c3.3-2 5.1-5.8 4.5-9.7l-7.1-49.7h12.2zm208.2 139.3c6.8-3.9 53.2-22.4 91.3-35.6 29.1-10.1 49.2-20.2 59.7-26.2 4-2.2 3.9-8-.1-10.2l-30.2-16.5c-3.4-1.9-5.4-5.6-5-9.4l4.6-50-12 .6-83.4 93s-25.3 21.2-29.1 37.8c0 0-2 8.3-11.5 7.6s-8-5.3-12.2-3.5c-4.2 1.7 1.4 27.8 27.9 12.4zm-95.6 18.7l-101.2-45.6c-4.1-1.9-8.9-1.1-12.3 1.9l-45.3 38.4c-2.4 2.2-3.8 5.3-3.8 8.5v11.3c0 2.3.7 4.5 2 6.4l47.3 66.8c2.1 3.1 5.7 5 9.4 5h44.3c2.4 0 4.7-.7 6.6-2.1l54.9-41.5c3-2.1 4.8-5.6 4.8-9.3v-29.4c.1-4.5-2.6-8.6-6.7-10.4zm-120.2 27.1c-11.2 0-20.2-9.1-20.2-20.2s9.1-20.2 20.2-20.2c11.2 0 20.2 9.1 20.2 20.2s-9.1 20.2-20.2 20.2zm75 31.2c-6.1 0-11-4.9-11-11s4.9-11 11-11 11 4.9 11 11-4.9 11-11 11zm167 74s31-33 72-33c43 0 104.7 84.4 129 89 24 4.5 79-48 85.7-39 12.8 17.2-111.6 150.1-154.7 145-67.3-8-169.4-104.6-157-133 9.1-21.1 25-29 25-29z"/><path class="st0" d="M3732.8 1489.4s-27-31.3-46.1-31c-19.1.3-81.5 44.4-107 69-22.5 21.6-22.5 25-51 12-29.3-13.4-52-49.7-59.3-43.7-8.2 6.7 73.8 149.2 125.7 161.7 60.9 14.7 178.6-97 171.6-124s-33.9-44-33.9-44z"/><path class="st0" d="M3772.6 1451.7l-11.8-2.8c-2-.5-4 .4-5 2.2l-15.5 28.4c-1.4 2.5-1.3 5.5.1 8 7.7 13.1 33.9 53.5 65.7 60 32.5 6.6 46.2-6.1 60.8-22.1s47.8-32.6 39.2-45.2c-8.1-11.8-18.7-30.2-32.8-23.5-1.2.6-2.4-.6-1.9-1.9 1.6-3.8 4.8-9.6 10.8-12.6 9.3-4.7 17.7-7 27.3 8 11.5 17.8 28.7 25.8 23.3 43.3-5.3 17.4-68.5 69.7-82.7 71.6-18.4 2.6-55.3 4.2-63.3 0s-42.9-34.2-42.9-34.2l-31.7-48 36.3-44.1c3.3-5 6.5-4.3 12.2-2.4 6.6 2.2 13.9 4 13.6 14.2-.2.7-1 1.3-1.7 1.1zm-2136.2-255.6c24.9 25.9 72.9 77.1 96 101.8 8.7 9.3 19 16.8 30.5 22.1l63.9 29.8 34.2-50.1-33.6-55.4-68.2-16.2-93.7-58.1c-11-6.9-18.5-18.2-20.5-31l-3.8-20.9c-.8-5.1-8.1-5.4-9.2-.3l-7.5 39.9c-2.3 13.9 2.1 28.2 11.9 38.4z"/><path class="st0" d="M1808.3 1328.7s-28.2 45.3-88.9 43.3c0 0 27.3 27.7 78.6-2.2 0 0-46.1 44-30.7 87.9 0 0 9.6-42.3 43.6-48.8 0 0-42.8 48.8-7.5 107.7 0 0-2-38.1 19.8-62.9 0 0-6.1 48.5 50.9 108.2l-.8-25.7 24.8 24.9s-13.9-72.7-16.4-127.2 14.9-72.1 14.9-72.1 147 46 295.3 34.4c0 0 10.7 19.1 7.5 64.4s-18 97.1-18 97.1 30.6-15.7 34.7-60.2c0 0 6.2 24.7-4.1 44.5 0 0 35.1-23.7 32.4-82.8 0 0 14.8 24.4 8.4 44.9 0 0 26.2-32 6.7-85.1 0 0 25.6 23.3 66.9 22.8 0 0-35.7-21.5-41.3-52.4-5.6-31-196.2-25.8-196.2-25.8l-280.6-34.9z"/><path class="st0" d="M2247.3 1302.9c1.8-1 56.2 13.2 81.5 19.8 8.4 2.2 17.2 3.2 25.9 2.9l39.9-1.2c18.2-.6 35.2-8.9 46.9-22.8l7.7-9.3c5.8-6.9 16.7-.2 13.1 8.1l-14 32.1c-5.7 13.1-15 24.3-26.9 32.2l-14.6 9.8c-9 6-19.2 9.9-29.9 11.4l-119.4 16.7-10.2-99.7zm-243.9 265.8s-.9-19.5 45.7-18.9c38.2.4 42.1 25.1 42.1 25 0 0-30.8 6.2-43.8 35.8-.1 0-10-36.5-44-41.9z"/><path class="st0" d="M2200.3 1592.4s-25.9-25.5-29.8-56.3c-3.9-30.8-29.9-60.4-50.5-65 8.3 9.1 3.5 17.8 3.5 17.8l-12-10.1-3.4 4.7c-1.1 1.6-3.6 1.3-4.4-.5l-4.1-9.4-8.2 11.5-2.2-8.1-7.9 8-5.5-14.6-6.2 7.4c-1.4 1.7-4.1 1.1-4.7-.9l-1.9-6-10.3 8.5-8.8-9.1-4 10.2-8.3-4.8-8.3 8.4-14.2-5.8-2.5 4.4c-2.1 3.7-6.8 5-10.5 3l-4.4-4.5-6.2 6.2c-.9 2-3.9 1.8-4.5-.4l-.9-3.5-13.6 8c2-12.3 15.6-23.3 15.6-23.3s-33.3-.7-56 57.8c-22.7 58.5-56.1 60.7-56.1 60.7s30.8 7.2 51.4-4.5c0 0-11.7 16.7-6.9 39.3 0 0 9.6-12 22.4-13 0 0-7.7 14.8-3.2 27 0 0 16.5-13.9 33-8 0 0-4.8 14.2 10.7 25.9 15.5 11.8 18.9 26.8 11.6 35.3 0 0 21 .5 34-15.7l19.2 16.9 26.9-18.4s19.4 5.8 25.7 19.6c0 0 11.9-10.3 8.8-34.7 0 0 10 3.2 19.9 2.9 0 0-5.8-18.5 16.6-29.7l4.4 11.5s10.1-12 13-31.4l8 13.2s6.1-29.4-1.3-41.4c.1.3 13.9 12.1 36.1 10.9zm-55.7-24.8c-8.8-19.8-30.4-19.9-30.4-19.9 33.1 32.7-5.8 77.4-30.1 83.4s-36.8-20.4-36.8-20.4c-22.2 38.1-55.9 23.9-69.3-13s14.9-46.1 14.9-46.1c-31.7-4.4-48 13.5-48 13.5-.7-40.7 25.2-54.1 25.2-54.1l7.8 6.2 8.4-12.5 7.3 10.3 7.6-10.8c2.4-3.4 6.9-4.7 10.8-3.1l6.4 2.7 7.3-9 7 11.5 14.1-9.8s10.1 4.9 21.7 2.8c11.6-2.1 20.6 4 20.6 4l5.4-5.1c2.1-1.9 5.3-2.1 7.5-.3l9.3 7.5 6.3-4.3 9.6 9.6 4.5-4.8c20.7 29.6 12.9 61.7 12.9 61.7zM1807.8 1287l8.2 75.8 76.7-9.3 343.9 38.1 69-16.2-42.9-50-455.4-53.7z"/><path class="st0" d="M2258.3 1145.5c-21.9-28.4-77.3-94.1-150.9-136.8-9.9-5.8-21.5-8-32.9-6.2-39.4 6.1-137 26.9-202.4 88.8-4.5 4.3-8.3 9.4-11.1 15l-24.6 50.4c-3 6.1-4.7 12.8-5.1 19.6l-4 68.1 7.1 39.5 261.8 44.4 158.1 14-1-32.9 15.4-48.2c1.8-5.6 2.6-11.4 2.4-17.3l-2.1-68.4c-.3-10.9-4.1-21.4-10.7-30zm-399.4 110.7l-14.4-72.3c-1.3-6.7 2-13.4 8.1-16.3l17.2-8.3 12.4 97.3-23.3-.4zm62.4 2l-14.8-100 56.4-1.8 13.5 97.3-55.1 4.5zm187.5-21.7c-1.5 2.7-3.6 5-5.9 6.9l-32.2 25.8c-10.8 8.7-26.6 6.9-35.2-3.9l-24.8-31.1c-2-2.6-3.6-5.5-4.5-8.7l-8.4-29.3c-2.3-7.8-.5-16.3 4.6-22.6l20.5-25.4c4.6-5.7 11.4-9 18.7-9.3l31.1-1c2.7-.1 5.4.3 8 1.1l17.5 5.3c7.6 2.3 13.7 8.1 16.3 15.6l10.8 30.7c2.4 6.9 1.7 14.5-2 20.9l-14.5 25zm16.5 35.5l44.4-85.5 47.7 18-40.8 88.9-51.3-21.4zm133.5-30.8l-26.7 62.2-26.5-1.1s33.9-87.5 33.8-89l15.3 11.9c4.9 3.7 6.6 10.3 4.1 16z"/><path class="st0" d="M2016.3 1191.2c3.1 36 21.6 51.3 33.5 57 5.2 2.5 11.3 2.7 16.7.6 24.5-9.4 40.4-37.8 44.7-50.1 1.3-3.6 1.2-7.5-.3-11l-4.5-11c-1.6-3.9-5.8-6-9.9-4.8l-7.9 2.9c-4.7 1.8-8.3 5.7-9.5 10.6l-6.3 24.7c-.4 1.5-1.1 2.8-2.1 3.9l-7.7 8.6c-1.3 1.4-3.5 1.1-4.4-.5l-4.6-8.4c-.7-1.3-1.1-2.7-1.1-4.1l-.7-23c-.1-4.4-1.9-8.7-4.9-11.9l-8.6-9.3c-3.4-3.7-9.3-3.2-12.2.9l-5.9 8.7c-3.3 4.6-4.8 10.4-4.3 16.2zm2839.8 103.5c-9.6-26.8-27.4-50.1-34.1-58.3-1.7-2.1-2.7-4.8-2.7-7.5v-13.3c0-2.2.5-4.4 1.4-6.4l19.8-41.2c1.1-2.4 3.3-4.2 5.8-4.9l2.8-.8c2.7 0 4.7-2.6 3.8-5.2-9.4-29.2-54.6-72.3-54.6-72.3-61.6-112.4-171-109.8-193.9-108-2.8.2-5.7.2-8.5 0-22.9-1.9-132.3-4.4-193.9 108 0 0-45.1 43-54.6 72.3-.8 2.6 1.1 5.2 3.8 5.2l2.8.8c2.5.7 4.6 2.5 5.8 4.9l19.8 41.2c1 2 1.4 4.2 1.4 6.4v13.3c0 2.7-.9 5.4-2.7 7.5-6.7 8.2-24.4 31.5-34.1 58.3-1.8 5.1 1.9 10.5 7.3 10.5h.4c2.6 0 5 1.2 6.6 3.2l36.5 46.7c2.5 3.2 6.3 5.1 10.4 5.1l12.7-2c2.5 0 4.9.9 6.8 2.4l40 33.1c3.6 2.9 6.3 6.8 7.6 11.3l56.2 185.2c.8 2.7 1.3 5.4 1.3 8.2l.7 26.3c.1 4.1 1.9 8 5 10.8l57.8 52.7c3.7 3.3 9.2 3.3 12.9 0l21.1-20.3-1-10.6c0-2.7 2.6-4.6 5.1-3.7l10.2 2.3 22.3-20.4c3.1-2.8 4.8-6.7 5-10.8l.7-26.3c.1-2.8.5-5.5 1.3-8.2l54.3-178.8-.9-28.8c0-1.3-.3-2.5-1-3.5l-5.1-8.3c-.6-.9.4-2 1.2-1.4l7.1 5.9c1.3 1.1 2.1 2.9 2.2 4.8l.5 19.1.2.6c1.4-2.3 3.2-4.3 5.3-6l40-33.1c1.9-1.6 4.4-2.4 6.8-2.4l12.7 2c4.1 0 7.9-1.9 10.4-5.1l36.5-46.7c1.6-2 4-3.2 6.6-3.2h.4c5.9-.1 9.6-5.5 7.8-10.6zm-234.5-79.2l18.4 12.6c.9.6.4 1.9-.6 1.9h-6.4c-2 0-3.9-.9-5.2-2.5l-7.9-10.2c-.7-1.2.6-2.6 1.7-1.8zm-76.8 89.8c-1.1 4.3-4.3 7.7-8.6 9l-48.4 15c-3.3 1-6.9.7-9.9-1l-45.4-25.1c-2.7-1.5-4.7-3.9-5.8-6.8l-16-44c-2.1-5.9.3-12.4 5.8-15.4l9.7-5.4c3.8-2.1 8.4-2.1 12.2 0l96.1 52.5c3.9 2.2 8.8 1.9 12.5-.7l6.3-3.8-4.3 10.5c-.9 2.3-1.7 4.7-2.3 7.1l-1.9 8.1zm102.6 133.6c-15.1 48.6-22.5 98.8-41.8 116.3-2.9 2.6-7.4 2.6-10.3 0-19.4-17.5-26.8-67.7-41.8-116.3-11.8-38.2-3.5-53.2 1.9-58.6 1.5-1.5 4.1-.7 4.5 1.4 13.6 73.4 40.6 118.6 40.6 118.6s27-45.1 40.6-118.6c.4-2.1 3-2.9 4.5-1.4 5.3 5.3 13.6 20.4 1.8 58.6zm140.6-185.2l-17.3 41.2c-1 2.8-3 5.1-5.5 6.5l-46.5 25c-2.9 1.6-6.3 1.9-9.5 1l-18.8-4.2 2.2 4.9c.6 1.3 1.3 2.5 2.1 3.7l11.5 16.2c.8 1.1-.7 2.5-1.7 1.6l-16.9-14.1c-2.1-1.7-3.8-3.8-5.1-6.2l-4.9-9-9.6-2.2c-4.1-1.3-7.2-4.5-8.2-8.7l-.9-6.8c-.6-2.3-1.3-4.6-2.2-6.8l-6.1-10.1 6 3.7c3.4 2.3 7.7 2.6 11.4.9V1268c0-1.7-.5-3.5-1.5-4.9l-8.1-11.5c-.9-1.3.7-2.8 1.9-1.9l11.4 8.2c2.1 1.5 3.4 4 3.5 6.6l.7 21.2 85.8-51.9c3.6-2 8.1-2 11.7 0l9.3 5.2c5 2.8 7.4 9 5.3 14.7zM2151.6 1888s-68 26-78 126l-35-46s5 43-26 98 24 125 51 144 13.2 37.3 91 76c9 4.5 27.5 14.5 28 33 .6 23 17 45 30 52 0 0-13-52 10-68 17.2-12-6 46-6 46s96-40 99-153c0 0 65 31 63 115 0 0 23.3-30.3 18-57.7-5.3-27.3 4.8-23.9 2-59.3-1.9-24.3 20.6-77.3-29.4-114.7-50-37.3 1.3-82.7 33.3-100.7 0 0-103.3-10-142 88 0 0-50.7-64-3.3-141.3 0 0-102 30.7-93.3 154.7 0 0-36.7-57.3-38-95.7-.7-22.6 4.1-66.3 25.7-96.3zm-123.6-44.6s-15.3 28.7 0 63.3 2 67.3-20 76.7c0 0 12-11.3 0-38.7s-24-64 20-101.3z"/><path class="st0" d="M2481.3 2126.7s-4.7 35.5-39.3 49.3c-35.3 14.2-68.7 66.7-31.3 151.3 37.3 84.7 8 158.7 22.7 181.3 0 0 2-22.7 16-40s17.3-28.7 17.3-28.7 26 24 14.7 65.3c0 0 139.3-80 43.3-148.7 0 0 18 51.3-34 64 0 0 8-49.3 28-70s11.3-41.3-24.7-81.3-30.7-68-17.7-87.3c13-19.2 14.3-41.2 5-55.2zm-422 74s-42-16.7-70 30.7c0 0-16.2-81.3-153.8-54 0 0 106.5 37.3 68.5 101.3s16.7 107.3 16.7 107.3 23.3 12.7 10.7 31.3c-12.7 18.7-13 55.7 11 71.7s13.8 29.5 32 42.3c0 0-3.5-46.6 3-59.3 7.8-15.2 22-30 35.3 2.7 13.3 32.7 20 48.7 30.7 50.7 0 0-9.3-20.7-6.7-41.3 2.1-16.3-7.8-60.9 12.7-88.7 25.5-34.7-4.3-79 15-121 13.6-29.9 9.6-58.4-5.1-73.7z"/><path class="st0" d="M2259.6 2491.5c-5.5-8.5-9.5-25 16.5-40 29.1-16.8 36.5-54 36.5-54s5.5 19.5 0 27.5c0 0 10-15.5 24-17.5s18-13.5 18-13.5 3 14-8.5 21.5c0 0 30.7-.3 50.5-37 0 0 3 19.5-5.5 27 0 0 24.5-6 31.5-21 0 0 1 19.5-8.5 25.5 0 0 14.5 3 28-14l-2.5 21.5s-14.5 16.5-17 34-8.5 23-20 26.5-32.8-25-78.5 3.5c-42.6 26.6-56.5 22.3-64.5 10zm-40.5-37s10.1 34-25.7 44.5-63.3-41-100.3-18.5-70.5-34-70.5-45l5.5-24.5s9 32 26 33.5c0 0-14.5-15-15-43 0 0 13.7 23.5 33.6 24.5 0 0-18.1-14.5-11.6-39.5 0 0 21 29 57.5 39.5 0 0-8-10.5-8-23.5 0 0 10.9 17 28 23 14.9 5.2 25.5 14.3 25.5 14.3s-14.5-18.3-7-36.3c0 0 4 17.5 18.5 26.5 21.2 13.2 27.4 48.5 43.5 24.5zM1864 2085.4s-4.7 25.9 19.3 56.7c0 0-29.3 4-32.7-25.3-3.3-29.4 13.4-31.4 13.4-31.4zm563.3-91.4s3.3-39.3 34-60.7c30.7-21.3 25.3-45.3 25.3-45.3s42.7 71.4-59.3 106zm550.5-69.1s-10 24 7 35 26.1 12.5 15 34c-14.8 28.6 3.1 78.8 23 114.7 1.5 2.7 5.2 3.3 7.5 1.2 9.7-8.7 33.3-29.5 55.5-43.9 24.8-16.1 35.5-56 10-70-20.9-11.5-8-45 27-53 0 0-25 27.7 5 56 23.6 22.3-39.7 75.6 2 103.1 3.5 2.3 8.3 1.3 10.5-2.3 6.5-10.8 22.6-33.3 49.6-46.8 37-18.5 41-35 41-35s3 18-8 30.5c-9.9 11.3-29.5 48.4-16.6 78.3 1.8 4.1 7.5 4.4 9.7.4 4.4-8 12.4-19 25.4-23.8 0 0 31.5 42.5 23.8 98.7-.3 2.5 2.7 4 4.5 2.2 13.6-14 45.6-53.1 36.7-101.9-7.3-40.3-27-8-37-75.5-10.2-69-77.9-51.2-97-102-15-40-38.5-50-78-37.5 0 0-58-65.5-116-15.5 0 0-52-12-72 13s-16 44.5-35 54.5c0 0-103.5 26.5-82.5 95.1-63 20-70.5 99.4-49 136.9 16.1 28 21.5 60.9 23.3 75.6.4 3.2 4.3 4.5 6.5 2.2 14.6-15.1 51.1-57.1 39.8-87.3-14-37.5-6-66.5-6-66.5s10 20 42 17c18.8-1.8 27.7 6.3 31.7 12.2 1.3 2 4.3 1.4 4.9-.9 3.2-13.1 6.4-43.9-21.6-74.9-37-41-20-65.5 10-76 0 0-19.1 46.6 23.5 73 30.6 19 36.5 41.4 37.5 52.1.2 2.6 3.3 3.8 5.3 2.1 14.6-12.5 53.8-50.8 40.7-93.8-16.2-52.2-58.2-37.2.3-81.2zm49 475l24.2.7c12.6.4 24.8 4.9 34.4 13.1 19.1 16.2 38.5 26 53.9 31.9 17.4 6.7 36.8 6.3 53.9-1.1 38.3-16.5 113.3-48.8 112.6-86.5-.8-40.7-.9-60.6-11.2-82.3-4.1-8.6-13.2-13.7-22.7-12.7-140 13.8-184.5 13-245.1 13-60.7 0-105.2.8-245.8-13.1-9.1-.9-17.8 3.9-21.7 12.2-10.6 21.9-10.7 41.8-11.5 82.9-.7 37.7 74.3 70 112.6 86.5 17.1 7.4 36.5 7.8 53.9 1.1 15.4-5.9 34.7-15.7 53.9-31.9 9.6-8.2 21.8-12.7 34.4-13.1l24.2-.7zm385.4-167v255.7l13.8-12.9c4.4-4.1 6.9-9.9 6.9-15.9v-199.2c0-4.1-1.6-8.1-4.5-11l-16.2-16.7zm-106.4 329.7l-44.3 19 13.3-35.7 31-31.3zm99.7-126.5v-216l-92.7-65.5v223.7h41.4z"/><path class="st0" d="M3354.2 2392.3h-41.4v167.6l34-16.6 58.7-43.4v-49.8zm550-73.2l92.3-36 78-1.3-20.7 22.7-58.7.7-69.3 52 1.3 152.7 28 35.3 134.7-169.3 15.9-1.7c7.8-.7 13.7-7.3 13.6-15.1l2.5-51.8 27.5-147.7c.8-4.2 1.2-8.4 1.2-12.7V2082c0-2.2-2.8-3.2-4.2-1.5l-45.8 56.8-11.7-194c-.1-1.1-1.6-1.3-2-.2l-17 52.9-10 56.7-8 26.3c-1.2 3.8-4.7 6.4-8.6 6.4-3.6 0-6.8 2.3-8 5.7l-9.6 27.7-54-34.5-33-148.5-32-104.1c-.7-2.4-4.1-2.4-4.9 0l-32 104.1-33 148.5-54 34.5-9.6-27.7c-1.2-3.4-4.4-5.7-8-5.7-4 0-7.5-2.6-8.6-6.4l-8-26.3-10-56.7-17-52.9c-.3-1.1-1.9-.9-2 .2l-11.7 194-45.8-56.8c-1.4-1.7-4.2-.8-4.2 1.5v64.9c0 4.2.4 8.5 1.2 12.7l27.5 147.7 2.5 51.8c-.1 7.8 5.8 14.4 13.6 15.1l15.9 1.7 134.7 169.3 28-35.3 1.3-152.7-69.3-52-58.7-.7-20.7-22.7 78 1.3 92.4 36zm1489.5-404.7l116.8 134.7 40.5-32.4 72.5 61.3 32.4-166.2-74.3 98.7-8.5-43.5c-1.5-7.5-6.5-13.7-13.4-16.8l-141.5-62.6c-15.6-6.9-33.5-6.9-49.1 0l-141.5 62.6c-7 3.1-12 9.4-13.4 16.8l-8.5 43.5-74.3-98.7 32.4 166.2 72.5-61.3 40.5 32.4 116.9-134.7z"/><path class="st0" d="M5393.7 2324l137.3-102.1 61.3-67.3 37.2 59.5 7.3-16.8-19.3-103.6-65.8-52.5-37.2 29.3-4.9-10.7-115.9-134.5-117 135.9-3.8 9.3-37.1-29.3-65.9 52.5-19.3 103.6 7.3 16.8 37.2-59.5 61.3 67.3z"/><path class="st0" d="M5393.7 2532.4l138.8-107.5 33.3-106.3h29.7l20.7-71.2-27-55-52.4 51.4c-2.9 2.9-5 6.5-6.1 10.5l-6 22.8-131.2 88.3-131.2-88.3-6-22.8c-1.1-4-3.2-7.6-6.1-10.5l-52.4-51.4-27 55 20.7 71.2h29.7l33.3 106.3 139.2 107.5zM4816 1985.5c-40.8-44.9-77.2-67-102.6-77.8-23.6-10.1-50.3-10.1-74 0-25.4 10.8-61.7 32.9-102.6 77.8-77.9 85.6-99.4 121.2-99.5 144.9-.1 15.4 23.2 100.9 51.9 104.4 17.6 2.1 29 4.7 35.1 5 3.7.2 7.2 1.7 9.8 4.2l75.4 67.8s26.8 29.4 66.9 29.4c40.1 0 66.9-29.4 66.9-29.4l75.4-67.8c2.7-2.5 6.2-4 9.8-4.2 6.1-.3 17.5-2.9 35.1-5 28.6-3.5 51.9-89 51.9-104.4-.2-23.7-21.7-59.3-99.5-144.9zm-271.4 180.9c-13.4 0-24.2-10.8-24.2-24.2 0-13.4 10.8-24.2 24.2-24.2 13.4 0 24.2 10.8 24.2 24.2.1 13.3-10.8 24.2-24.2 24.2zm131.8 121.4c-32.7 0-59.2-26.5-59.2-59.2s26.5-59.2 59.2-59.2 59.2 26.5 59.2 59.2-26.5 59.2-59.2 59.2zm131.8-121.4c-13.4 0-24.2-10.8-24.2-24.2 0-13.4 10.8-24.2 24.2-24.2s24.2 10.8 24.2 24.2c0 13.3-10.8 24.2-24.2 24.2z"/><path class="st0" d="M4988.4 2249.5c-8.1-28.6-26.4-50.3-38-61.9-5.5-5.5-14.4-5.6-20.1-.3l-47.6 45.1c-5.6 5.3-12.5 8.9-20 10.4l-32.4 5.3c-2 .3-3.9 1.2-5.5 2.4-75.3 60.8-112.5 95.8-116.7 108.8-1.6 4.8-8 6.3-13.1 6.3h-37.4c-5.1 0-11.6-1.4-13.1-6.3-4.4-14.3-41.4-48-116.7-108.8-1.6-1.3-3.5-2.1-5.5-2.4l-32.4-5.3c-7.5-1.5-14.5-5.1-20-10.4l-47.6-45.1c-5.7-5.4-14.6-5.3-20.1.3-11.6 11.6-29.9 33.4-38 61.9-3 10.6-3.1 21.8-.3 32.4 6.9 26.6 25.4 86.6 61.5 134.4 0 0 47.7 58.3 89.6 58.3 52.8 0 95-84.8 161.3-84.8 66.3 0 108.4 84.8 161.3 84.8 41.9 0 89.6-58.3 89.6-58.3 36.1-47.8 54.6-107.8 61.5-134.4 2.8-10.6 2.8-21.8-.3-32.4zm-568.5 47.2c-9 0-16.3-10.1-16.3-22.6s7.3-22.6 16.3-22.6 22.6 11.7 22.6 24.2-13.6 21-22.6 21zm126.9 113.2c-27.2 0-49.3-22.1-49.3-49.3 0-27.2 22.1-49.3 49.3-49.3 27.2 0 49.3 22.1 49.3 49.3 0 27.2-22.1 49.3-49.3 49.3zm259.2 0c-27.2 0-49.3-22.1-49.3-49.3 0-27.2 22.1-49.3 49.3-49.3s49.3 22.1 49.3 49.3c.1 27.2-22 49.3-49.3 49.3zm126.9-113.2c-9 0-22.6-8.5-22.6-21s13.6-24.2 22.6-24.2 16.3 10.1 16.3 22.6-7.3 22.6-16.3 22.6zm261.5-1769.1c2.3 11.6 1.3 10.5-3.3 88.7-5.5 92.2 40 158 40 158-20.7-5.3-31.3-20.7-31.3-20.7l19.3 36.7c-110-77.3-115.3-164-115.3-164-6 20-2.7 43.5-2.7 43.5-82-231.1 49-334.5 49-334.5 27-76.4 99.5-108 99.5-108-42-61.5-9-121.5-9-121.5s17.5 55.1 58.5 76.1c0 0-31-46-9-113 0 0 23 36 40 48 0 0 127-24 138 73 0 0 115 24 146 182 0 0 123.7 131.8 23 270 0 0 8.7-25.7 2.7-58.3 0 0-10.7 151.3-104.7 206.7 0 0 70.7-139.3 36.7-256.7 0 0-6 20-10.7 31.3 0 0-1.3-72.4-22-116.9 0 0-13.3 77.2-154.7 57.2 0 0 48.7-11.3 71.7-53.7 0 0-90.3 76-202.3 67.3 0 0 28.7-12 44.7-44 0 0-20.3 23.7-62 37.3-34.5 11.5-42.1 15.5-42.1 15.5m414.7-334l6 101.3s12.7 6.7 28.7 0l-3.3-95.3c-.1 0-15.4-14.7-31.4-6z"/><circle class="st0" cx="5679.8" cy="244.4" r="38.9"/><path class="st0" d="M5577.6 543.4s-12.9-1-22.4.7c-1.3-5.8-6.4-10.2-12.7-10.2h-119.4c-13.1 0-24 8.3-28.2 19.7h-31.6c-4.2-11.4-15.1-19.7-28.2-19.7h-119.4c-6.2 0-11.3 4.3-12.7 10-8.3-1.5-18.5-.5-18.5-.5l-5.5 34.5c20.7-7.5 27.3 4.6 29.3 13.1l1 7.2 1.7 12.6c2.9 24.7 25.5 43.5 50.4 44l62.7 1.4c10.7.2 20.4-5.1 26.1-13.5 0 0 11.9-13.7 14.8-34 3.3-22.5 14-20.5 14-20.5s10.7-2 14 20.5c3 20.2 14.8 33.9 14.8 34 5.7 8.4 15.4 13.7 26.1 13.5l62.7-1.4c24.9-.5 47.5-19.3 50.4-44l1.7-12.6.8-6.2c2-8.5 9.1-21.9 33.5-14.1l-5.4-34.5zM5343.2 570l-7.7 49.5c-1.4 8.9-9.1 15.5-18.1 15.5h-53.8c-16.2 0-29.7-12.3-31.1-28.4l-3.4-38c-.7-8 5.6-14.9 13.6-14.9h86.5c8.7-.1 15.4 7.7 14 16.3zm185.9-1.5l-3.4 38c-1.5 16.1-14.9 28.4-31.1 28.4h-53.8c-9 0-16.7-6.6-18.1-15.5L5415 570c-1.3-8.6 5.3-16.3 14-16.3h86.5c8-.1 14.3 6.8 13.6 14.8zm26.1-335.4c7.9 7.6 17.5 18.5 25.2 32.3l46.7-1.4v-35l-71.9 4.1zm-359.7 20.7l-142.4 8.2v19l122-3.6c4.6-6.8 11.5-15.6 20.4-23.6zm191.7 825.8c-54.5-.7-156.8 17.8-191.6 103.2-33.3 81.7 1.4 116.8-2.8 184.4 0 0 39.5 1.7 83.3-25.2 0 0-20.6 22.5-37.5 28.8 0 0 140.8-5.6 194.6-96.3 0 0-8.8 36.3-28.8 62.6 0 0 81.3-42.9 107.6-135.8 1.9 12.9 16 43.4 22.9 54.3 12.5 19.7 29.7 37 34.9 60.5 4.1 18.2 3.7 38.9-.3 57.2 0 0 32.5-46.3 23.1-134.5s-59.8-157.4-205.4-159.2zm-209.7 84.1l-11.5-21.4-80.7-150.2-20-16.3c-1.5-1.2-3.7-.2-3.7 1.8v38.4l31.9 210.4 35 64.5c1.6 2.9 4.6 4.7 8 4.7h9.6c-.1.1-12-66.1 31.4-131.9zm-79.1 165.1l-21.5 26.2c-6 7.3-7.4 17.4-3.7 26.2l46.3 107.5c4.7 10.8 15.3 17.8 27 17.8h14.7l-24.2-200.7h-4.9c-3.3 0-6.4-1.8-8-4.7l-31.7-58.6.5 59.8c-.1 7.5 1 18.7 4.8 25.3l.7 1.2zm182.2 167.1l-4.6 14.1-71.8 34.7-5.2-38.2zm3.8 68.5l-64.8 59.1 34.8 28.2 31.9-76.5zm312.5-400.7l11.5-21.4 80.7-150.2 20-16.3c1.5-1.2 3.7-.2 3.7 1.8v38.4l-31.9 210.4-35 64.5c-1.6 2.9-4.6 4.7-8 4.7h-9.6c.1.1 12-66.1-31.4-131.9z"/><path class="st0" d="M5387.2 1027c-125.8 0-196.8 82.1-215.9 107.8l11.1 21.8c6.4-8.8 13.7-17.5 22.3-26 75.1-74.5 182.4-74.5 182.4-74.5s107.3 0 182.4 74.5c8.6 8.5 16 17.3 22.3 26l11.1-21.8c-19-25.7-89.9-107.8-215.7-107.8zm288.7 301.8l21.5 26.2c6 7.3 7.4 17.4 3.7 26.2l-46.3 107.5c-4.7 10.8-15.3 17.8-27 17.8h-14.7l24.2-200.7h4.9c3.3 0 6.4-1.8 8-4.7l31.7-58.6-.5 59.8c.1 7.5-1 18.7-4.8 25.3l-.7 1.2zm-198.1 167.1l4.7 14.1 71.7 34.7 5.2-38.2zm-3.8 68.5l64.8 59.1-34.8 28.2-31.9-76.5z"/></g></svg>