<svg xmlns="http://www.w3.org/2000/svg" viewBox="0 0 800 800"><style>.st0{fill:#fff}.st1{fill:#f39e32}</style><g id="Layer_1"><path class="st0" d="M415.1 257.4c146.1 1.1 216.9 110.1 235.3 136.7 2.2 3.2 6 5.9 12.2 3.6l10.4-4.2c5.3-3.1 6.3-10.1 4.8-16.8L647 171.9C569.7 65.3 415 73.4 415 73.4s-153-1.5-229.5 91.5L140 360.7c-1.6 6.7.3 13.7 4.9 18.8l6.5 7.2c2.6 2.9 7.2 2.6 9.4-.6 18.8-26.6 100.7-128.7 254.3-128.7z"/><path class="st0" d="M237.3 274.1l88 88.7s26.8 27.9 31.3 44.2c.8 2.7 3 4.7 5.7 5.2 3.9.8 9.9 1.3 17.3-.2 2.5-.5 4.7 1.8 4 4.3-1.6 5.9-4.6 12-15 12.8-11 .8-18.7-5.2-21.3-8.3-1.2-1.5-2.6-2.6-4.3-3.5-10-4.9-44.4-21.3-83.1-32.5-29.6-8.6-50.1-17.7-61-23.1-4.1-2-4.3-7.8-.5-10.1l29.3-18c3.3-2 5.1-5.8 4.5-9.7l-7.1-49.7h12.2zm208.2 139.2c6.8-3.9 53.2-22.4 91.3-35.6 29.1-10.1 49.2-20.2 59.7-26.2 4-2.2 3.9-8-.1-10.2l-30.2-16.5c-3.4-1.9-5.4-5.6-5-9.4l4.6-50-12 .6-83.4 93s-25.3 21.2-29.1 37.8c0 0-2 8.3-11.5 7.6s-8-5.3-12.2-3.5c-4.2 1.8 1.4 27.8 27.9 12.4zM349.9 432l-101.2-45.6c-4.1-1.9-8.9-1.1-12.3 1.9l-45.3 38.4c-2.4 2.2-3.8 5.3-3.8 8.5v11.3c0 2.3.7 4.5 2 6.4l47.3 66.8c2.1 3.1 5.7 5 9.4 5h44.3c2.4 0 4.7-.7 6.6-2.1l54.9-41.5c3-2.1 4.8-5.6 4.8-9.3v-29.4c0-4.4-2.6-8.5-6.7-10.4zm-120.3 27.1c-11.2 0-20.2-9.1-20.2-20.2s9.1-20.2 20.2-20.2c11.2 0 20.2 9.1 20.2 20.2s-9 20.2-20.2 20.2zm75.1 31.3c-6.1 0-11-4.9-11-11s4.9-11 11-11 11 4.9 11 11c0 6-4.9 11-11 11zm166.9 74s31-33 72-33c43 0 104.7 84.4 129 89 24 4.5 79-48 85.7-39 12.8 17.2-111.6 150.1-154.7 145-67.3-8-169.4-104.6-157-133 9.2-21.1 25-29 25-29z"/><path class="st0" d="M304.7 553.4s-27-31.3-46.1-31c-19.1.3-81.5 44.4-107 69-22.5 21.6-22.5 25-51 12-29.3-13.4-52-49.7-59.3-43.7-8.2 6.7 73.8 149.2 125.7 161.7 60.9 14.7 178.6-97 171.6-124s-33.9-44-33.9-44z"/><path class="st0" d="M344.4 515.7l-11.8-2.8c-2-.5-4 .4-5 2.2l-15.5 28.4c-1.4 2.5-1.3 5.5.1 8 7.7 13.1 33.9 53.5 65.7 60 32.5 6.6 46.2-6.1 60.8-22.1 14.7-16 47.8-32.6 39.2-45.2-8.1-11.8-18.7-30.2-32.8-23.5-1.2.6-2.4-.6-1.9-1.9 1.6-3.8 4.8-9.6 10.8-12.6 9.3-4.7 17.7-7 27.3 8 11.5 17.8 28.7 25.8 23.3 43.3-5.3 17.4-68.5 69.7-82.7 71.6-18.4 2.6-55.3 4.2-63.3 0s-42.9-34.2-42.9-34.2l-31.7-48 36.3-44.1c3.3-5 6.5-4.3 12.2-2.4 6.6 2.2 13.9 4 13.6 14.2-.1.7-.9 1.3-1.7 1.1z"/></g></svg>