<svg xmlns="http://www.w3.org/2000/svg" viewBox="0 0 800 800"><style>.st0{fill:#fff}.st1{fill:#f39e32}</style><g id="Layer_1"><path class="st0" d="M354.7 100.7s-68 26-78 126l-35-46s5 43-26 98 24 125 51 144 13.2 37.3 91 76c9 4.5 27.5 14.5 28 33 .6 23 17 45 30 52 0 0-13-52 10-68 17.2-12-6 46-6 46s96-40 99-153c0 0 65 31 63 115 0 0 23.3-30.3 18-57.7-5.3-27.3 4.8-23.9 2-59.3-1.9-24.3 20.6-77.3-29.4-114.7s1.3-82.7 33.3-100.7c0 0-103.3-10-142 88 0 0-50.7-64-3.3-141.3 0 0-102 30.7-93.3 154.7 0 0-36.7-57.3-38-95.7-.8-22.7 4-66.3 25.7-96.3zM231 56s-15.3 28.7 0 63.3 2 67.3-20 76.7c0 0 12-11.3 0-38.7s-24-64 20-101.3z"/><path class="st0" d="M684.4 339.3s-4.7 35.5-39.3 49.3c-35.3 14.2-68.7 66.7-31.3 151.3 37.3 84.7 8 158.7 22.7 181.3 0 0 2-22.7 16-40s17.3-28.7 17.3-28.7 26 24 14.7 65.3c0 0 139.3-80 43.3-148.7 0 0 18 51.3-34 64 0 0 8-49.3 28-70 20-20.7 11.3-41.3-24.7-81.3s-30.7-68-17.7-87.3c13-19.2 14.3-41.2 5-55.2zm-422 74s-42-16.7-70 30.7c0 0-16.2-81.3-153.8-54 0 0 106.5 37.3 68.5 101.3s16.7 107.3 16.7 107.3 23.3 12.7 10.7 31.3c-12.7 18.7-13 55.7 11 71.7s13.8 29.5 32 42.3c0 0-3.5-46.6 3-59.3 7.8-15.2 22-30 35.3 2.7 13.3 32.7 20 48.7 30.7 50.7 0 0-9.3-20.7-6.7-41.3 2.1-16.3-7.8-60.9 12.7-88.7 25.5-34.7-4.3-79 15-121 13.6-29.8 9.5-58.3-5.1-73.7z"/><path class="st0" d="M462.7 704.2c-5.5-8.5-9.5-25 16.5-40 29.1-16.8 36.5-54 36.5-54s5.5 19.5 0 27.5c0 0 10-15.5 24-17.5s18-13.5 18-13.5 3 14-8.5 21.5c0 0 30.7-.3 50.5-37 0 0 3 19.5-5.5 27 0 0 24.5-6 31.5-21 0 0 1 19.5-8.5 25.5 0 0 14.5 3 28-14l-2.5 21.5s-14.5 16.5-17 34-8.5 23-20 26.5-32.8-25-78.5 3.5c-42.6 26.5-56.5 22.2-64.5 10zm-40.5-37s10.1 34-25.7 44.5-63.3-41-100.3-18.5-70.5-34-70.5-45l5.5-24.5s9 32 26 33.5c0 0-14.5-15-15-43 0 0 13.7 23.5 33.6 24.5 0 0-18.1-14.5-11.6-39.5 0 0 21 29 57.5 39.5 0 0-8-10.5-8-23.5 0 0 10.9 17 28 23 14.9 5.2 25.5 14.3 25.5 14.3s-14.5-18.3-7-36.3c0 0 4 17.5 18.5 26.5 21.2 13.1 27.4 48.5 43.5 24.5zM67 298s-4.7 25.9 19.3 56.7c0 0-29.3 4-32.7-25.3C50.4 300 67 298 67 298zm563.4-91.3s3.3-39.3 34-60.7c30.7-21.3 25.3-45.3 25.3-45.3s42.7 71.3-59.3 106z"/></g></svg>