<svg xmlns="http://www.w3.org/2000/svg" viewBox="0 0 800 800"><style>.st0{fill:#fff}.st1{fill:#f39e32}</style><g id="Layer_1"><path class="st0" d="M211.9 205.3l-3.6 3.9c-4.7 5.1-6.6 12.1-5.2 18.8l5.9 28.8c1.2 5.9-.5 12.1-4.7 16.5L179.9 299c-3.2 3.4-7.6 5.3-12.3 5.3h-27.7v54l28 31v70l99.5 24.4c4.3 1.1 8.5 2.5 12.6 4.2l30.7 13.3s-81.4-136-128.1-168 22-17.3 52.7 30.7 123 194.7 147.7 217.3c0 0-43.7-116-49.7-156.7s-24.4-136.5-52.7-129c-33.6 8.9-59.4-45.2-68.7-90.2zm376.2 0l3.6 3.9c4.7 5.1 6.6 12.1 5.2 18.8l-5.9 28.8c-1.2 5.9.5 12.1 4.7 16.5L620 299c3.2 3.4 7.6 5.3 12.3 5.3H660v54l-28 31v70l-99.5 24.4c-4.3 1.1-8.5 2.5-12.6 4.2l-30.7 13.3s81.4-136 128.1-168c46.7-32-22-17.3-52.7 30.7s-123 194.7-147.7 217.3c0 0 43.7-116 49.7-156.7s24.4-136.5 52.7-129c33.7 8.9 59.5-45.2 68.8-90.2zm-487.2-47L75.5 209c-3 6-3.9 12.8-2.6 19.4l31.5 157.3 27.5-23-31-204.4z"/><path class="st0" d="M139.9 373.3l-26.7 22.6v118l26.7 27.4 20-24v-124zm260.1 227s43.1-116 58.1-201.1c11.5-65.3 31.7-109.5 40-125.6 2.3-4.4 7.1-7 12.1-6.3l33.8 7.6c2 .3 4.1-.4 5.5-1.9 19.8-19.9 27.5-55.5 29-70.5.5-4.7-.7-9.3-3.3-13.2C532 124.8 429.1 58.7 405.1 43.8c-3.1-1.9-7-1.9-10.1 0-24 14.9-126.9 81.1-170.2 145.5-2.6 3.9-3.8 8.6-3.3 13.2 1.6 15 9.3 50.6 29 70.5 1.4 1.4 3.5 2.1 5.5 1.9l33.8-7.6c5-.6 9.8 1.9 12.1 6.3 8.3 16.1 28.5 60.3 40 125.6 15 85.1 58.1 201.1 58.1 201.1zm299.1-442l25.4 50.7c3 6 3.9 12.8 2.6 19.4l-31.5 157.3-27.5-23 31-204.4zm-39 215l26.7 22.6v118l-26.7 27.4-20-24v-124z"/><path class="st0" d="M400 757.7h60.8c4.7 0 9.1-2 12.1-5.6l135.2-157.5 16-117.7-20 3-6.5 58.1c-1 6.7-4.5 12.8-9.9 17l-49.1 37.5-79.2 125.3-20.9-26.8c-2.8-3.6-7.1-5.7-11.7-5.7h-53.6c-4.6 0-8.9 2.1-11.7 5.7l-20.9 26.9-79.2-125.3-49.1-37.6c-5.4-4.1-9-10.2-9.9-17l-6.5-58.1-20-3 16 117.7 135.2 157.5c3 3.5 7.5 5.6 12.1 5.6H400z"/></g></svg>