<svg xmlns="http://www.w3.org/2000/svg" viewBox="0 0 800 800"><style>.st0{fill:#fff}.st1{fill:#f39e32}</style><g id="Layer_1"><path class="st0" d="M398.5 146.4v75.7l-40 64.7 40 50.3v56.3l-70.7-106.6 41.3-69.4v-43.3l7.4-2.7v-16l22-9"/><path class="st0" d="M323.6 289.5l-1.7-2.6 1.6-2.7 23.1-38.7-14.1-14.1-33.4 58 45.4 66 26.2 5.2zm42.5-73.4v-44l7.3-2.5.1-6.8h-10.4l-28 56.6 16.9 17zm35.4-69.7l22 9v16l7.4 2.7v43.3l41.3 69.4-70.7 106.6v-56.3l40-50.3-40-64.7v-75.7"/><path class="st0" d="M476.4 289.5l1.7-2.6-1.6-2.7-23.1-38.7 14.1-14.1 33.4 58-45.4 66-26.2 5.2zm-42.5-73.4v-44l-7.3-2.5-.1-6.8h10.4l28 56.6-16.9 17zM117.6 248L85.3 120.1l-30-26.7-18 46.7 19 93.7c14.5-.1 37.2 2.1 61.3 14.2zm120.7 425.6l-83.7-117.8-35.6-165c-1.5-6.4-.2-13.2 3.7-18.6l14.6-24.2c2.5-4.2 3.3-9.3 2.1-14L122 265.1l-46.3-11.3-8.3 34.6L123 563c1 5.2 3.1 10.1 6.1 14.4l80.4 118.7c2 3 5.1 5.1 8.6 6l17.1 4.3c2.8.7 5.4-1.4 5.4-4.3v-21.5c0-2.4-.8-4.9-2.3-7z"/><path class="st0" d="M400 545.8l62.5 7.9c15.4 2.4 29.8 10.8 42.2 20.3 23.2 17.6 46.3 28.9 59.4 33.9 5.1 1.9 10.8.8 14.7-3 37.6-36.9 49.6-80 49.6-80l21.2-130.4c.5-3.3.6-6.6.1-9.9-4.4-30.4-16.8-42.2-23.7-46.5-2.4-1.5-5.6-1.1-7.5 1-20.3 22.3-43.8 38.4-60.3 49.8-12.4 8.6-26.6 14.4-41.5 16.9L400 427.4l-116.7-21.7c-14.9-2.5-29.1-8.3-41.5-16.9-16.5-11.4-40-27.5-60.3-49.8-1.9-2.1-5.1-2.5-7.5-1-6.9 4.3-19.3 16-23.7 46.5-.5 3.3-.4 6.7.1 9.9l21.2 130.4s12 43.2 49.6 80c3.9 3.8 9.6 4.9 14.7 3 13-5 36.2-16.3 59.4-33.9 12.4-9.4 26.8-17.8 42.2-20.3l62.5-7.8z"/><path class="st0" d="M682.4 248l32.4-127.9 30-26.7 18 46.7-19 93.7c-14.6-.1-37.3 2.1-61.4 14.2zM561.7 673.6l83.7-117.8 35.6-165c1.5-6.4.2-13.2-3.7-18.6L662.7 348c-2.5-4.2-3.3-9.3-2.1-14l17.4-68.9 46.3-11.3 8.3 34.6L677 563c-1 5.2-3.1 10.1-6.1 14.4l-80.4 118.7c-2 3-5.1 5.1-8.6 6l-17.1 4.3c-2.8.7-5.4-1.4-5.4-4.3v-21.5c0-2.4.8-4.9 2.3-7z"/></g></svg>