<svg xmlns="http://www.w3.org/2000/svg" viewBox="0 0 800 800"><style>.st0{fill:#fff}.st1{fill:#f39e32}</style><g id="Layer_1"><path class="st0" d="M400 150.7c-58.1-.7-167 18.9-204.1 110-35.5 87.1 1.5 124.5-3 196.5 0 0 42.1 1.8 88.8-26.9 0 0-22 24-40 30.7 0 0 150-6 207.3-102.7 0 0-9.3 38.7-30.7 66.7 0 0 86.7-45.7 114.7-144.7 2 13.8 17 46.3 24.4 57.9 13.4 21 31.6 39.5 37.2 64.5 4.3 19.4 4 41.5-.3 61 0 0 34.7-49.3 24.7-143.3s-63.9-167.8-219-169.7zm-223.5 89.7l-12.2-22.8-86-160L57 40.2c-1.6-1.3-4-.2-4 1.9V83l34 224.2 37.3 68.8c1.7 3.1 4.9 5.1 8.5 5.1H143c0-.1-12.7-70.7 33.5-140.7zM92.3 416.3l-22.9 27.9c-6.4 7.8-7.9 18.6-3.9 27.9l49.3 114.6c5 11.5 16.3 19 28.8 19h15.6l-25.8-213.8h-5.2c-3.5 0-6.8-1.9-8.5-5.1l-33.8-62.4.5 63.7c-.1 8 1 20 5.1 26.9l.8 1.3zm194.2 178l-5 15-76.5 37-5.5-40.6zm4 73l-69 63 37 30 34-81.5zm333-426.9l12.2-22.8 86-160L743 40.2c1.6-1.3 4-.2 4 1.9V83l-34 224.2-37.3 68.8c-1.7 3.1-4.9 5.1-8.5 5.1H657c0-.1 12.7-70.7-33.5-140.7z"/><path class="st0" d="M400 94.7c-134.1 0-209.7 87.5-230 114.9l11.9 23.2c6.8-9.4 14.6-18.7 23.8-27.7 80-79.3 194.4-79.3 194.4-79.3s114.4 0 194.4 79.3c9.2 9.1 17 18.4 23.8 27.7l11.9-23.2C609.7 182.2 534.1 94.7 400 94.7zm307.7 321.6l22.9 27.9c6.4 7.8 7.9 18.6 3.9 27.9l-49.3 114.6c-5 11.5-16.3 19-28.8 19h-15.6l25.8-213.8h5.2c3.5 0 6.8-1.9 8.5-5.1l33.8-62.4-.5 63.7c.1 8-1 20-5.1 26.9l-.8 1.3zm-211.2 178l5 15 76.5 37 5.5-40.6zm-4 73l69 63-37 30-34-81.5z"/></g></svg>