<svg version="1" xmlns="http://www.w3.org/2000/svg" width="576" height="341.333" viewBox="0 0 432.000000 256.000000"><g fill="#FFF"><path d="M211.5.7c-22 4.9-32.5 9.8-47.3 22.2-6 5-15.8 17.5-18.5 23.7-1.8 3.9-1.8 4.3.1 12l2 7.9-2.4 11.5c-1.3 6.3-2.3 12.6-2.4 13.8v2.4l3.3-2.1c1.7-1.2 6.4-3.7 10.2-5.5 3.9-1.9 7.6-4.1 8.3-4.9.7-.8 2.1-4.5 3.2-8.1 4.5-15.8 15.8-31.1 27.7-37.3 27.5-14.5 58.8 2.6 68.9 37.7l2.1 7.5 10.4 5.7c5.7 3.1 10.9 5.7 11.5 5.7.8.1.6-3.1-.8-10.2-3-16.3-3.1-16.9-1.4-23.3 2.3-8.7 2.1-9.9-2.6-17.8-5.2-9-18-21.7-27.8-27.8C242 5 220.4-1.3 211.5.7z"/><path d="M204.8 47.8c-2.1 2.5-2.6 5-4.2 19.1L198.8 83l2.3 8c3 10.6 4 11.4 14.2 11.5 12.9 0 13 0 16.2-10.2l2.8-8.8-1.7-13.5c-.9-7.4-1.6-14.6-1.6-15.9 0-1.3-1.1-3.9-2.6-5.8l-2.5-3.3h-9.4c-9 0-9.4.1-11.7 2.8zm-76 10.7c-2 1.3-5.3 4.9-7.5 8-2.1 3.1-6.3 9.1-9.4 13.4-5.7 7.9-8.4 14.5-9.3 23.1-.3 2.5-.8 5.6-1.1 7-.6 2.4-.3 2.7 5.7 4.6 5.1 1.6 6.7 2.7 8.7 5.7 1.6 2.4 3.2 3.7 4.6 3.7 1.6 0 3.2 1.6 5.9 6 2.1 3.3 4.1 6 4.5 6 .4 0 1.1-3.5 1.4-7.8.3-4.2 2.2-19.7 4.2-34.3 3.5-26.5 3.5-26.7 1.8-32-2.1-6.4-4-7-9.5-3.4zm165.6 1.7c-2.4 5.4-2.3 9.6 1.1 33.8 1.4 10.7 3.2 24.6 3.8 30.7.6 6.2 1.4 11.3 1.8 11.3.4 0 2.4-2.7 4.5-6 2.8-4.6 4.2-6 6.1-6 1.7 0 2.8-1 4-3.5 1.5-3 2.6-3.8 8.6-5.7 6.5-2.1 6.8-2.4 6.2-4.8-.3-1.4-1-5.2-1.5-8.5-1.4-9.7-2.8-13.3-8.4-20.9-2.9-3.9-7.1-9.9-9.4-13.3C307 61.1 301 56 297.9 56c-.9 0-2.4 1.8-3.5 4.2z"/><path d="M177.5 84.6c-9.9 2.7-21.1 7.5-26.5 11.2-9.9 7-16.4 23.4-17.6 44.7-.7 12.5.5 21.9 2.7 22.3 1.3.2 1.7-1.1 2.2-7.5.9-10.8 4.5-17.9 10.7-21.1 3.9-2 5.6-2.3 12.7-2 7.2.4 9.2.9 16 4.4 11 5.5 22 16.4 26.8 26.5 3.6 7.7 6.5 18.6 6.5 25.1 0 2.6.6 4 1.9 4.8 1.9 1 8.1.3 8.1-.9 0-4.5 2.5-18.5 4.2-22.9 6-16.4 21.4-31.2 37.2-35.7 8.7-2.5 18.4-1.7 23.2 2 5 3.8 7.6 10.2 8.2 19.7.3 5.8.8 7.8 1.9 7.8 2.4 0 3.3-4.8 3.3-17.3-.1-20.4-5.3-38-13.8-46.5-6.2-6.2-21.7-13.1-36.4-16.1-8.7-1.8-9.2-1.4-11.9 8.9-3.2 12.6-4 13.2-17.7 13.8-5.9.2-12.5 0-14.7-.5-4.6-1-6.1-3.3-9.7-15.3-2.2-7.1-2.5-7.5-5.3-7.7-1.6-.1-7 .9-12 2.3zm-80.7 35.6c-.8.7-3.6 5.1-6.3 9.6-5.4 9.4-5.4 9.2 2.9 11.1 5.1 1.1 5.3 1.3 7 6.2 1.1 3 2.7 5.4 4.2 6.2 1.7.9 4.4 5.5 8.9 15.2l6.5 13.9v9.3c0 11.6 1.1 11.5 7.6-.4l4.6-8.5-.7-9.1c-.7-9-.8-9.4-6.3-18.2-3.1-5-6.7-10.5-7.9-12.4-1.8-2.6-2.3-4.8-2.3-9.7 0-8.9-1.3-11.1-7.3-12.9-6.2-1.8-8.8-1.9-10.9-.3zm228.2-.1c-5.9 1.7-8 4.9-8 12.8 0 6.7 0 6.8-7.9 19.2l-7.9 12.4-.7 9.5-.7 9.5 4.8 8.2c6.7 11.4 7.4 11.4 7.4-.1v-9.3l6.5-13.9c4.5-9.7 7.2-14.2 8.9-15.1 1.5-.8 3.1-3.1 4.2-6.2 1.7-4.9 1.9-5.1 7-6.2 8.3-1.9 8.2-1.8 3.1-10.6-2.5-4.3-5.2-8.6-6.1-9.6-1.7-1.9-5.1-2.1-10.6-.6z"/><path d="M81.9 145.7c-.8 1-3.3 4.5-5.5 7.7-8.5 12.9-27.2 29.9-36.7 33.5-2.3.9-2.5 1.4-2.1 4.8 2.3 17.1 7.1 25.9 18.4 34.6 1.9 1.4 3.1 2.9 2.8 3.3-1.5 1.4-7.6-2.3-13.8-8.6-9.7-9.7-16.9-24.6-20-41.5-2.3-12.4-2.5-13-4.8-13.3-1.7-.3-2.9.9-5.5 5-11.2 17.6-16.8 49.2-11 62.1 4.7 10.2 18.5 19.4 32.9 21.8 5.9.9 8.4.9 14.9-.4 14.8-3.1 33.1-14 50-30 8.6-8.1 9.8-9.7 10.6-13.7 1.8-9.6 1.3-11.9-6.7-29.1-6.9-14.9-7.5-16.8-7-20.9.4-3 .1-6-1.1-9.2-1.5-4.3-2-4.7-6.2-5.8-2.5-.6-5.3-1.3-6.2-1.6-.9-.2-2.2.4-3 1.3zm263.6-.7c-1.6.5-4.3 1.1-5.8 1.4-4.1.9-7 7.8-6.2 14.3.6 4.5.1 6-6.9 21.2-8 17.3-8.5 19.6-6.5 29 .9 4.3 2 5.9 8.9 12.5 19.6 18.7 40.3 30.6 56.3 32.2 16.2 1.6 36.2-8.8 42.9-22.4 6-12.2.4-44.3-10.8-62-2.5-3.8-4-5.2-5.7-5.2-2.2 0-2.5.7-4.1 10.1-2.3 12.8-4.7 20.3-9.9 30.4-4.5 8.6-13.6 18.7-19.9 22-4.6 2.4-6.4 1.1-2.3-1.8 8.7-6 15.5-16.4 17.4-26.4 2.3-11.5 2.2-12.3-.6-13.4-9.9-3.7-26.5-19-36.7-33.6-3.2-4.6-6.1-8.4-6.4-8.6-.4-.2-2-.1-3.7.3zm-196.9 6.6c-2.9 2.8-1.7 5.6 2.9 7.4 1.7.7 10.6 3.9 20 7.2 17.1 5.9 21.4 6.5 21.6 3 .2-2-.2-4.6-.6-5-.5-.5-40.6-14.2-41.6-14.2-.4 0-1.5.7-2.3 1.6zm111.9 5.2c-10.4 3.7-19.6 7.1-20.2 7.5-2.2 1.4-1.5 5.6 1 6.8 1.8.8 5.9-.3 21.7-5.6 10.7-3.7 20.1-7.2 20.8-7.7 2.7-2.3.7-7.9-2.7-7.7-.9 0-10.1 3.1-20.6 6.7z"/><path d="M142.5 158.6c-1.5 9-1.6 9.4-3.6 9.4-1.8 0-1.8.3.5 6.3 8.6 23 21.2 37 43.1 48.2 4.9 2.5 9.9 4.5 11 4.5 1.6 0 3.2-1.6 5.8-5.8 5.7-9.3 6.3-9.6 17.4-9.5h9.7l2.7 3.3c1.5 1.8 3.8 5.3 5.1 7.7 2.1 4.1 2.5 4.4 5.5 3.9 1.7-.2 6.4-2.1 10.3-4 20.3-10.2 34.5-25.4 42-44.7 3.5-9.3 3.6-9.9 1-9.9-1.7 0-2-.7-2-3.9 0-2.2-.5-5.2-1.2-6.8l-1.1-2.8-.7 4.6c-2.4 14.7-14.4 25-29 25.1-7.2 0-10.9-1.1-15.8-4.8-3.3-2.6-7.2-9-7.2-12 0-1.3-.3-1.4-1.4-.5-2.4 2-7.6 15.7-9.2 23.9-.8 4.2-2 8-2.7 8.4-.6.5-3.9.7-7.2.6-6.8-.3-6.1.6-9.1-12.8-.9-4.1-3.2-10.7-5.2-14.5l-3.5-7-1.6 4.5c-2.1 5.9-7.9 11.6-13.3 13.1-10.5 2.8-20.8.5-28.6-6.6-4.5-4-9.2-12.4-9.2-16.4 0-1.5-.4-3.2-.9-4-.7-1.1-1.1-.4-1.6 2.5z"/><path d="M209.4 215.7c-3.1 3.1-9.4 13.5-9.4 15.5 0 2.3 3.3 9 5.5 11.2 1.3 1.2 3.7 1.6 11 1.6 10.8 0 12.1-.8 15.2-8.8 1.6-4.3 1.6-4.5-.8-8.9-1.3-2.5-3.9-6.2-5.7-8.4-3.1-3.6-3.7-3.9-8.7-3.9-3.8 0-5.9.5-7.1 1.7z"/></g></svg>