<svg xmlns="http://www.w3.org/2000/svg" viewBox="0 0 800 800"><style>.st0{fill:#fff}.st1{fill:#f39e32}</style><g id="Layer_1"><path class="st1" d="M400 47.7c-83.5 0-160.3 29.1-220.7 77.7l67.3 78.3c42.3-33.1 95.5-52.8 153.3-52.8 57.8 0 111 19.7 153.3 52.8l67.3-78.3c-60.2-48.6-137-77.7-220.5-77.7z"/><path class="st0" d="M638.5 140.7L571.1 219c48 45.4 78 109.7 78 181 0 44.4-11.7 86.2-32.1 122.3L483.6 388.9l-71.9-150.2v225l136.5 136.5c-41.4 30.7-92.7 48.9-148.2 48.9-55.5 0-106.8-18.2-148.2-48.9l136.5-136.5v-225l-71.9 150.2L183 522.3c-20.4-36.1-32.1-77.9-32.1-122.3 0-71.3 30-135.6 78-181l-67.3-78.3C91.6 205.1 47.7 297.4 47.7 400c0 194.6 157.7 352.3 352.3 352.3 194.5 0 352.3-157.7 352.3-352.3 0-102.6-43.9-194.9-113.8-259.3z"/></g></svg>