<svg version="1" xmlns="http://www.w3.org/2000/svg" width="933.333" height="933.333" viewBox="0 0 700.000000 700.000000"><path d="M327.9.4c-.2.2-4.3.7-9 1-4.7.4-9.4.8-10.5 1-1 .2-4.8.7-8.4 1.2-3.6.4-6.7.8-7 .9-.3.1-2.5.5-5 .9s-10.1 2.1-17 3.8c-6.9 1.6-13.2 3.1-14 3.3-4.4.9-28.8 9.3-37.9 13-25.5 10.3-52.4 25.1-74 40.9-6.9 5-12.9 9.4-13.5 9.8-.9.6 1.5 3.6 15.4 19.8 7.8 9 39 45.3 41.3 48 1.2 1.4 3.6 4.2 5.3 6.2l3.1 3.6 8.9-6.4c16.9-12 34.8-21.6 54.9-29.5 3.3-1.3 6.2-2.4 6.5-2.4.3-.1 3.4-1.1 7-2.3 7.1-2.3 23.9-6.6 31-7.8 2.5-.4 4.7-.8 5-.9.3-.1 3.2-.5 6.5-.9s7.4-1 9-1.3c4.7-.9 41.4-1 47-.2 2.7.4 7.5 1 10.5 1.4 15.5 1.7 42.4 8.7 60 15.7 15.9 6.3 35 17.2 58.6 33.3 1.6 1.1 3-.3 13.9-13 10-11.7 49.8-58.1 51.7-60.2l2-2.1-5.9-4.6c-9.5-7.6-21.7-15.8-35.9-24.2-11.2-6.8-40.5-21.4-42.7-21.4-.4 0-2.6-.8-5-1.9-9.1-4-12.7-5.2-29.7-10.4-13.4-4.1-32-8.4-43.5-10.1-2.3-.4-5.2-.8-6.5-1.1-1.4-.3-5.2-.8-8.5-1.1-3.3-.3-7.6-.8-9.5-1.1-3.9-.5-53.6-1.3-54.1-.9z"/><path d="M104 101.3C54 150.4 19.4 215.3 6.1 285c-1.1 5.8-2.2 12.5-2.5 15-.4 2.5-.8 6.3-1.1 8.5-2.1 15.3-2.7 56.6-1.1 72 .4 4.4.8 8.7.8 9.5 0 .8.4 3.6.9 6.1.4 2.5 1 6.7 1.4 9.3.3 2.6.9 6.6 1.5 8.9.5 2.3 1.2 5.8 1.5 7.7 1.5 8.7 11 42.4 12.5 44.5.4.5 1.3 2.8 2 5 .6 2.2 1.8 5.3 2.5 7 .7 1.6 2.5 5.9 4 9.5 3.5 8.4 13.6 28.6 18.8 37.5 9.8 17.1 29 43.7 40.2 56 38.8 42.5 77.2 69.8 129 92 10.2 4.4 40.2 14.2 48.5 15.9 1.4.3 5.3 1.2 8.7 2 3.4.9 7.7 1.8 9.5 2.1 1.8.3 4.4.7 5.8 1 10.8 2 19.8 3.2 31.5 4.2 16.7 1.5 59.6.8 71.6-1.2 1.3-.2 5.8-.9 9.9-1.5 4.1-.6 8.7-1.4 10.3-1.6 18.2-2.9 44.9-10.6 67.2-19.4 86.9-34.5 158.4-105 193.8-191 2.9-7.2 13.1-35.5 12.7-35.5-.1 0 .1-.7.4-1.5 1-3.1 7.5-31.7 8.1-35.5.3-2.3.7-5.1 1-6.4.6-3.2 1.4-9.7 2.9-23.6 1.2-11.2 1.4-56.4.2-64-.3-1.7-.8-5.7-1.1-9-1.4-13-6.6-39.5-10.5-53-10.5-36.8-26.2-70.4-47.7-102.1-7-10.4-8.4-12.3-19.1-25.7-7.7-9.4-14-16.4-24.7-26.9l-8-7.9-2.5 2.8c-2.2 2.5-9.4 10.9-15.3 17.7-1 1.2-2.8 3.2-4 4.6-1.2 1.4-10.7 12.4-21.1 24.5-10.3 12.1-19.9 23.2-21.1 24.7l-2.4 2.6 4.2 4c23.5 22.2 46.1 57.6 58.5 91.7 13.9 38.1 18.2 82 12 121.5-.5 3.6-1.2 7.8-1.5 9.5-.8 5.7-5.4 23-8.2 31.5-5.6 17-17.3 42.5-19.1 41.8-.5-.2-10.7-9.8-22.6-21.3-11.9-11.6-24.9-24.1-28.8-27.9-3.9-3.7-16.9-16.3-29-28-12-11.6-24.6-23.7-28-26.9-3.3-3.2-10.5-10.2-15.9-15.4-11.1-10.8-8.6-6.5-30.9-54.7-6.5-14.2-13.4-29.1-15.2-33-1.9-3.9-4.8-10.3-6.6-14.1-19.6-42.3-24.9-53.5-25.2-53.5-.2 0-.3 49.8-.2 110.6v110.5l8.1 7.7c4.5 4.2 18.8 18.1 31.9 30.8 13.2 12.8 27.3 26.4 31.4 30.4 4.1 4 18.5 17.9 32 31 13.5 13.1 26.2 25.4 28.3 27.3 2 2 3.7 3.9 3.7 4.4-.1 2.1-23.4 17.1-38 24.4-24.6 12.2-49.5 19.9-79 24.3-16.8 2.5-51.2 2.6-66 .1-1.4-.2-4.3-.6-6.5-.9-32-4.6-69.2-19.3-98.9-39.1l-11.9-7.9 14.4-13.9c14.7-14.2 21.2-20.5 63.3-61.2 34.6-33.4 35.2-33.9 47.9-46.2l11.6-11.3.1-90.2c.1-49.7.1-99.5 0-110.8l-.1-20.5-3.1 6.5c-2.6 5.5-9.3 19.8-26.3 56.5-1.6 3.3-5.2 11.1-8.2 17.4-2.9 6.2-5.3 11.5-5.3 11.7 0 .2-1.9 4.3-4.1 9.1-2.3 4.9-5.3 11.3-6.7 14.3-1.3 3-5.3 11.3-8.7 18.5l-6.2 13-18.8 18c-10.3 9.9-21.2 20.4-24.4 23.4-3.1 3-16.8 16.3-30.5 29.5-13.7 13.3-27.9 27-31.5 30.4-3.6 3.5-11.7 11.3-17.8 17.3-6.2 6-11.6 10.9-12.1 10.9-.9 0-7.8-13.6-12.5-24.4-6.1-14.3-13.2-38.2-15.1-50.6-.3-1.9-.8-5.3-1.1-7.5-.3-2.2-.8-4.6-1-5.3-.9-2.5-1.9-22-1.9-34.7.1-16.6.9-26.6 3.5-41.5 8.3-48.1 31.1-93.2 65.1-128.6 4.3-4.4 7.8-8.4 7.8-8.9 0-.4-2.6-3.7-5.7-7.4-3.2-3.6-6.8-7.7-7.9-9.1-3.7-4.3-11.5-13.4-14.3-16.5-1.4-1.7-5.1-5.9-8.1-9.5-3-3.6-5.7-6.7-6-7-.3-.3-5.7-6.5-11.9-13.8C117.8 99 112.6 93 112.6 93c-.1 0-4 3.7-8.6 8.3z"/></svg>