<svg xmlns="http://www.w3.org/2000/svg" width="1920" height="1080" opacity="0.25"><path d="M180,-264L849,-263L1167,-330Z" fill="#d4c1ce" stroke="#d4c1ce" stroke-width="1.51"/><path d="M1744,1321L1524,1363L1964,1352Z" fill="#434d60" stroke="#434d60" stroke-width="1.51"/><path d="M2152,620L2046,823L2163,891Z" fill="#465b83" stroke="#465b83" stroke-width="1.51"/><path d="M1167,-330L1825,-262L2213,-256Z" fill="#9e9da7" stroke="#9e9da7" stroke-width="1.51"/><path d="M1825,-262L2026,-198L2213,-256Z" fill="#9d9693" stroke="#9d9693" stroke-width="1.51"/><path d="M2094,496L2152,620L2221,302Z" fill="#5f6c97" stroke="#5f6c97" stroke-width="1.51"/><path d="M2213,-256L2026,-198L2249,69Z" fill="#9e8975" stroke="#9e8975" stroke-width="1.51"/><path d="M2026,-198L1949,47L2249,69Z" fill="#a18062" stroke="#a18062" stroke-width="1.51"/><path d="M2006,236L2221,302L2249,69Z" fill="#93705a" stroke="#93705a" stroke-width="1.51"/><path d="M1871,1161L2185,1339L2272,1128Z" fill="#434c5a" stroke="#434c5a" stroke-width="1.51"/><path d="M2163,891L1871,1161L2272,1128Z" fill="#424d62" stroke="#424d62" stroke-width="1.51"/><path d="M2221,302L2152,620L2272,1128Z" fill="#48618d" stroke="#48618d" stroke-width="1.51"/><path d="M2152,620L2163,891L2272,1128Z" fill="#455471" stroke="#455471" stroke-width="1.51"/><path d="M2249,69L2221,302L2272,1128Z" fill="#586b99" stroke="#586b99" stroke-width="1.51"/><path d="M1871,1161L1964,1352L2185,1339Z" fill="#434b5a" stroke="#434b5a" stroke-width="1.51"/><path d="M1949,47L2006,236L2249,69Z" fill="#9f734a" stroke="#9f734a" stroke-width="1.51"/><path d="M1827,1021L1871,1161L2163,891Z" fill="#424f68" stroke="#424f68" stroke-width="1.51"/><path d="M2006,236L2094,496L2221,302Z" fill="#7d6f7c" stroke="#7d6f7c" stroke-width="1.51"/><path d="M1996,634L2046,823L2152,620Z" fill="#466191" stroke="#466191" stroke-width="1.51"/><path d="M2046,823L1827,1021L2163,891Z" fill="#435372" stroke="#435372" stroke-width="1.51"/><path d="M2094,496L1996,634L2152,620Z" fill="#4769a1" stroke="#4769a1" stroke-width="1.51"/><path d="M2006,236L1884,464L2094,496Z" fill="#726e8b" stroke="#726e8b" stroke-width="1.51"/><path d="M1884,464L1996,634L2094,496Z" fill="#496ca9" stroke="#496ca9" stroke-width="1.51"/><path d="M1167,-330L1582,-175L1825,-262Z" fill="#a1a0af" stroke="#a1a0af" stroke-width="1.51"/><path d="M1803,692L1738,964L1827,1021Z" fill="#42567c" stroke="#42567c" stroke-width="1.51"/><path d="M1752,-19L1949,47L2026,-198Z" fill="#a2856e" stroke="#a2856e" stroke-width="1.51"/><path d="M1825,-262L1752,-19L2026,-198Z" fill="#9f8f86" stroke="#9f8f86" stroke-width="1.51"/><path d="M1996,634L1803,692L2046,823Z" fill="#456191" stroke="#456191" stroke-width="1.51"/><path d="M1803,692L1827,1021L2046,823Z" fill="#445980" stroke="#445980" stroke-width="1.51"/><path d="M1949,47L1768,198L2006,236Z" fill="#9b7359" stroke="#9b7359" stroke-width="1.51"/><path d="M1768,198L1884,464L2006,236Z" fill="#867179" stroke="#867179" stroke-width="1.51"/><path d="M1884,464L1803,692L1996,634Z" fill="#456aa5" stroke="#456aa5" stroke-width="1.51"/><path d="M180,-264L586,-226L849,-263Z" fill="#ebc0a6" stroke="#ebc0a6" stroke-width="1.51"/><path d="M1167,-330L1238,-264L1582,-175Z" fill="#a7a9c3" stroke="#a7a9c3" stroke-width="1.51"/><path d="M1871,1161L1744,1321L1964,1352Z" fill="#434c5f" stroke="#434c5f" stroke-width="1.51"/><path d="M1742,491L1803,692L1884,464Z" fill="#436eaf" stroke="#436eaf" stroke-width="1.51"/><path d="M1752,-19L1768,198L1949,47Z" fill="#a47753" stroke="#a47753" stroke-width="1.51"/><path d="M1768,198L1742,491L1884,464Z" fill="#76708f" stroke="#76708f" stroke-width="1.51"/><path d="M1827,1021L1738,964L1871,1161Z" fill="#424f6b" stroke="#424f6b" stroke-width="1.51"/><path d="M1738,964L1744,1321L1871,1161Z" fill="#424e68" stroke="#424e68" stroke-width="1.51"/><path d="M1738,964L1481,1083L1744,1321Z" fill="#41506d" stroke="#41506d" stroke-width="1.51"/><path d="M1524,897L1738,964L1803,692Z" fill="#425a86" stroke="#425a86" stroke-width="1.51"/><path d="M1582,-175L1752,-19L1825,-262Z" fill="#a08f8a" stroke="#a08f8a" stroke-width="1.51"/><path d="M1562,513L1742,491L1768,198Z" fill="#727196" stroke="#727196" stroke-width="1.51"/><path d="M1502,167L1562,513L1768,198Z" fill="#897482" stroke="#897482" stroke-width="1.51"/><path d="M1752,-19L1528,-8L1768,198Z" fill="#a57a5c" stroke="#a57a5c" stroke-width="1.51"/><path d="M1562,513L1472,586L1803,692Z" fill="#406caf" stroke="#406caf" stroke-width="1.51"/><path d="M1472,586L1524,897L1803,692Z" fill="#41649d" stroke="#41649d" stroke-width="1.51"/><path d="M1742,491L1562,513L1803,692Z" fill="#416db1" stroke="#416db1" stroke-width="1.51"/><path d="M1481,1083L1524,1363L1744,1321Z" fill="#43506b" stroke="#43506b" stroke-width="1.51"/><path d="M1528,-8L1502,167L1768,198Z" fill="#a4775b" stroke="#a4775b" stroke-width="1.51"/><path d="M1582,-175L1528,-8L1752,-19Z" fill="#a3877a" stroke="#a3877a" stroke-width="1.51"/><path d="M1524,897L1481,1083L1738,964Z" fill="#415379" stroke="#415379" stroke-width="1.51"/><path d="M1472,586L1306,611L1524,897Z" fill="#3f6db2" stroke="#3f6db2" stroke-width="1.51"/><path d="M1372,1274L1139,1273L1524,1363Z" fill="#465b80" stroke="#465b80" stroke-width="1.51"/><path d="M1139,1273L892,1389L1524,1363Z" fill="#47618e" stroke="#47618e" stroke-width="1.51"/><path d="M1481,1083L1372,1274L1524,1363Z" fill="#445679" stroke="#445679" stroke-width="1.51"/><path d="M1502,167L1316,447L1562,513Z" fill="#7b79a3" stroke="#7b79a3" stroke-width="1.51"/><path d="M1382,41L1528,-8L1582,-175Z" fill="#a98b82" stroke="#a98b82" stroke-width="1.51"/><path d="M1238,-264L1382,41L1582,-175Z" fill="#a9989f" stroke="#a9989f" stroke-width="1.51"/><path d="M1260,223L1316,447L1502,167Z" fill="#937f98" stroke="#937f98" stroke-width="1.51"/><path d="M1378,1012L1481,1083L1524,897Z" fill="#415983" stroke="#415983" stroke-width="1.51"/><path d="M1382,41L1502,167L1528,-8Z" fill="#ac806b" stroke="#ac806b" stroke-width="1.51"/><path d="M1316,447L1472,586L1562,513Z" fill="#4a78c3" stroke="#4a78c3" stroke-width="1.51"/><path d="M1192,880L1378,1012L1524,897Z" fill="#426196" stroke="#426196" stroke-width="1.51"/><path d="M1306,611L1192,880L1524,897Z" fill="#406bac" stroke="#406bac" stroke-width="1.51"/><path d="M1382,41L1260,223L1502,167Z" fill="#aa8077" stroke="#aa8077" stroke-width="1.51"/><path d="M1316,447L1306,611L1472,586Z" fill="#397bd1" stroke="#397bd1" stroke-width="1.51"/><path d="M1378,1012L1372,1274L1481,1083Z" fill="#435a82" stroke="#435a82" stroke-width="1.51"/><path d="M667,1312L18,1387L892,1389Z" fill="#8c6f64" stroke="#8c6f64" stroke-width="1.51"/><path d="M1159,1133L1139,1273L1372,1274Z" fill="#466090" stroke="#466090" stroke-width="1.51"/><path d="M1159,1133L1372,1274L1378,1012Z" fill="#445e8c" stroke="#445e8c" stroke-width="1.51"/><path d="M1064,-27L1260,223L1382,41Z" fill="#b78a81" stroke="#b78a81" stroke-width="1.51"/><path d="M1238,-264L1064,-27L1382,41Z" fill="#b19ba6" stroke="#b19ba6" stroke-width="1.51"/><path d="M1192,880L1159,1133L1378,1012Z" fill="#426299" stroke="#426299" stroke-width="1.51"/><path d="M1043,746L1192,880L1306,611Z" fill="#3c76c5" stroke="#3c76c5" stroke-width="1.51"/><path d="M1085,372L1306,611L1316,447Z" fill="#5c82d1" stroke="#5c82d1" stroke-width="1.51"/><path d="M1260,223L1085,372L1316,447Z" fill="#8885b6" stroke="#8885b6" stroke-width="1.51"/><path d="M1085,372L1043,746L1306,611Z" fill="#3383e4" stroke="#3383e4" stroke-width="1.51"/><path d="M1018,229L1085,372L1260,223Z" fill="#9c8ab0" stroke="#9c8ab0" stroke-width="1.51"/><path d="M1064,-27L1018,229L1260,223Z" fill="#b68d92" stroke="#b68d92" stroke-width="1.51"/><path d="M1167,-330L1064,-27L1238,-264Z" fill="#aeacca" stroke="#aeacca" stroke-width="1.51"/><path d="M852,491L1043,746L1085,372Z" fill="#2a8df9" stroke="#2a8df9" stroke-width="1.51"/><path d="M1012,783L834,1177L1159,1133Z" fill="#416db0" stroke="#416db0" stroke-width="1.51"/><path d="M849,-263L1064,-27L1167,-330Z" fill="#b2b3d8" stroke="#b2b3d8" stroke-width="1.51"/><path d="M1012,783L1159,1133L1192,880Z" fill="#406cae" stroke="#406cae" stroke-width="1.51"/><path d="M1043,746L1012,783L1192,880Z" fill="#3c76c6" stroke="#3c76c6" stroke-width="1.51"/><path d="M865,790L834,1177L1012,783Z" fill="#5174b9" stroke="#5174b9" stroke-width="1.51"/><path d="M834,1177L1139,1273L1159,1133Z" fill="#4569a4" stroke="#4569a4" stroke-width="1.51"/><path d="M852,491L900,740L1043,746Z" fill="#4086e6" stroke="#4086e6" stroke-width="1.51"/><path d="M834,1177L892,1389L1139,1273Z" fill="#486ca7" stroke="#486ca7" stroke-width="1.51"/><path d="M729,1090L834,1177L865,790Z" fill="#67709f" stroke="#67709f" stroke-width="1.51"/><path d="M757,32L1018,229L1064,-27Z" fill="#c4979b" stroke="#c4979b" stroke-width="1.51"/><path d="M1018,229L852,491L1085,372Z" fill="#8890d2" stroke="#8890d2" stroke-width="1.51"/><path d="M849,-263L757,32L1064,-27Z" fill="#c4aab8" stroke="#c4aab8" stroke-width="1.51"/><path d="M759,271L852,491L1018,229Z" fill="#a092c0" stroke="#a092c0" stroke-width="1.51"/><path d="M900,740L1012,783L1043,746Z" fill="#377ed8" stroke="#377ed8" stroke-width="1.51"/><path d="M757,32L759,271L1018,229Z" fill="#c39498" stroke="#c39498" stroke-width="1.51"/><path d="M900,740L865,790L1012,783Z" fill="#477ed3" stroke="#477ed3" stroke-width="1.51"/><path d="M757,32L721,72L759,271Z" fill="#d4977c" stroke="#d4977c" stroke-width="1.51"/><path d="M586,-226L757,32L849,-263Z" fill="#d6b3ae" stroke="#d6b3ae" stroke-width="1.51"/><path d="M759,271L707,385L852,491Z" fill="#a592bc" stroke="#a592bc" stroke-width="1.51"/><path d="M575,778L729,1090L865,790Z" fill="#7977a3" stroke="#7977a3" stroke-width="1.51"/><path d="M834,1177L667,1312L892,1389Z" fill="#6a6d90" stroke="#6a6d90" stroke-width="1.51"/><path d="M664,547L865,790L900,740Z" fill="#6b85ce" stroke="#6b85ce" stroke-width="1.51"/><path d="M852,491L664,547L900,740Z" fill="#6d8cde" stroke="#6d8cde" stroke-width="1.51"/><path d="M333,1230L18,1387L667,1312Z" fill="#9d724b" stroke="#9d724b" stroke-width="1.51"/><path d="M664,547L575,778L865,790Z" fill="#8385bb" stroke="#8385bb" stroke-width="1.51"/><path d="M707,385L664,547L852,491Z" fill="#9391cc" stroke="#9391cc" stroke-width="1.51"/><path d="M729,1090L667,1312L834,1177Z" fill="#736f8d" stroke="#736f8d" stroke-width="1.51"/><path d="M225,1251L18,1387L333,1230Z" fill="#a27a55" stroke="#a27a55" stroke-width="1.51"/><path d="M448,-139L443,19L586,-226Z" fill="#eeb27e" stroke="#eeb27e" stroke-width="1.51"/><path d="M586,-226L443,19L721,72Z" fill="#e6a97d" stroke="#e6a97d" stroke-width="1.51"/><path d="M575,778L429,837L729,1090Z" fill="#8e788b" stroke="#8e788b" stroke-width="1.51"/><path d="M586,-226L721,72L757,32Z" fill="#dca78d" stroke="#dca78d" stroke-width="1.51"/><path d="M721,72L601,281L759,271Z" fill="#ce9688" stroke="#ce9688" stroke-width="1.51"/><path d="M601,281L707,385L759,271Z" fill="#bd949f" stroke="#bd949f" stroke-width="1.51"/><path d="M429,837L361,988L729,1090Z" fill="#927475" stroke="#927475" stroke-width="1.51"/><path d="M443,19L601,281L721,72Z" fill="#e29962" stroke="#e29962" stroke-width="1.51"/><path d="M333,1230L667,1312L729,1090Z" fill="#897173" stroke="#897173" stroke-width="1.51"/><path d="M361,988L333,1230L729,1090Z" fill="#947369" stroke="#947369" stroke-width="1.51"/><path d="M498,427L664,547L707,385Z" fill="#ab93b6" stroke="#ab93b6" stroke-width="1.51"/><path d="M601,281L498,427L707,385Z" fill="#bf949e" stroke="#bf949e" stroke-width="1.51"/><path d="M443,19L491,297L601,281Z" fill="#df9868" stroke="#df9868" stroke-width="1.51"/><path d="M322,636L575,778L664,547Z" fill="#a28aa8" stroke="#a28aa8" stroke-width="1.51"/><path d="M498,427L322,636L664,547Z" fill="#ab92b5" stroke="#ab92b5" stroke-width="1.51"/><path d="M322,636L429,837L575,778Z" fill="#a6848d" stroke="#a6848d" stroke-width="1.51"/><path d="M180,-264L448,-139L586,-226Z" fill="#f8be86" stroke="#f8be86" stroke-width="1.51"/><path d="M491,297L498,427L601,281Z" fill="#cb958c" stroke="#cb958c" stroke-width="1.51"/><path d="M443,19L206,194L491,297Z" fill="#ed9b49" stroke="#ed9b49" stroke-width="1.51"/><path d="M100,443L322,636L498,427Z" fill="#c89590" stroke="#c89590" stroke-width="1.51"/><path d="M491,297L206,194L498,427Z" fill="#db9870" stroke="#db9870" stroke-width="1.51"/><path d="M206,194L100,443L498,427Z" fill="#de9a71" stroke="#de9a71" stroke-width="1.51"/><path d="M100,443L197,618L322,636Z" fill="#c099a2" stroke="#c099a2" stroke-width="1.51"/><path d="M130,-77L443,19L448,-139Z" fill="#faaf57" stroke="#faaf57" stroke-width="1.51"/><path d="M180,-264L130,-77L448,-139Z" fill="#ffbd6f" stroke="#ffbd6f" stroke-width="1.51"/><path d="M130,-77L206,194L443,19Z" fill="#fda738" stroke="#fda738" stroke-width="1.51"/><path d="M109,925L361,988L429,837Z" fill="#aa7a5f" stroke="#aa7a5f" stroke-width="1.51"/><path d="M322,636L109,925L429,837Z" fill="#b28372" stroke="#b28372" stroke-width="1.51"/><path d="M197,618L109,925L322,636Z" fill="#b78e89" stroke="#b78e89" stroke-width="1.51"/><path d="M157,1123L225,1251L333,1230Z" fill="#a37853" stroke="#a37853" stroke-width="1.51"/><path d="M157,1123L333,1230L361,988Z" fill="#a47650" stroke="#a47650" stroke-width="1.51"/><path d="M109,925L157,1123L361,988Z" fill="#a67c61" stroke="#a67c61" stroke-width="1.51"/><path d="M109,925L42,1088L157,1123Z" fill="#a4836f" stroke="#a4836f" stroke-width="1.51"/><path d="M-197,-144L-4,-140L180,-264Z" fill="#ffd39f" stroke="#ffd39f" stroke-width="1.51"/><path d="M-85,790L109,925L197,618Z" fill="#b09496" stroke="#b09496" stroke-width="1.51"/><path d="M130,-77L-82,66L206,194Z" fill="#feb154" stroke="#feb154" stroke-width="1.51"/><path d="M-3,348L100,443L206,194Z" fill="#e1a784" stroke="#e1a784" stroke-width="1.51"/><path d="M157,1123L18,1387L225,1251Z" fill="#a27f60" stroke="#a27f60" stroke-width="1.51"/><path d="M42,1088L18,1387L157,1123Z" fill="#a1846b" stroke="#a1846b" stroke-width="1.51"/><path d="M-4,-140L130,-77L180,-264Z" fill="#ffc888" stroke="#ffc888" stroke-width="1.51"/><path d="M100,443L-44,561L197,618Z" fill="#bda4b9" stroke="#bda4b9" stroke-width="1.51"/><path d="M-44,561L-85,790L197,618Z" fill="#b5a0b0" stroke="#b5a0b0" stroke-width="1.51"/><path d="M-75,192L-3,348L206,194Z" fill="#ecad78" stroke="#ecad78" stroke-width="1.51"/><path d="M-82,66L-75,192L206,194Z" fill="#f8b163" stroke="#f8b163" stroke-width="1.51"/><path d="M-4,-140L-82,66L130,-77Z" fill="#ffc27b" stroke="#ffc27b" stroke-width="1.51"/><path d="M-148,1094L18,1387L42,1088Z" fill="#a08b7b" stroke="#a08b7b" stroke-width="1.51"/><path d="M-85,790L-148,1094L42,1088Z" fill="#a18f8a" stroke="#a18f8a" stroke-width="1.51"/><path d="M-85,790L42,1088L109,925Z" fill="#a58d85" stroke="#a58d85" stroke-width="1.51"/><path d="M-3,348L-44,561L100,443Z" fill="#ccabae" stroke="#ccabae" stroke-width="1.51"/><path d="M-161,-51L-82,66L-4,-140Z" fill="#ffc989" stroke="#ffc989" stroke-width="1.51"/><path d="M-148,1094L-276,1379L18,1387Z" fill="#9e9085" stroke="#9e9085" stroke-width="1.51"/><path d="M-265,669L-85,790L-44,561Z" fill="#afaac5" stroke="#afaac5" stroke-width="1.51"/><path d="M-75,192L-193,167L-3,348Z" fill="#edb78b" stroke="#edb78b" stroke-width="1.51"/><path d="M-193,167L-332,405L-3,348Z" fill="#e3bbaa" stroke="#e3bbaa" stroke-width="1.51"/><path d="M-332,405L-44,561L-3,348Z" fill="#cbb5c1" stroke="#cbb5c1" stroke-width="1.51"/><path d="M-197,-144L-161,-51L-4,-140Z" fill="#ffd3a0" stroke="#ffd3a0" stroke-width="1.51"/><path d="M-332,909L-148,1094L-85,790Z" fill="#a29ba5" stroke="#a29ba5" stroke-width="1.51"/><path d="M-332,405L-265,669L-44,561Z" fill="#b1b9e7" stroke="#b1b9e7" stroke-width="1.51"/><path d="M-82,66L-193,167L-75,192Z" fill="#fbbb77" stroke="#fbbb77" stroke-width="1.51"/><path d="M-161,-51L-193,167L-82,66Z" fill="#ffc27a" stroke="#ffc27a" stroke-width="1.51"/><path d="M-265,669L-332,909L-85,790Z" fill="#a7a9c2" stroke="#a7a9c2" stroke-width="1.51"/><path d="M-332,909L-276,1379L-148,1094Z" fill="#9e9b9f" stroke="#9e9b9f" stroke-width="1.51"/><path d="M-197,-144L-193,167L-161,-51Z" fill="#ffcc91" stroke="#ffcc91" stroke-width="1.51"/><path d="M-197,-144L-332,405L-193,167Z" fill="#fcc48b" stroke="#fcc48b" stroke-width="1.51"/><path d="M-332,405L-332,909L-265,669Z" fill="#aab8e4" stroke="#aab8e4" stroke-width="1.51"/></svg>