<?xml version="1.0" standalone="no"?>
<!DOCTYPE svg PUBLIC "-//W3C//DTD SVG 20010904//EN"
 "http://www.w3.org/TR/2001/REC-SVG-20010904/DTD/svg10.dtd">
<svg version="1.0" xmlns="http://www.w3.org/2000/svg"
 width="432.000000pt" height="256.000000pt" viewBox="0 0 432.000000 256.000000"
 preserveAspectRatio="xMidYMid meet">
<metadata>
Created by potrace 1.14, written by Peter Selinger 2001-2017
</metadata>
<g transform="translate(0.000000,256.000000) scale(0.100000,-0.100000)"
fill="#FFFFFF" stroke="none">
<path d="M2115 2553 c-220 -49 -325 -98 -473 -222 -60 -50 -158 -175 -185
-237 -18 -39 -18 -43 1 -120 l20 -79 -24 -115 c-13 -63 -23 -126 -24 -138 l0
-24 33 21 c17 12 64 37 102 55 39 19 76 41 83 49 7 8 21 45 32 81 45 158 158
311 277 373 275 145 588 -26 689 -377 l21 -75 104 -57 c57 -31 109 -57 115
-57 8 -1 6 31 -8 102 -30 163 -31 169 -14 233 23 87 21 99 -26 178 -52 90
-180 217 -278 278 -140 88 -356 151 -445 131z"/>
<path d="M2048 2082 c-21 -25 -26 -50 -42 -191 l-18 -161 23 -80 c30 -106 40
-114 142 -115 129 0 130 0 162 102 l28 88 -17 135 c-9 74 -16 146 -16 159 0
13 -11 39 -26 58 l-25 33 -94 0 c-90 0 -94 -1 -117 -28z"/>
<path d="M1288 1975 c-20 -13 -53 -49 -75 -80 -21 -31 -63 -91 -94 -134 -57
-79 -84 -145 -93 -231 -3 -25 -8 -56 -11 -70 -6 -24 -3 -27 57 -46 51 -16 67
-27 87 -57 16 -24 32 -37 46 -37 16 0 32 -16 59 -60 21 -33 41 -60 45 -60 4 0
11 35 14 78 3 42 22 197 42 343 35 265 35 267 18 320 -21 64 -40 70 -95 34z"/>
<path d="M2944 1958 c-24 -54 -23 -96 11 -338 14 -107 32 -246 38 -307 6 -62
14 -113 18 -113 4 0 24 27 45 60 28 46 42 60 61 60 17 0 28 10 40 35 15 30 26
38 86 57 65 21 68 24 62 48 -3 14 -10 52 -15 85 -14 97 -28 133 -84 209 -29
39 -71 99 -94 133 -42 62 -102 113 -133 113 -9 0 -24 -18 -35 -42z"/>
<path d="M1775 1714 c-99 -27 -211 -75 -265 -112 -99 -70 -164 -234 -176 -447
-7 -125 5 -219 27 -223 13 -2 17 11 22 75 9 108 45 179 107 211 39 20 56 23
127 20 72 -4 92 -9 160 -44 110 -55 220 -164 268 -265 36 -77 65 -186 65 -251
0 -26 6 -40 19 -48 19 -10 81 -3 81 9 0 45 25 185 42 229 60 164 214 312 372
357 87 25 184 17 232 -20 50 -38 76 -102 82 -197 3 -58 8 -78 19 -78 24 0 33
48 33 173 -1 204 -53 380 -138 465 -62 62 -217 131 -364 161 -87 18 -92 14
-119 -89 -32 -126 -40 -132 -177 -138 -59 -2 -125 0 -147 5 -46 10 -61 33 -97
153 -22 71 -25 75 -53 77 -16 1 -70 -9 -120 -23z"/>
<path d="M968 1358 c-8 -7 -36 -51 -63 -96 -54 -94 -54 -92 29 -111 51 -11 53
-13 70 -62 11 -30 27 -54 42 -62 17 -9 44 -55 89 -152 l65 -139 0 -93 c0 -116
11 -115 76 4 l46 85 -7 91 c-7 90 -8 94 -63 182 -31 50 -67 105 -79 124 -18
26 -23 48 -23 97 0 89 -13 111 -73 129 -62 18 -88 19 -109 3z"/>
<path d="M3250 1359 c-59 -17 -80 -49 -80 -128 0 -67 0 -68 -79 -192 l-79
-124 -7 -95 -7 -95 48 -82 c67 -114 74 -114 74 1 l0 93 65 139 c45 97 72 142
89 151 15 8 31 31 42 62 17 49 19 51 70 62 83 19 82 18 31 106 -25 43 -52 86
-61 96 -17 19 -51 21 -106 6z"/>
<path d="M819 1103 c-8 -10 -33 -45 -55 -77 -85 -129 -272 -299 -367 -335 -23
-9 -25 -14 -21 -48 23 -171 71 -259 184 -346 19 -14 31 -29 28 -33 -15 -14
-76 23 -138 86 -97 97 -169 246 -200 415 -23 124 -25 130 -48 133 -17 3 -29
-9 -55 -50 -112 -176 -168 -492 -110 -621 47 -102 185 -194 329 -218 59 -9 84
-9 149 4 148 31 331 140 500 300 86 81 98 97 106 137 18 96 13 119 -67 291
-69 149 -75 168 -70 209 4 30 1 60 -11 92 -15 43 -20 47 -62 58 -25 6 -53 13
-62 16 -9 2 -22 -4 -30 -13z"/>
<path d="M3455 1110 c-16 -5 -43 -11 -58 -14 -41 -9 -70 -78 -62 -143 6 -45 1
-60 -69 -212 -80 -173 -85 -196 -65 -290 9 -43 20 -59 89 -125 196 -187 403
-306 563 -322 162 -16 362 88 429 224 60 122 4 443 -108 620 -25 38 -40 52
-57 52 -22 0 -25 -7 -41 -101 -23 -128 -47 -203 -99 -304 -45 -86 -136 -187
-199 -220 -46 -24 -64 -11 -23 18 87 60 155 164 174 264 23 115 22 123 -6 134
-99 37 -265 190 -367 336 -32 46 -61 84 -64 86 -4 2 -20 1 -37 -3z"/>
<path d="M1486 1044 c-29 -28 -17 -56 29 -74 17 -7 106 -39 200 -72 171 -59
214 -65 216 -30 2 20 -2 46 -6 50 -5 5 -406 142 -416 142 -4 0 -15 -7 -23 -16z"/>
<path d="M2605 992 c-104 -37 -196 -71 -202 -75 -22 -14 -15 -56 10 -68 18 -8
59 3 217 56 107 37 201 72 208 77 27 23 7 79 -27 77 -9 0 -101 -31 -206 -67z"/>
<path d="M1425 974 c-15 -90 -16 -94 -36 -94 -18 0 -18 -3 5 -63 86 -230 212
-370 431 -482 49 -25 99 -45 110 -45 16 0 32 16 58 58 57 93 63 96 174 95 l97
0 27 -33 c15 -18 38 -53 51 -77 21 -41 25 -44 55 -39 17 2 64 21 103 40 203
102 345 254 420 447 35 93 36 99 10 99 -17 0 -20 7 -20 39 0 22 -5 52 -12 68
l-11 28 -7 -46 c-24 -147 -144 -250 -290 -251 -72 0 -109 11 -158 48 -33 26
-72 90 -72 120 0 13 -3 14 -14 5 -24 -20 -76 -157 -92 -239 -8 -42 -20 -80
-27 -84 -6 -5 -39 -7 -72 -6 -68 3 -61 -6 -91 128 -9 41 -32 107 -52 145 l-35
70 -16 -45 c-21 -59 -79 -116 -133 -131 -105 -28 -208 -5 -286 66 -45 40 -92
124 -92 164 0 15 -4 32 -9 40 -7 11 -11 4 -16 -25z"/>
<path d="M2094 403 c-31 -31 -94 -135 -94 -155 0 -23 33 -90 55 -112 13 -12
37 -16 110 -16 108 0 121 8 152 88 16 43 16 45 -8 89 -13 25 -39 62 -57 84
-31 36 -37 39 -87 39 -38 0 -59 -5 -71 -17z"/>
</g>
</svg>
