<?xml version="1.0" encoding="utf-8"?>
<!-- Generator: Adobe Illustrator 19.2.1, SVG Export Plug-In . SVG Version: 6.00 Build 0)  -->
<svg version="1.1" xmlns="http://www.w3.org/2000/svg" xmlns:xlink="http://www.w3.org/1999/xlink" x="0px" y="0px"
	 viewBox="0 0 5786.3 2581.6" style="enable-background:new 0 0 5786.3 2581.6;" xml:space="preserve">
<style type="text/css">
	.st0{fill:#FFFFFF;}
	.st1{fill:#F39E32;}
</style>
<g id="source">
</g>
<g id="Layer_1">
	<g>
		<path class="st0" d="M154.8,2113.2c0.5,9.2,8.8,18.3,18.5,20.1c17.8,3.3,55.7,7.9,124,2.6c7.5-0.6,15.5-4.2,18.6-10.6
			c5.9-12.2,13.6-32.8,4.9-55.1c-2.8-7.1-13.7-12.4-21.6-14.3c-18.5-4.5-62.3-8.5-126.4-10.3c-8.4-0.2-15.7,5.3-18,12.8
			C154.8,2058.4,152.5,2071.2,154.8,2113.2z"/>
		<path class="st0" d="M611.9,2113.2c-0.5,9.2-8.8,18.3-18.5,20.1c-17.8,3.3-55.7,7.9-124,2.6c-7.5-0.6-17.2-4.2-20.4-10.6
			c-5.9-12.2-13.6-32.8-4.9-55.1c2.8-7.1,15.5-12.4,23.3-14.3c18.5-4.5,62.3-8.5,126.4-10.3c8.4-0.2,15.7,5.3,18,12.8
			C611.9,2058.4,614.2,2071.2,611.9,2113.2z"/>
		<path class="st0" d="M673.6,1984.5C649.5,1940.3,626,1916,572,1922c-50.1,5.6-101.1,36.8-123.5,59.3
			c-33.6,33.6-65.2,32.4-65.2,32.4s-31.6,1.2-65.2-32.4c-22.4-22.5-73.5-53.7-123.5-59.3c-54-6-77.4,18.3-101.5,62.5
			c-25.9,47.5-41,120.2,6,194.8c41.2,65.4,76.7,121.1,59.5,140.6c-20.3,23-34.8,34.8-5.7,123.6c26.3,80.1,43.9,84.9,72.6,48.2
			c17.7-22.7,155.4-18.2,157.8-18.1c2.4-0.1,140-4.7,157.8,18.1c28.7,36.7,46.3,31.9,72.6-48.2c29.2-88.8,14.6-100.6-5.7-123.6
			c-17.2-19.5,18.3-75.1,59.5-140.6C714.5,2104.7,699.5,2032.1,673.6,1984.5z M502,2450.5c-27.4-6.4-112.3-9.9-112.3-9.9
			c-147.3,0-160.2,21.6-177.8,26.3c-17.5,4.7-10.5-19.9,3.5-28.1s12.9,6.4,12.9,6.4s21-4.4,55.8-15.5s105.6-7,105.6-7
			s41.3,2.4,80.7,3.2c39.2,0.8,66.7,6,88,33.3C577.3,2483.4,531,2457.2,502,2450.5z M298.7,2224.1c-49.6-32.9-20.6-53.1-20.6-53.1
			C275,2198.6,298.7,2224.1,298.7,2224.1z M322.1,2207c0,0-22.9-15.6-8-36.4c12-16.8,17.5-1.3,42.2,31.1
			c24.7,32.5,14.4,43.4,14.4,43.4c-0.9-11.4-34.9-45.8-48.5-53.9C312.9,2185.6,322.1,2207,322.1,2207z M444.6,2191.2
			c-13.6,8.2-47.7,42.5-48.5,53.9c0,0-10.3-11,14.4-43.4c24.7-32.5,30.2-47.9,42.2-31.1c14.8,20.8-8,36.4-8,36.4
			S453.8,2185.6,444.6,2191.2z M488.6,2171c0,0,28.9,20.2-20.6,53.1C468,2224.1,491.7,2198.6,488.6,2171z M628.5,2119
			c-0.6,12.2-11,24.3-23,26.7c-22,4.5-62.5,10.5-147.1,3.4c-9.3-0.8-19.2-5.6-23.1-14.1c-1.7-3.8-3.6-8.2-5.2-13.1
			c-0.1-0.2-0.1-0.4-0.2-0.6c-1.4-3.8-10.6-23.9-46.6-23.9s-45.1,20.1-46.6,23.9c-0.1,0.2-0.1,0.4-0.2,0.6
			c-1.7,4.9-3.5,9.3-5.2,13.1c-3.9,8.5-13.8,13.3-23.1,14.1c-84.6,7.1-125.1,1-147.1-3.4c-12-2.4-22.4-14.4-23-26.7
			c-2.8-55.8,0-76.4,0-76.4c2.8-10,11.9-17.3,22.3-17c79.5,2.4,133.8,11.2,156.7,17.2c6.7,1.8,12.4,6.2,17.1,11.2
			c4.6,5,7.2,10.9,10.9,16.5c5.3,8,15.5,2.7,22.8,1c5-1.1,10.2-2,15.4-1.9c23.4,0.3,32.5,12.3,39.2-0.9
			c5.5-10.7,14.8-22.7,26.9-25.9c22.9-6,77.2-14.8,156.7-17.2c10.4-0.3,19.5,7,22.3,17C628.5,2042.7,631.3,2063.2,628.5,2119z"/>
	</g>
	<path class="st0" d="M355.5,91.3h-6.4c-152.7,0-262.3,123.1-262.3,314.5c0,46.1,7.8,102.2,18.8,142.9l21.6-8.5l65.8,105.4l6.6,73.4
		l53.7,48.9l28-150.8c0,0,3.8-22.6,18.8-22.6h52.1h52.1c15.1,0,18.8,22.6,18.8,22.6l28,150.8l53.7-48.9l6.6-73.4l65.8-105.4
		l21.6,8.5c11.1-40.6,18.8-96.7,18.8-142.9C617.8,214.5,508.2,91.3,355.5,91.3z M269.7,186.2c11.5,0,20.9,9.3,20.9,20.9
		c0,11.5-9.3,20.9-20.9,20.9c-11.5,0-20.9-9.3-20.9-20.9C248.9,195.5,258.2,186.2,269.7,186.2z M269.7,254.3
		c11.5,0,20.9,9.3,20.9,20.9c0,11.5-9.3,20.9-20.9,20.9c-11.5,0-20.9-9.3-20.9-20.9C248.9,263.6,258.2,254.3,269.7,254.3z
		 M269.7,322.4c11.5,0,20.9,9.3,20.9,20.9s-9.3,20.9-20.9,20.9c-11.5,0-20.9-9.3-20.9-20.9S258.2,322.4,269.7,322.4z M291.7,452.1
		l-52.9,37.5c-8.5,6-20.3,4-26.3-4.5c-6-8.5-4-20.3,4.5-26.3l52.9-37.5c8.5-6,20.3-4,26.3,4.5C302.3,434.3,300.2,446.1,291.7,452.1z
		 M354.8,364.1c-11.5,0-20.9-9.3-20.9-20.9s9.3-20.9,20.9-20.9c11.5,0,20.9,9.3,20.9,20.9S366.3,364.1,354.8,364.1z M354.8,296
		c-11.5,0-20.9-9.3-20.9-20.9c0-11.5,9.3-20.9,20.9-20.9c11.5,0,20.9,9.3,20.9,20.9C375.6,286.7,366.3,296,354.8,296z M354.8,227.9
		c-11.5,0-20.9-9.3-20.9-20.9c0-11.5,9.3-20.9,20.9-20.9c11.5,0,20.9,9.3,20.9,20.9C375.6,218.6,366.3,227.9,354.8,227.9z
		 M439.8,186.2c11.5,0,20.9,9.3,20.9,20.9c0,11.5-9.3,20.9-20.9,20.9c-11.5,0-20.9-9.3-20.9-20.9C419,195.5,428.3,186.2,439.8,186.2
		z M439.8,254.3c11.5,0,20.9,9.3,20.9,20.9c0,11.5-9.3,20.9-20.9,20.9c-11.5,0-20.9-9.3-20.9-20.9
		C419,263.6,428.3,254.3,439.8,254.3z M439.8,322.4c11.5,0,20.9,9.3,20.9,20.9s-9.3,20.9-20.9,20.9c-11.5,0-20.9-9.3-20.9-20.9
		S428.3,322.4,439.8,322.4z M492.1,485.1c-6,8.5-17.8,10.5-26.3,4.5l-52.9-37.5c-8.5-6-10.5-17.8-4.5-26.3c6-8.5,17.8-10.5,26.3-4.5
		l52.9,37.5C496.2,464.8,498.2,476.6,492.1,485.1z"/>
	<g>
		<path class="st0" d="M1249.6,743.1c-14.9,0.5-28.6,13.1-44.8,23.3c-17.8,11.2-37.1,22.8-55.8,22.8c-35.1,0-53.2-39.2-62.3-68.8
			c-17.4-56.5-19-95.5-4.9-115.9c6.9-10,17.2-15.3,29.6-15.3c21.7,0,45.4,15.9,60.5,30.3c22.1,20.9,46,34.5,77.7,35.8l0,31.9
			c-41,2-75.3-27.9-98.7-47.2c-18.5-15.2-29.4-27.7-49.9-16c-8.7,4.9-19.1,21.3,2.6,88.1c16.3,50.1,37.4,49.6,42.7,49.6
			c12.2,0,34.7-11,51-20.7c20.2-12.1,35-28.3,52.3-28.3V743.1z"/>
		<path class="st0" d="M1249.6,712.6c16.8,0,30.9,16.2,50.4,28.3c15.7,9.8,35.6,20.7,47.4,20.7c5.2,0,31,1.5,43.3-49.6
			c13.2-54.8,13.8-75.8,4.5-87.1c-14.8-17.9-33.3-0.1-51.2,15c-22.7,19.3-54.8,49.2-94.4,47.2v-31.9c30.6-1.3,53.7-15,75-35.8
			c14.7-14.4,37.6-37.3,58.5-37.3c12,0,21.9,5.3,28.6,15.3c13.7,20.5,11.1,66.5-5.8,122.9c-8.8,29.5-27.3,68.8-61.2,68.8
			c-18.1,0-34.8-11.6-51.9-22.8c-15.6-10.2-28.9-22.8-43.3-23.3V712.6z"/>
		<path class="st0" d="M1414.2,275.2c-57.5-129.4-199-147.6-315-154.6S914.2,70,914.2,70c66,87.4,199,166.6,199,166.6
			c-38-14.4-108.7-63.7-108.7-63.7c59.3,88.7,101.3,111.1,101.3,111.1c-93.3-36-96-24-172-31.3c-76-7.3-124-40.7-124-40.7
			s72,95.3,102,120s109.8,55.2,109.8,55.2c-116,35-200.5-7.5-200.5-7.5c13,40,67,91,119,112s83,45,83,45l1,28c-41,30-73,98-73,98
			c38-64,79-80,79-80c-64,44-90,114-90,114c115.1-16.3,134-91.8,288-97c149-5,195-63,195-63c10,127.6-17.5,212-17.5,212
			c13-13.5,24-75,24-75c-2,46-8,58.5-8,58.5c11.5-12,18.6-42.9,18.6-42.9l64.5-241.7c2.1-8.1,0.6-16.8-4.2-23.7l-6.9-9.8
			c-7.7-10.9-16.2-22.3-19.8-35.1c-31.9-112.6-62.7-148.7-62.7-148.7S1416.3,252.6,1414.2,275.2z"/>
		<path class="st0" d="M1043.7,380.1c-67.5,32-159.5,9.5-159.5,9.5c99.5,4,124.5-17,124.5-17L1043.7,380.1z"/>
		<path class="st0" d="M1041.9,637.9c0,0-4.2,62.6,14.4,112c0,0-2.9-50.1,0.5-72.5l8.1,35.7l3.8-88.9L1041.9,637.9z"/>
	</g>
	<g>
		<path class="st0" d="M2026.2,704h25.2c7.1,0,14.1,1.5,20.6,4.3l54,23.4c6.9,3,14.9,0.2,18.5-6.4l20.3-37.4c2-3.6-0.7-8-4.8-8H2129
			c-7.4,0-14.2-3.7-18.3-9.8l-32.3-48.5c-2.6-3.9-8.1-4.1-11.1-0.5l-5.2,6.4c-4.4,5.3-10.9,8.5-17.8,8.5h-18.1h-18.1
			c-6.9,0-13.4-3.1-17.8-8.5l-5.2-6.4c-2.9-3.6-8.5-3.3-11.1,0.5l-32.3,48.5c-4.1,6.1-11,9.8-18.3,9.8h-31.1c-4.1,0-6.7,4.4-4.8,8
			l20.3,37.4c3.6,6.6,11.6,9.3,18.5,6.4l54-23.4c6.5-2.8,13.5-4.3,20.6-4.3H2026.2z"/>
		<path class="st0" d="M2026.2,592h41.1c6.9,0,13.4,3.2,17.6,8.6l43.2,54.9c3.2,4.1,8.1,6.5,13.4,6.5h22.2c7,0,13.5-4.1,16.5-10.4
			l29.1-61.2c3.1-6.6,3.3-14.3,0.5-21l-7.6-22.2c-3.2-7.7-2.7-16.4,1.1-23.7l69-134.6c1.7-3.2,6.6-1.8,6.3,1.8l-2.5,38
			c-0.3,4.8-1.9,9.3-4.6,13.3l-50.2,72c-2.7,3.9-4.1,8.5-4,13.3l0.6,30c0.1,5.1,6.6,7.3,9.7,3.1l81.1-108.4
			c2.9-3.9,5.1-8.4,6.2-13.2l14.3-58c1.2-5.1,4-9.7,7.8-13.2l34.6-31.7c8.3-7.6,13.3-18.3,13.7-29.6l-0.1-81.7
			c0.6-13.4-5.1-26.3-15.3-34.9c-16.2-13.7-30.6-28.3-38.8-41.8c-12.5-20.5-63-34-84-5c-13.3,18.4-27.6,29.1-36.3,34.5
			c-4.8,3-10.5,4.1-16.1,3.3l-4.7-1.7c-3.8-1.4-8-1.2-11.6,0.5l-67.9,31.2c-11.2,5.2-12,20.8-1.4,27.1l27.5,18.6
			c6,4.1,13.6,5.3,20.6,3.3l27.9-8c8.3-2.4,15.2-8.3,19-16.1l9.8-20.7c2.2-4.5,5.6-8.3,9.9-11l42.4-26c69.6-33.2,72.1,45.9,71,80
			c-0.3,9.3-2,17.2-8.4,24L2197,423.6c-3.7,4-8.9,6.3-14.4,6.3h-10.3c-5.5,0-10.6-2.8-13.6-7.4l-3-4.6c-6.3-9.8-14.7-18.1-24.5-24.4
			l-38.1-26.8c-5.8-3.7-12.6-5.7-19.5-5.7h-47.4h-47.4c-6.9,0-13.7,2-19.5,5.7l-38.1,26.8c-9.8,6.3-18.2,14.6-24.5,24.4l-3,4.6
			c-3,4.6-8.1,7.4-13.6,7.4h-10.3c-5.5,0-10.7-2.3-14.4-6.3l-131.8-141.6c-6.4-6.8-8.1-14.7-8.4-24c-1.1-34.1,1.4-113.2,71-80
			l42.4,26c4.3,2.6,7.7,6.4,9.9,11l9.8,20.7c3.7,7.8,10.6,13.7,19,16.1l27.9,8c7,2,14.5,0.8,20.6-3.3l27.5-18.6
			c10.6-6.3,9.8-21.9-1.4-27.1l-67.9-31.2c-3.7-1.7-7.8-1.9-11.6-0.5l-4.7,1.7c-5.6,0.9-11.3-0.3-16.1-3.3
			c-8.7-5.4-23-16.2-36.3-34.5c-21-29-71.5-15.5-84,5c-8.2,13.5-22.6,28.1-38.8,41.8c-10.2,8.6-15.9,21.5-15.3,34.9l-0.1,81.7
			c0.4,11.3,5.4,21.9,13.7,29.6l34.6,31.7c3.8,3.5,6.6,8.1,7.8,13.2l14.3,58c1.2,4.8,3.3,9.2,6.2,13.2l81.1,108.4
			c3.1,4.1,9.6,2,9.7-3.1l0.6-30c0.1-4.7-1.3-9.4-4-13.3l-50.2-72c-2.7-3.9-4.3-8.5-4.6-13.3l-2.5-38c-0.2-3.6,4.6-5,6.3-1.8
			l69,134.6c3.9,7.3,4.3,16,1.1,23.7l-7.6,22.2c-2.8,6.8-2.6,14.4,0.5,21l29.1,61.2c3,6.4,9.4,10.4,16.5,10.4h22.2
			c5.2,0,10.1-2.4,13.4-6.5l43.2-54.9c4.3-5.4,10.8-8.6,17.6-8.6H2026.2z"/>
		<path class="st0" d="M2026.2,340.2c153,0,266-53.2,274-91c0.9-4.2,1.2-15.5,0.6-25.8c-0.4-6.5-8.4-9.1-12.5-4.1
			c-37.3,45.2-140.6,77.7-262.1,77.7s-224.7-32.5-262.1-77.7c-4.1-5-12.2-2.3-12.5,4.1c-0.6,10.3-0.3,21.5,0.6,25.8
			C1760.2,287,1873.2,340.2,2026.2,340.2z"/>
	</g>
	<g>
		<path class="st0" d="M2755.2,234.9l-3.6,3.9c-4.7,5.1-6.6,12.1-5.2,18.8l5.9,28.8c1.2,5.9-0.5,12.1-4.7,16.5l-24.3,25.7
			c-3.2,3.4-7.6,5.3-12.3,5.3h-27.7v54l28,31v70l99.5,24.4c4.3,1.1,8.5,2.5,12.6,4.2l30.7,13.3c0,0-81.4-136-128.1-168
			s22-17.3,52.7,30.7c30.7,48,123,194.7,147.7,217.3c0,0-43.7-116-49.7-156.7s-24.4-136.5-52.7-129
			C2790.3,334.1,2764.5,279.9,2755.2,234.9z"/>
		<path class="st0" d="M3131.4,234.9l3.6,3.9c4.7,5.1,6.6,12.1,5.2,18.8l-5.9,28.8c-1.2,5.9,0.5,12.1,4.7,16.5l24.3,25.7
			c3.2,3.4,7.6,5.3,12.3,5.3h27.7v54l-28,31v70l-99.5,24.4c-4.3,1.1-8.5,2.5-12.6,4.2l-30.7,13.3c0,0,81.4-136,128.1-168
			c46.7-32-22-17.3-52.7,30.7s-123,194.7-147.7,217.3c0,0,43.7-116,49.7-156.7s24.4-136.5,52.7-129
			C3096.3,334.1,3122,279.9,3131.4,234.9z"/>
		<path class="st0" d="M2644.2,187.9l-25.4,50.7c-3,6-3.9,12.8-2.6,19.4l31.5,157.3l27.5-23L2644.2,187.9z"/>
		<polygon class="st0" points="2683.2,402.9 2656.5,425.5 2656.5,543.5 2683.2,570.9 2703.2,546.9 2703.2,422.9 		"/>
		<path class="st0" d="M2943.3,629.9c0,0,43.1-116,58.1-201.1c11.5-65.3,31.7-109.5,40-125.6c2.3-4.4,7.1-7,12.1-6.3l33.8,7.6
			c2,0.3,4.1-0.4,5.5-1.9c19.8-19.9,27.5-55.5,29-70.5c0.5-4.7-0.7-9.3-3.3-13.2c-43.3-64.4-146.2-130.6-170.2-145.5
			c-3.1-1.9-7-1.9-10.1,0c-24,14.9-126.9,81.1-170.2,145.5c-2.6,3.9-3.8,8.6-3.3,13.2c1.6,15,9.3,50.6,29,70.5
			c1.4,1.4,3.5,2.1,5.5,1.9l33.8-7.6c5-0.6,9.8,1.9,12.1,6.3c8.3,16.1,28.5,60.3,40,125.6C2900.2,513.9,2943.3,629.9,2943.3,629.9z"
			/>
		<path class="st0" d="M3242.4,187.9l25.4,50.7c3,6,3.9,12.8,2.6,19.4l-31.5,157.3l-27.5-23L3242.4,187.9z"/>
		<polygon class="st0" points="3203.4,402.9 3230,425.5 3230,543.5 3203.4,570.9 3183.4,546.9 3183.4,422.9 		"/>
		<path class="st0" d="M2943.3,787.3h60.8c4.7,0,9.1-2,12.1-5.6l135.2-157.5l16-117.7l-20,3l-6.5,58.1c-1,6.7-4.5,12.8-9.9,17
			l-49.1,37.5l-79.2,125.3l-20.9-26.9c-2.8-3.6-7.1-5.7-11.7-5.7h-26.8h-26.8c-4.6,0-8.9,2.1-11.7,5.7l-20.9,26.9l-79.2-125.3
			l-49.1-37.5c-5.4-4.1-9-10.2-9.9-17l-6.5-58.1l-20-3l16,117.7l135.2,157.5c3,3.5,7.5,5.6,12.1,5.6H2943.3z"/>
	</g>
	<g>
		<g>
			<polyline class="st0" points="3823.8,176.1 3823.8,251.7 3783.8,316.4 3823.8,366.7 3823.8,423.1 3753.1,316.4 3794.4,247.1 
				3794.4,203.7 3801.8,201.1 3801.8,185.1 3823.8,176.1 			"/>
			<g>
				<polygon class="st0" points="3748.9,319.2 3747.2,316.5 3748.8,313.8 3771.9,275.2 3757.8,261.1 3724.4,319.1 3769.8,385.1 
					3796.1,390.2 				"/>
				<polygon class="st0" points="3791.4,245.7 3791.4,201.7 3798.7,199.2 3798.8,192.4 3788.5,192.4 3760.4,249.1 3777.3,266 				
					"/>
			</g>
			<polyline class="st0" points="3826.8,176.1 3848.9,185.1 3848.9,201.1 3856.2,203.7 3856.2,247.1 3897.5,316.4 3826.8,423.1 
				3826.8,366.7 3866.9,316.4 3826.8,251.7 3826.8,176.1 			"/>
			<g>
				<polygon class="st0" points="3901.7,319.2 3903.4,316.5 3901.8,313.8 3878.8,275.2 3892.9,261.1 3926.2,319.1 3880.9,385.1 
					3854.6,390.2 				"/>
				<polygon class="st0" points="3859.2,245.7 3859.3,201.7 3851.9,199.2 3851.9,192.4 3862.2,192.4 3890.2,249.1 3873.3,266 				
					"/>
			</g>
		</g>
		<g>
			<path class="st0" d="M3543,277.6l-32.4-127.9l-30-26.7l-18,46.7l19,93.7C3496.1,263.3,3518.9,265.6,3543,277.6z"/>
			<path class="st0" d="M3663.7,703.2l-83.7-117.8l-35.6-165c-1.5-6.4-0.2-13.2,3.7-18.6l14.6-24.2c2.5-4.2,3.3-9.3,2.1-14
				l-17.4-68.9l0,0l-46.3-11.3l-8.3,34.6l55.7,274.5c1,5.2,3.1,10.1,6.1,14.4l80.4,118.7c2,3,5.1,5.1,8.6,6l17.1,4.3
				c2.8,0.7,5.4-1.4,5.4-4.3v-21.5C3665.9,707.8,3665.1,705.3,3663.7,703.2z"/>
		</g>
		<path class="st0" d="M3825.3,575.4l62.5,7.9c15.4,2.4,29.8,10.8,42.2,20.3c23.2,17.6,46.3,28.9,59.4,33.9c5.1,1.9,10.8,0.8,14.7-3
			c37.6-36.9,49.6-80,49.6-80l21.2-130.4c0.5-3.3,0.6-6.6,0.1-9.9c-4.4-30.4-16.8-42.2-23.7-46.5c-2.4-1.5-5.6-1.1-7.5,1
			c-20.3,22.3-43.8,38.4-60.3,49.8c-12.4,8.6-26.6,14.4-41.5,16.9L3825.3,457l-116.7-21.7c-14.9-2.5-29.1-8.3-41.5-16.9
			c-16.5-11.4-40-27.5-60.3-49.8c-1.9-2.1-5.1-2.5-7.5-1c-6.9,4.3-19.3,16-23.7,46.5c-0.5,3.3-0.4,6.7,0.1,9.9l21.2,130.4
			c0,0,12,43.2,49.6,80c3.9,3.8,9.6,4.9,14.7,3c13-5,36.2-16.3,59.4-33.9c12.4-9.4,26.8-17.8,42.2-20.3L3825.3,575.4z"/>
		<g>
			<path class="st0" d="M4107.7,277.6l32.4-127.9l30-26.7l18,46.7l-19,93.7C4154.6,263.3,4131.8,265.6,4107.7,277.6z"/>
			<path class="st0" d="M3987,703.2l83.7-117.8l35.6-165c1.5-6.4,0.2-13.2-3.7-18.6l-14.6-24.2c-2.5-4.2-3.3-9.3-2.1-14l17.4-68.9
				l0,0l46.3-11.3l8.3,34.6l-55.7,274.5c-1,5.2-3.1,10.1-6.1,14.4l-80.4,118.7c-2,3-5.1,5.1-8.6,6l-17.1,4.3
				c-2.8,0.7-5.4-1.4-5.4-4.3v-21.5C3984.7,707.8,3985.5,705.3,3987,703.2z"/>
		</g>
	</g>
	<g>
		<path class="st0" d="M4517.7,371.1l475.1-284.5c4.7-2.8,10.2,2.3,7.8,7.2l-20.7,41.9c-1.6,3.2-3.6,6.1-6,8.8
			c-23.8,26-163,174.3-374.6,327.7c-3.2,2.3-7.5,2.7-11.1,1l-15.8-7.4c-3.9-1.8-8.5-1.3-11.9,1.5L4513,506l-74.9,26.3
			c-2.2,0.8-4.3-1.5-3.2-3.6l75.6-149.8C4512.2,375.7,4514.6,373,4517.7,371.1z"/>
		<path class="st0" d="M4419.4,721.1l-13.4-7.9c-2.5-1.5-4.4-3.8-5.3-6.5l-5-11.1c-0.7-2.1-1.2-5.1,0.7-6.3
			c8.7-5.7,18.7-33.2,5.3-86.6c-0.4-1.7-0.1-3.6,0.7-5.2c5.4-11.2,27.4-56.2,29.5-56.9l397-130.5c3.6-1.2,6.5,3,4.1,5.9l-20,24.7
			c-1.5,1.9-3.3,3.5-5.3,4.9c-19.7,13.7-125.3,88.5-288.8,158.9c-2.5,1.1-5.4,0.7-7.5-1l-9.4-7.3c-2.3-1.8-5.5-2.1-8.1-0.8
			l-35.1,15.8c-1.3,0.6-0.9,2.6,0.6,2.6l281-10.8c2-0.1,3,2.4,1.5,3.7l-13,11.8c-2.2,2-4.7,3.4-7.5,4.3
			c-23.3,7.3-138,42.2-243.4,54.1c-3.2,0.4-6.5-0.4-9.3-2.1l-11.2-7c-2.5-1.5-5.4-2-8.2-1.5l-34.9,7.1l255.5,35.7
			c2,0.3,2.4,3,0.6,3.9l-13.1,6c-4.5,2.1-9.2,3.3-14.1,3.7c-26.5,2.3-128.3,8.9-219.1-0.4C4422.3,722.4,4420.8,721.9,4419.4,721.1z"
			/>
		<path class="st0" d="M4295.5,673.7c3.1,44,110,105.3,134.7,99.3c23.5-5.7-24.3-30.5-38.7-71.3c-1.3-3.7-4.7-6.2-8.6-6.5
			c-9.5-0.6-26.6-2.1-35.9-12.2c-1.3-1.4,0-3.6,1.9-3.2c0,0,45.2,19.4,46.3-24.6c1-40.2-18.6-62-18.6-62c-0.5-1.1,0.2-2.3,1.3-2.5
			c3.1-0.6,8.9-1.6,13.2-2.3c3.4-0.6,6.4-2.7,8-5.7c8.9-16,37.9-69.6,59.7-125.7c20.8-53.6,38.3-96,44.5-110.8c1-2.4-1.1-5-3.7-4.4
			l-10.5,2.2c-4.1,0.8-7.9,2.6-11.2,5.3c-22.2,17.7-112.1,92.4-177.6,191.7c-4.1,6.3-4.6,14.3-1,21l21,39.4l-17.8-12.7
			c-3-2.2-7.2-1.1-8.9,2.2C4285.2,606.7,4272.1,651.6,4295.5,673.7"/>
	</g>
	<g>
		<path class="st0" d="M344.4,1095.4c18.9,0,25.5,33.9,27.8,54.4c1.3,11.3,4.3,22.4,8.9,32.8l29,65.6c-39-10-70-37-70-37l20-18
			c0,0-42.5,8.5-84,99c-44.5,97-132.2,174.8-154.8,196.1c-3.3,3.2-7.5,5.3-12,6.2l-46.8,9.4c-0.2,0-0.3,0-0.4,0
			c-2,0-2.8-2.8-0.9-3.8c34-17.3,58.7-33.1,115.5-184.4c57.3-154.7,133.3-213.3,164-220C342,1095.6,343.3,1095.4,344.4,1095.4"/>
		<path class="st0" d="M704.1,1246.8c2.6-4.1,4.1-8.7,4.4-13.5l0.3-18.7c0.1-0.9-1-1.5-1.7-0.9l-30.1,25c-5.3,3.6-11.1,6.1-17.3,7.5
			l-32.6,7.9l22.7-25.4c2.2-2.4,3.8-5.2,5-8.2l7.7-20.3c1-2.7,1.5-5.6,1.2-8.5l-0.5-6.1c-0.1-1-1.3-1.4-2-0.7
			c-18.1,17.5-41.2,30.2-41.2,30.2s62-217-201-239.1c-249.7-21-264,153.1-250,207.1c0,0-17.4-2.8-26.9-13.9
			c-1.2-1.4-3.5-0.7-3.6,1.2l-1.2,15.4c-0.5,6.4,0.8,12.9,3.8,18.6l15.4,29.2l-61.1-36.7c-3.5-2.1-6.4-5.2-8.3-8.9l-3.9-9.5
			c-1.2-2.3-4.5-2-5.3,0.5l-2.3,14.4c-1.9,6.5-2,13.4,0.1,19.8c3.9,12.5,10.1,34,30.8,55H94.5c-5,0-9.8-2.2-13.1-6l-9.3-10.7
			c-0.8-0.9-2.4-0.6-2.6,0.7l-1.9,8.3c-1,4.3-0.7,8.8,0.9,12.9c4.5,12,15.8,37.6,36.2,56.3c20.1,18.3,32.3,26.1,35.6,51.8
			c8.7-19.6,17.8-44.1,27.3-69.8c25.5-68.7,51-129.2,87.2-171.2c27.4-31.8,59.8-49.7,81.5-54.4c2.1-0.5,4.2-0.7,6.3-0.7
			c9.5,0,22.6,2.7,31.3,25.1c3.9,10,5.7,22.8,7.4,37.9c1.1,10,4.8,19.9,8.9,29.2l27,65.6l2.4,5.4l2.1,0.9c0,0,60.5-38,85-49
			c24.5-11,70.6-0.5,69,22c-0.8,10.8-4.5,16.4-7,19c-1.2,1.3-1.3,3.3-0.2,4.6l9.2,10.4v44.5l-3.7,2.6c-0.8,0.5-1.1,1.5-0.9,2.4
			c3.2,13,15.2,43.5,15.2,43.5c0.4,36-12.4,80.4-19.5,94.5c-2.8,5.5-0.4,8.9,2.9,9.9l6.4,1.6c4.9,0.7,7.2-0.7,9.1-3.9
			c5.6-9.2,17.6-27.2,32.6-38.6c21.4-16.3,32.3-41.3,35.5-49.7c0.3-0.8-0.7-1.6-1.4-1l-18.8,14.2c-1.5,1.3-3.2,2.4-5.1,3.1
			l-18.7,7.4l52.8-45.5l44-65.9c0.6-0.9-0.5-1.9-1.3-1.3l-28.8,19.6c-4,3.1-8.7,5.1-13.6,6l-7,1.2
			C683.4,1278.4,697.5,1257.2,704.1,1246.8z"/>
		<path class="st0" d="M415.9,1377.8l1.7-7.1c0.7-2.9,2.7-5.3,5.4-6.5c8.5-3.8,13.3-9.3,31.7-13.4c45.2-10,99.1-37.9,97-37.3
			l-0.7,13.7h9.7v10l14,1.3c0,0-51.3,27.3-83.3,33.3c-30.4,5.7-55-2.3-73.4,7.6C416.9,1380,415.6,1379,415.9,1377.8z"/>
		<path class="st0" d="M379.7,1378.4l-0.1-8.2c-0.5-2.9-2-6-4.9-7c-15.7-5.5-19.5-14.9-36.5-19c-17.1-4.2-48.6-18.8-66.5-28.9l0,0
			l-15.4,26v0c14.7,7,32.1,14.6,46.5,18.6c29.8,8.3,57.1,8.4,74.6,19.9C378.6,1380.5,379.9,1379.6,379.7,1378.4z"/>
		<path class="st0" d="M464.1,1461.8v-3.3c-20.3,3-29.3,13.7-29.3,13.7c-1.2-6.6-1.7-9.7-1.7-9.7c-14,16-41,17.3-41,17.3
			c-33.8-24-42.8-24-90-17.7c-32.8,4.4-67,58.5-17.5,119.5c47.9,59,52.8,90.5,52.8,90.5c12.2-7.8,16-20,16-20s1.9,9.7,10.8,20.2
			c10.3,12.2,10.2,20.2,10.2,20.2l7.2-7.5l5.5,5.9c0,0,2-6.1,9.8-15.2c9.8-11.5,18.6-22.8,18.6-22.8c4.7,11,3.7,21.7,3.7,21.7
			c27-24,90.3-97.7,92.3-151.7C513.4,1469.2,464.1,1461.8,464.1,1461.8z M443.1,1606.7c0,0-37-38.5-49-38.5s-32.7,1.7-41.5,22.5
			l-11.7,2.4c-3,0.3-5.6,2.2-7,4.9l-2.3,4.7c0,0-50.8-58.9-36-97c10-25.8,36.5-27.5,65.4-22.2c6.7,1.2,21.4,10.6,24.4,11.3l2.5,0.6
			c4.5,1.1,11.2,1.6,15.4-0.4c15.7-7.4,62.9-14.2,74.9,8.1C498.5,1541.2,468.1,1564.5,443.1,1606.7z"/>
	</g>
	<g>
		<polygon class="st0" points="943.5,1625.1 916.2,1601.5 916.2,1158 943.5,1130.7 		"/>
		<polygon class="st0" points="1269.6,1615.7 1316.2,1671.1 1394.9,1670.7 1434.9,1630.8 1434.9,1087 1391.1,1045.6 1272.9,1045.6 
			1290.6,1091.1 1290.6,1454.6 1263.3,1491.3 1121.5,1491.3 1094.2,1454.6 1094.2,1091.1 1111.9,1045.6 993.7,1045.6 949.9,1087 
			949.9,1630.8 989.8,1670.7 1068.5,1671.1 1115.2,1615.7 		"/>
		<polygon class="st0" points="1441.3,1625.1 1468.6,1601.5 1468.6,1158 1441.3,1130.7 		"/>
		<polygon class="st0" points="1271.8,1085.5 1238.8,995.9 1146,995.9 1113,1085.5 		"/>
		<path class="st0" d="M1109.3,1101.5v339h166.3v-339H1109.3z M1241.6,1390.1l-7,8.7c-1.6,2-4,3.1-6.5,3.1h-71.4
			c-2.5,0-4.9-1.1-6.5-3.1l-7-8.7c-1.2-1.5-1.9-3.4-1.9-5.3v-243.9c0-2.3,0.9-4.5,2.6-6.1l12.8-12.2c1.6-1.5,3.6-2.3,5.8-2.3h59.8
			c2.1,0,4.2,0.8,5.8,2.3l12.8,12.2c1.7,1.6,2.6,3.8,2.6,6.1v243.9C1243.5,1386.7,1242.8,1388.6,1241.6,1390.1z"/>
		<polygon class="st0" points="1254.3,1478.6 1275.5,1450.4 1109.2,1450.4 1130.4,1478.6 		"/>
	</g>
	<g>
		<path class="st0" d="M1428.4,2238.3c-12.7,51-61.3,63-61.3,63c6.3-23.6,2-49.5,2-49.5c-29.6,45-102.3,60-102.3,60
			c29.3-29.4,33-63.5,33-63.5c-35.7,55.5-116.8,79.5-116.8,79.5c-81-36.1-112.2-105.8-112.2-105.8c-25.3,28.7-1.6,73.8-1.6,73.8
			c-59.8-32.1-100.7-113-100.7-113s-17.1-176.4,152.8-233c0,0-52.9,51.5-50.1,114.5c0,0,55.7-85.1,191.1-87.5
			c134.1-2.4,164.1-39.5,164.1-39.5s-10.6,54.5-62.7,90.5c0,0,161.3,38,307.7-136c0,0-3.4,145.5-131.5,222c0,0,62.7-1,120.4-49
			c0,0-34.9,141.6-170.9,131.5c0,0,40.7,49.4,42,90.1c1.3,40.7-9,98-9,98s-15.7-70.3-35.7-90.3S1428.4,2238.3,1428.4,2238.3z"/>
		<path class="st0" d="M1401.3,2302.3c0,0,32.4,34,34.2,95c2,70.5-7.2,91-7.2,91s31-21,39-78s6.9-95.2-1-105c-10.5-13.1-37-33-37-33
			S1422.3,2286.3,1401.3,2302.3z"/>
		<path class="st0" d="M957.8,2201.7c0,0,31.5,58.7,65.5,82c0,0-3,23.5-23.8,60.9c-18,32.4,8.5,94.4-12.9,128.4
			c0,0-15.1-58.8-23.3-84c-12.3-37.6,1-68.2-7.5-111.3C949.3,2244.3,957.8,2201.7,957.8,2201.7z"/>
		<path class="st0" d="M1253,2499.7c29.8,4.4,55.8-1.8,93.7-32c26.6-21.2,47.7-20.8,68.8-11c2.1,1,4.1-1.5,2.8-3.5l-5.5-8.4
			c-4.6-7-12-13.6-20.3-14.5c-15.3-1.8-31.3-0.2-46,4.3c-23.1,7.1-49.5,33-75.2,25.8c-17.7-5-36.5-10.5-40,10.5
			S1239.1,2497.6,1253,2499.7z"/>
		<path class="st0" d="M1138.1,2500.7c-28.1,0.6-51.4-8.2-82.8-40.4c-22.1-22.6-41.6-24.8-62.3-18.1c-2,0.7-3.6-1.9-2.2-3.5l6.1-7.1
			c5-5.9,12.7-11.2,20.4-11.1c14.3,0.2,28.9,3.4,42,9.3c20.5,9.2,41.9,36.2,66.5,32.5c17-2.6,34.9-5.5,35.7,14.3
			C1162.3,2496.4,1151.2,2500.4,1138.1,2500.7z"/>
		<path class="st0" d="M1132.7,2309.7l-45.5,41.7c-1.2,1.1-2.6,1.8-4.2,2.1l-12,2.3c-1.9,0.4-3.8,0-5.4-1l-47.5-29.1
			c0,0,17.2,37.7,32.3,60.4c0.7,1.1,1.2,2.3,1.3,3.5l0.9,6.4c0.2,1.1,0.1,2.3-0.1,3.4l-29,143.7c0,0,36.5-81.2,58.8-110.3
			c1.5-2,3.7-3.4,6.1-4.1l5.8-1.6c1.7-0.5,3.5-0.4,5.2,0.2l68.1,23.1l-51.2-54.4c-1.4-1.4-2.2-3.3-2.3-5.3l-0.9-12.7
			c-0.2-2.3,0.1-4.7,0.8-6.9L1132.7,2309.7z"/>
	</g>
	<g>
		
			<ellipse transform="matrix(0.3377 -0.9413 0.9413 0.3377 695.8264 3395.2351)" class="st0" cx="2760.6" cy="1203.2" rx="69.4" ry="44.2"/>
		<path class="st0" d="M2673.4,1533.6c-30.1-59.9-74.2-98.6-98.5-86.4c-24.3,12.2-19.6,70.7,10.4,130.6s74.2,98.6,98.5,86.4
			C2708.2,1652,2703.5,1593.5,2673.4,1533.6z M2657.5,1625.7c-13.8,6.9-40.3-17.7-59-55.1c-18.8-37.4-22.8-73.3-8.9-80.2
			s40.3,17.7,59,55.1C2667.4,1582.9,2671.4,1618.8,2657.5,1625.7z"/>
		
			<ellipse transform="matrix(0.9413 -0.3377 0.3377 0.9413 -225.5178 1109.9677)" class="st0" cx="3077.5" cy="1203.2" rx="44.2" ry="69.4"/>
		<path class="st0" d="M3263.1,1447.2c-24.3-12.2-68.4,26.5-98.5,86.4c-30.1,59.9-34.8,118.4-10.4,130.6
			c24.3,12.2,68.4-26.5,98.5-86.4C3282.8,1517.9,3287.5,1459.4,3263.1,1447.2z M3239.5,1570.7c-18.8,37.4-45.2,62-59,55.1
			c-13.8-6.9-9.8-42.9,8.9-80.2c18.8-37.4,45.2-62,59-55.1C3262.3,1497.4,3258.3,1533.3,3239.5,1570.7z"/>
		<path class="st0" d="M3152.4,1526.9c23.7-47.2,57.7-80.9,85.9-88.4l-74.4-35.1c1.7-16.4,1.8-33.4,0.1-50.8
			c-4.7-48.6-16.5-94.4-34.3-134.9c2.6,32-8.5,59.1-29.9,66.8c-28.6,10.3-64.9-17.8-81-62.8c-16.1-44.9-6-89.7,22.7-100
			c28.6-10.3,64.9,17.8,81,62.8c1,2.7,1.8,5.4,2.6,8c-19.9-109.6-104.5-191.9-205.9-191.9c-101.4,0-186,82.3-205.9,191.8
			c0.8-2.6,1.6-5.3,2.6-8c16.1-44.9,52.4-73,81-62.8c28.6,10.3,38.8,55,22.7,100c-16.1,44.9-52.4,73-81,62.8
			c-21.5-7.7-32.6-34.8-29.9-66.8c-17.8,40.5-29.6,86.4-34.3,134.9c-1.7,17.4-1.6,34.4,0.1,50.8l-74.4,35.1
			c28.2,7.6,62.1,41.2,85.9,88.4c23,45.9,30,91.9,20.5,119.3l88.1-54.6c37.5,22.7,80.6,35.5,124.7,35.5c44.2,0,87.3-12.8,124.7-35.5
			l88.1,54.6C3122.4,1618.8,3129.4,1572.8,3152.4,1526.9z M2890.3,1027.6h64.7c5.3,0,9.7,4.3,9.7,9.7c0,5.3-4.4,9.7-9.7,9.7h-64.7
			c-5.3,0-9.7-4.4-9.7-9.7C2880.6,1032,2884.9,1027.6,2890.3,1027.6z M2875.8,1068.7L2875.8,1068.7c1.1-5.2,6.3-8.5,11.5-7.4
			l71.9,15.7c5.2,1.1,8.5,6.3,7.4,11.5l0,0c-1.1,5.2-6.3,8.5-11.5,7.4l-71.9-15.7C2878,1079.1,2874.7,1073.9,2875.8,1068.7z
			 M2873.8,1114.6c0.6-5.3,5.3-9.2,10.6-8.6l75.7,8c5.3,0.6,9.2,5.3,8.6,10.6c-0.6,5.3-5.3,9.2-10.6,8.6l-75.7-8
			C2877.1,1124.7,2873.2,1119.9,2873.8,1114.6z M2825.8,1534L2825.8,1534c-4.4,2.9-10.5,1.7-13.4-2.8l-35.6-54
			c-2.9-4.4-1.7-10.5,2.8-13.4c4.4-2.9,10.5-1.7,13.4,2.8l35.6,54C2831.5,1525,2830.3,1531.1,2825.8,1534z M2847.1,1525.5
			L2847.1,1525.5c-5.2,1-10.3-2.5-11.3-7.7l-13.8-73.4c-1-5.2,2.5-10.3,7.7-11.3c5.2-1,10.3,2.5,11.3,7.7l13.8,73.4
			C2855.8,1519.4,2852.3,1524.5,2847.1,1525.5z M2902.8,1511.8L2902.8,1511.8c-4.8,2.4-10.6,0.5-13-4.3l-33.5-66.8
			c-2.4-4.8-0.5-10.6,4.3-13c4.8-2.4,10.6-0.5,13,4.3l33.5,66.8C2909.5,1503.6,2907.5,1509.4,2902.8,1511.8z M2796.7,1311.6
			c0,0,24.6-101.9,122.3-161.6c97.7,59.7,122.3,161.6,122.3,161.6c-56-117.8-122.3-141.4-122.3-141.4S2852.7,1193.8,2796.7,1311.6z
			 M2926.9,1510.4c-4.8-2.2-6.9-8-4.7-12.8l31.4-67.8c2.2-4.8,8-6.9,12.8-4.7h0c4.8,2.2,6.9,8,4.7,12.8l-31.4,67.8
			C2937.5,1510.6,2931.7,1512.7,2926.9,1510.4z M2966.4,1520.5c-4.2-3.2-5.1-9.3-1.9-13.5l45.2-59.5c3.2-4.2,9.3-5.1,13.5-1.9
			c4.2,3.2,5.1,9.3,1.9,13.5l-45.2,59.5C2976.7,1522.9,2970.7,1523.7,2966.4,1520.5z M3055.4,1483l-34.8,45.9
			c-3.1,4-8.9,4.8-12.9,1.8l-0.7-0.5c-4-3.1-4.8-8.9-1.8-12.9l34.8-45.9c3.1-4,8.9-4.8,12.9-1.8l0.7,0.5
			C3057.7,1473.2,3058.5,1479,3055.4,1483z"/>
		<g>
			<path class="st0" d="M3843.2,1193.4c146.1,1.1,216.9,110.1,235.3,136.7c2.2,3.2,6,5.9,12.2,3.6l10.4-4.2
				c5.3-3.1,6.3-10.1,4.8-16.8l-30.8-204.8c-77.3-106.6-232-98.5-232-98.5s-153-1.5-229.5,91.5l-45.5,195.8
				c-1.6,6.7,0.3,13.7,4.9,18.8l6.5,7.2c2.6,2.9,7.2,2.6,9.4-0.6C3607.7,1295.5,3689.7,1193.4,3843.2,1193.4z"/>
			<path class="st0" d="M3665.4,1210.1l88,88.7c0,0,26.8,27.9,31.3,44.2c0.8,2.7,3,4.7,5.7,5.2c3.9,0.8,9.9,1.3,17.3-0.2
				c2.5-0.5,4.7,1.8,4,4.3c-1.6,5.9-4.6,12-15,12.8c-11,0.8-18.7-5.2-21.3-8.3c-1.2-1.4-2.6-2.6-4.3-3.5
				c-10-4.9-44.4-21.3-83.1-32.5c-29.6-8.6-50.1-17.7-61-23.1c-4.1-2-4.3-7.8-0.5-10.1l29.3-18c3.3-2,5.1-5.8,4.5-9.7l-7.1-49.7
				H3665.4z"/>
			<path class="st0" d="M3873.6,1349.4c6.8-3.9,53.2-22.4,91.3-35.6c29.1-10.1,49.2-20.2,59.7-26.2c4-2.2,3.9-8-0.1-10.2l-30.2-16.5
				c-3.4-1.9-5.4-5.6-5-9.4l4.6-50l-12,0.6l-83.4,93c0,0-25.3,21.2-29.1,37.8c0,0-2,8.3-11.5,7.6s-8-5.3-12.2-3.5
				C3841.5,1338.7,3847.1,1364.8,3873.6,1349.4z"/>
			<path class="st0" d="M3778,1368.1l-101.2-45.6c-4.1-1.9-8.9-1.1-12.3,1.9l-45.3,38.4c-2.4,2.2-3.8,5.3-3.8,8.5v11.3
				c0,2.3,0.7,4.5,2,6.4l47.3,66.8c2.1,3.1,5.7,5,9.4,5h44.3c2.4,0,4.7-0.7,6.6-2.1l54.9-41.5c3-2.1,4.8-5.6,4.8-9.3v-29.4
				C3784.8,1374,3782.1,1369.9,3778,1368.1z M3657.8,1395.2c-11.2,0-20.2-9.1-20.2-20.2s9.1-20.2,20.2-20.2
				c11.2,0,20.2,9.1,20.2,20.2S3668.9,1395.2,3657.8,1395.2z M3732.8,1426.4c-6.1,0-11-4.9-11-11c0-6.1,4.9-11,11-11
				c6.1,0,11,4.9,11,11C3743.8,1421.5,3738.9,1426.4,3732.8,1426.4z"/>
			<path class="st0" d="M3899.8,1500.4c0,0,31-33,72-33c43,0,104.7,84.4,129,89c24,4.5,79-48,85.7-39
				c12.8,17.2-111.6,150.1-154.7,145c-67.3-8-169.4-104.6-157-133C3883.9,1508.3,3899.8,1500.4,3899.8,1500.4z"/>
			<path class="st0" d="M3732.8,1489.4c0,0-27-31.3-46.1-31c-19.1,0.3-81.5,44.4-107,69c-22.5,21.6-22.5,25-51,12
				c-29.3-13.4-52-49.7-59.3-43.7c-8.2,6.7,73.8,149.2,125.7,161.7c60.9,14.7,178.6-97,171.6-124S3732.8,1489.4,3732.8,1489.4z"/>
			<path class="st0" d="M3772.6,1451.7l-11.8-2.8c-2-0.5-4,0.4-5,2.2l-15.5,28.4c-1.4,2.5-1.3,5.5,0.1,8c7.7,13.1,33.9,53.5,65.7,60
				c32.5,6.6,46.2-6.1,60.8-22.1s47.8-32.6,39.2-45.2c-8.1-11.8-18.7-30.2-32.8-23.5c-1.2,0.6-2.4-0.6-1.9-1.9
				c1.6-3.8,4.8-9.6,10.8-12.6c9.3-4.7,17.7-7,27.3,8c11.5,17.8,28.7,25.8,23.3,43.3c-5.3,17.4-68.5,69.7-82.7,71.6
				c-18.4,2.6-55.3,4.2-63.3,0c-8-4.2-42.9-34.2-42.9-34.2l-31.7-48l36.3-44.1c3.3-5,6.5-4.3,12.2-2.4c6.6,2.2,13.9,4,13.6,14.2
				C3774.1,1451.3,3773.3,1451.9,3772.6,1451.7z"/>
		</g>
	</g>
	<g>
		<path class="st0" d="M1636.4,1196.1c24.9,25.9,72.9,77.1,96,101.8c8.7,9.3,19,16.8,30.5,22.1l63.9,29.8l34.2-50.1l-33.6-55.4
			l-68.2-16.2l-93.7-58.1c-11-6.9-18.5-18.2-20.5-31l-3.8-20.9c-0.8-5.1-8.1-5.4-9.2-0.3l-7.5,39.9
			C1622.2,1171.6,1626.6,1185.9,1636.4,1196.1z"/>
		<path class="st0" d="M1808.3,1328.7c0,0-28.2,45.3-88.9,43.3c0,0,27.3,27.7,78.6-2.2c0,0-46.1,44-30.7,87.9
			c0,0,9.6-42.3,43.6-48.8c0,0-42.8,48.8-7.5,107.7c0,0-2-38.1,19.8-62.9c0,0-6.1,48.5,50.9,108.2l-0.8-25.7l24.8,24.9
			c0,0-13.9-72.7-16.4-127.2s14.9-72.1,14.9-72.1s147,46,295.3,34.4c0,0,10.7,19.1,7.5,64.4s-18,97.1-18,97.1s30.6-15.7,34.7-60.2
			c0,0,6.2,24.7-4.1,44.5c0,0,35.1-23.7,32.4-82.8c0,0,14.8,24.4,8.4,44.9c0,0,26.2-32,6.7-85.1c0,0,25.6,23.3,66.9,22.8
			c0,0-35.7-21.5-41.3-52.4c-5.6-31-196.2-25.8-196.2-25.8L1808.3,1328.7z"/>
		<path class="st0" d="M2247.3,1302.9c1.8-1,56.2,13.2,81.5,19.8c8.4,2.2,17.2,3.2,25.9,2.9l39.9-1.2c18.2-0.6,35.2-8.9,46.9-22.8
			l7.7-9.3c5.8-6.9,16.7-0.2,13.1,8.1l-14,32.1c-5.7,13.1-15,24.3-26.9,32.2l-14.6,9.8c-9,6-19.2,9.9-29.9,11.4l-119.4,16.7
			L2247.3,1302.9z"/>
		<path class="st0" d="M2003.4,1568.7c0,0-0.9-19.5,45.7-18.9c38.2,0.4,42.1,25.1,42.1,25c0,0-30.8,6.2-43.8,35.8
			C2047.3,1610.6,2037.4,1574.1,2003.4,1568.7z"/>
		<path class="st0" d="M2200.3,1592.4c0,0-25.9-25.5-29.8-56.3c-3.9-30.8-29.9-60.4-50.5-65c8.3,9.1,3.5,17.8,3.5,17.8l-12-10.1
			l-3.4,4.7c-1.1,1.6-3.6,1.3-4.4-0.5l-4.1-9.4l-8.2,11.5l-2.2-8.1l-7.9,8l-5.5-14.6l-6.2,7.4c-1.4,1.7-4.1,1.1-4.7-0.9l-1.9-6
			l-10.3,8.5l-8.8-9.1l-4,10.2l-8.3-4.8l-8.3,8.4l-14.2-5.8l-2.5,4.4c-2.1,3.7-6.8,5-10.5,3l-4.4-4.5l-6.2,6.2
			c-0.9,2-3.9,1.8-4.5-0.4l-0.9-3.5l-13.6,8c2-12.3,15.6-23.3,15.6-23.3s-33.3-0.7-56,57.8c-22.7,58.5-56.1,60.7-56.1,60.7
			s30.8,7.2,51.4-4.5c0,0-11.7,16.7-6.9,39.3c0,0,9.6-12,22.4-13c0,0-7.7,14.8-3.2,27c0,0,16.5-13.9,33-8c0,0-4.8,14.2,10.7,25.9
			c15.5,11.8,18.9,26.8,11.6,35.3c0,0,21,0.5,34-15.7l19.2,16.9l26.9-18.4c0,0,19.4,5.8,25.7,19.6c0,0,11.9-10.3,8.8-34.7
			c0,0,10,3.2,19.9,2.9c0,0-5.8-18.5,16.6-29.7l4.4,11.5c0,0,10.1-12,13-31.4l8,13.2c0,0,6.1-29.4-1.3-41.4
			C2164.3,1581.8,2178.1,1593.6,2200.3,1592.4z M2144.6,1567.6c-8.8-19.8-30.4-19.9-30.4-19.9c33.1,32.7-5.8,77.4-30.1,83.4
			c-24.3,6-36.8-20.4-36.8-20.4c-22.2,38.1-55.9,23.9-69.3-13s14.9-46.1,14.9-46.1c-31.7-4.4-48,13.5-48,13.5
			c-0.7-40.7,25.2-54.1,25.2-54.1l7.8,6.2l8.4-12.5l7.3,10.3l7.6-10.8c2.4-3.4,6.9-4.7,10.8-3.1l6.4,2.7l7.3-9l7,11.5l14.1-9.8
			c0,0,10.1,4.9,21.7,2.8c11.6-2.1,20.6,4,20.6,4l5.4-5.1c2.1-1.9,5.3-2.1,7.5-0.3l9.3,7.5l6.3-4.3l9.6,9.6l4.5-4.8
			C2152.4,1535.5,2144.6,1567.6,2144.6,1567.6z"/>
		<polygon class="st0" points="1807.8,1287 1816,1362.8 1892.7,1353.5 2236.6,1391.6 2305.6,1375.4 2262.7,1325.4 1807.3,1271.7 		
			"/>
		<path class="st0" d="M2258.3,1145.5c-21.9-28.4-77.3-94.1-150.9-136.8c-9.9-5.8-21.5-8-32.9-6.2c-39.4,6.1-137,26.9-202.4,88.8
			c-4.5,4.3-8.3,9.4-11.1,15l-24.6,50.4c-3,6.1-4.7,12.8-5.1,19.6l-4,68.1l7.1,39.5l261.8,44.4l158.1,14l-1-32.9l15.4-48.2
			c1.8-5.6,2.6-11.4,2.4-17.3l-2.1-68.4C2268.7,1164.6,2264.9,1154.1,2258.3,1145.5z M1858.9,1256.2l-14.4-72.3
			c-1.3-6.7,2-13.4,8.1-16.3l17.2-8.3l12.4,97.3L1858.9,1256.2z M1921.3,1258.2l-14.8-100l56.4-1.8l13.5,97.3L1921.3,1258.2z
			 M2108.8,1236.5c-1.5,2.7-3.6,5-5.9,6.9l-32.2,25.8c-10.8,8.7-26.6,6.9-35.2-3.9l-24.8-31.1c-2-2.6-3.6-5.5-4.5-8.7l-8.4-29.3
			c-2.3-7.8-0.5-16.3,4.6-22.6l20.5-25.4c4.6-5.7,11.4-9,18.7-9.3l31.1-1c2.7-0.1,5.4,0.3,8,1.1l17.5,5.3
			c7.6,2.3,13.7,8.1,16.3,15.6l10.8,30.7c2.4,6.9,1.7,14.5-2,20.9L2108.8,1236.5z M2125.3,1272l44.4-85.5l47.7,18l-40.8,88.9
			L2125.3,1272z M2258.8,1241.2l-26.7,62.2l-26.5-1.1c0,0,33.9-87.5,33.8-89l15.3,11.9C2259.6,1228.9,2261.3,1235.5,2258.8,1241.2z"
			/>
		<path class="st0" d="M2016.3,1191.2c3.1,36,21.6,51.3,33.5,57c5.2,2.5,11.3,2.7,16.7,0.6c24.5-9.4,40.4-37.8,44.7-50.1
			c1.3-3.6,1.2-7.5-0.3-11l-4.5-11c-1.6-3.9-5.8-6-9.9-4.8l-7.9,2.9c-4.7,1.8-8.3,5.7-9.5,10.6l-6.3,24.7c-0.4,1.5-1.1,2.8-2.1,3.9
			l-7.7,8.6c-1.3,1.4-3.5,1.1-4.4-0.5l-4.6-8.4c-0.7-1.3-1.1-2.7-1.1-4.1l-0.7-23c-0.1-4.4-1.9-8.7-4.9-11.9l-8.6-9.3
			c-3.4-3.7-9.3-3.2-12.2,0.9l-5.9,8.7C2017.3,1179.6,2015.8,1185.4,2016.3,1191.2z"/>
	</g>
	<path class="st0" d="M4856.1,1294.7c-9.6-26.8-27.4-50.1-34.1-58.3c-1.7-2.1-2.7-4.8-2.7-7.5l0-13.3c0-2.2,0.5-4.4,1.4-6.4
		l19.8-41.2c1.1-2.4,3.3-4.2,5.8-4.9l2.8-0.8c2.7,0,4.7-2.6,3.8-5.2c-9.4-29.2-54.6-72.3-54.6-72.3c-61.6-112.4-171-109.8-193.9-108
		c-2.8,0.2-5.7,0.2-8.5,0c-22.9-1.9-132.3-4.4-193.9,108c0,0-45.1,43-54.6,72.3c-0.8,2.6,1.1,5.2,3.8,5.2l2.8,0.8
		c2.5,0.7,4.6,2.5,5.8,4.9l19.8,41.2c1,2,1.4,4.2,1.4,6.4l0,13.3c0,2.7-0.9,5.4-2.7,7.5c-6.7,8.2-24.4,31.5-34.1,58.3
		c-1.8,5.1,1.9,10.5,7.3,10.5h0.4c2.6,0,5,1.2,6.6,3.2l36.5,46.7c2.5,3.2,6.3,5.1,10.4,5.1l12.7-2c2.5,0,4.9,0.9,6.8,2.4l40,33.1
		c3.6,2.9,6.3,6.8,7.6,11.3l56.2,185.2c0.8,2.7,1.3,5.4,1.3,8.2l0.7,26.3c0.1,4.1,1.9,8,5,10.8l57.8,52.7c3.7,3.3,9.2,3.3,12.9,0
		l21.1-20.3l-1-10.6c0-2.7,2.6-4.6,5.1-3.7l10.2,2.3l22.3-20.4c3.1-2.8,4.8-6.7,5-10.8l0.7-26.3c0.1-2.8,0.5-5.5,1.3-8.2l54.3-178.8
		l-0.9-28.8c0-1.3-0.3-2.5-1-3.5l-5.1-8.3c-0.6-0.9,0.4-2,1.2-1.4l7.1,5.9c1.3,1.1,2.1,2.9,2.2,4.8l0.5,19.1l0.2,0.6
		c1.4-2.3,3.2-4.3,5.3-6l40-33.1c1.9-1.6,4.4-2.4,6.8-2.4l12.7,2c4.1,0,7.9-1.9,10.4-5.1l36.5-46.7c1.6-2,4-3.2,6.6-3.2h0.4
		C4854.2,1305.2,4857.9,1299.8,4856.1,1294.7z M4621.6,1215.5l18.4,12.6c0.9,0.6,0.4,1.9-0.6,1.9h-6.4c-2,0-3.9-0.9-5.2-2.5
		l-7.9-10.2C4619.2,1216.1,4620.5,1214.7,4621.6,1215.5z M4544.8,1305.3c-1.1,4.3-4.3,7.7-8.6,9l-48.4,15c-3.3,1-6.9,0.7-9.9-1
		l-45.4-25.1c-2.7-1.5-4.7-3.9-5.8-6.8l-16-44c-2.1-5.9,0.3-12.4,5.8-15.4l9.7-5.4c3.8-2.1,8.4-2.1,12.2,0l96.1,52.5
		c3.9,2.2,8.8,1.9,12.5-0.7l6.3-3.8l-4.3,10.5c-0.9,2.3-1.7,4.7-2.3,7.1L4544.8,1305.3z M4647.4,1438.9
		c-15.1,48.6-22.5,98.8-41.8,116.3c-2.9,2.6-7.4,2.6-10.3,0c-19.4-17.5-26.8-67.7-41.8-116.3c-11.8-38.2-3.5-53.2,1.9-58.6
		c1.5-1.5,4.1-0.7,4.5,1.4c13.6,73.4,40.6,118.6,40.6,118.6s27-45.1,40.6-118.6c0.4-2.1,3-2.9,4.5-1.4
		C4650.9,1385.6,4659.2,1400.7,4647.4,1438.9z M4788,1253.7l-17.3,41.2c-1,2.8-3,5.1-5.5,6.5l-46.5,25c-2.9,1.6-6.3,1.9-9.5,1
		l-18.8-4.2l2.2,4.9c0.6,1.3,1.3,2.5,2.1,3.7l11.5,16.2c0.8,1.1-0.7,2.5-1.7,1.6l-16.9-14.1c-2.1-1.7-3.8-3.8-5.1-6.2l-4.9-9
		l-9.6-2.2c-4.1-1.3-7.2-4.5-8.2-8.7l-0.9-6.8c-0.6-2.3-1.3-4.6-2.2-6.8l-6.1-10.1l6,3.7c3.4,2.3,7.7,2.6,11.4,0.9v-22.3
		c0-1.7-0.5-3.5-1.5-4.9l-8.1-11.5c-0.9-1.3,0.7-2.8,1.9-1.9l11.4,8.2c2.1,1.5,3.4,4,3.5,6.6l0.7,21.2l85.8-51.9c3.6-2,8.1-2,11.7,0
		l9.3,5.2C4787.7,1241.8,4790.1,1248,4788,1253.7z"/>
	<g>
		<path class="st0" d="M2151.6,1888c0,0-68,26-78,126l-35-46c0,0,5,43-26,98c-31,55,24,125,51,144s13.2,37.3,91,76
			c9,4.5,27.5,14.5,28,33c0.6,23,17,45,30,52c0,0-13-52,10-68c17.2-12-6,46-6,46s96-40,99-153c0,0,65,31,63,115
			c0,0,23.3-30.3,18-57.7c-5.3-27.3,4.8-23.9,2-59.3c-1.9-24.3,20.6-77.3-29.4-114.7c-50-37.3,1.3-82.7,33.3-100.7
			c0,0-103.3-10-142,88c0,0-50.7-64-3.3-141.3c0,0-102,30.7-93.3,154.7c0,0-36.7-57.3-38-95.7C2125.2,1961.7,2130,1918,2151.6,1888z
			"/>
		<path class="st0" d="M2028,1843.4c0,0-15.3,28.7,0,63.3s2,67.3-20,76.7c0,0,12-11.3,0-38.7S1984,1880.7,2028,1843.4z"/>
		<path class="st0" d="M2481.3,2126.7c0,0-4.7,35.5-39.3,49.3c-35.3,14.2-68.7,66.7-31.3,151.3c37.3,84.7,8,158.7,22.7,181.3
			c0,0,2-22.7,16-40s17.3-28.7,17.3-28.7s26,24,14.7,65.3c0,0,139.3-80,43.3-148.7c0,0,18,51.3-34,64c0,0,8-49.3,28-70
			s11.3-41.3-24.7-81.3s-30.7-68-17.7-87.3C2489.3,2162.7,2490.6,2140.7,2481.3,2126.7z"/>
		<path class="st0" d="M2059.3,2200.7c0,0-42-16.7-70,30.7c0,0-16.2-81.3-153.8-54c0,0,106.5,37.3,68.5,101.3s16.7,107.3,16.7,107.3
			s23.3,12.7,10.7,31.3c-12.7,18.7-13,55.7,11,71.7s13.8,29.5,32,42.3c0,0-3.5-46.6,3-59.3c7.8-15.2,22-30,35.3,2.7
			c13.3,32.7,20,48.7,30.7,50.7c0,0-9.3-20.7-6.7-41.3c2.1-16.3-7.8-60.9,12.7-88.7c25.5-34.7-4.3-79,15-121
			C2078,2244.5,2074,2216,2059.3,2200.7z"/>
		<path class="st0" d="M2259.6,2491.5c-5.5-8.5-9.5-25,16.5-40c29.1-16.8,36.5-54,36.5-54s5.5,19.5,0,27.5c0,0,10-15.5,24-17.5
			s18-13.5,18-13.5s3,14-8.5,21.5c0,0,30.7-0.3,50.5-37c0,0,3,19.5-5.5,27c0,0,24.5-6,31.5-21c0,0,1,19.5-8.5,25.5c0,0,14.5,3,28-14
			l-2.5,21.5c0,0-14.5,16.5-17,34s-8.5,23-20,26.5s-32.8-25-78.5,3.5C2281.5,2508.1,2267.6,2503.8,2259.6,2491.5z"/>
		<path class="st0" d="M2219.1,2454.5c0,0,10.1,34-25.7,44.5s-63.3-41-100.3-18.5s-70.5-34-70.5-45l5.5-24.5c0,0,9,32,26,33.5
			c0,0-14.5-15-15-43c0,0,13.7,23.5,33.6,24.5c0,0-18.1-14.5-11.6-39.5c0,0,21,29,57.5,39.5c0,0-8-10.5-8-23.5c0,0,10.9,17,28,23
			c14.9,5.2,25.5,14.3,25.5,14.3s-14.5-18.3-7-36.3c0,0,4,17.5,18.5,26.5C2196.8,2443.2,2203,2478.5,2219.1,2454.5z"/>
		<path class="st0" d="M1864,2085.4c0,0-4.7,25.9,19.3,56.7c0,0-29.3,4-32.7-25.3C1847.3,2087.4,1864,2085.4,1864,2085.4z"/>
		<path class="st0" d="M2427.3,1994c0,0,3.3-39.3,34-60.7c30.7-21.3,25.3-45.3,25.3-45.3S2529.3,1959.4,2427.3,1994z"/>
	</g>
	<g>
		<path class="st0" d="M2977.8,1924.9c0,0-10,24,7,35s26.1,12.5,15,34c-14.8,28.6,3.1,78.8,23,114.7c1.5,2.7,5.2,3.3,7.5,1.2
			c9.7-8.7,33.3-29.5,55.5-43.9c24.8-16.1,35.5-56,10-70c-20.9-11.5-8-45,27-53c0,0-25,27.7,5,56c23.6,22.3-39.7,75.6,2,103.1
			c3.5,2.3,8.3,1.3,10.5-2.3c6.5-10.8,22.6-33.3,49.6-46.8c37-18.5,41-35,41-35s3,18-8,30.5c-9.9,11.3-29.5,48.4-16.6,78.3
			c1.8,4.1,7.5,4.4,9.7,0.4c4.4-8,12.4-19,25.4-23.8c0,0,31.5,42.5,23.8,98.7c-0.3,2.5,2.7,4,4.5,2.2c13.6-14,45.6-53.1,36.7-101.9
			c-7.3-40.3-27-8-37-75.5c-10.2-69-77.9-51.2-97-102c-15-40-38.5-50-78-37.5c0,0-58-65.5-116-15.5c0,0-52-12-72,13
			s-16,44.5-35,54.5c0,0-103.5,26.5-82.5,95.1c-63,20-70.5,99.4-49,136.9c16.1,28,21.5,60.9,23.3,75.6c0.4,3.2,4.3,4.5,6.5,2.2
			c14.6-15.1,51.1-57.1,39.8-87.3c-14-37.5-6-66.5-6-66.5s10,20,42,17c18.8-1.8,27.7,6.3,31.7,12.2c1.3,2,4.3,1.4,4.9-0.9
			c3.2-13.1,6.4-43.9-21.6-74.9c-37-41-20-65.5,10-76c0,0-19.1,46.6,23.5,73c30.6,19,36.5,41.4,37.5,52.1c0.2,2.6,3.3,3.8,5.3,2.1
			c14.6-12.5,53.8-50.8,40.7-93.8C2961.3,1953.9,2919.3,1968.9,2977.8,1924.9z"/>
		<path class="st0" d="M3026.8,2399.9l24.2,0.7c12.6,0.4,24.8,4.9,34.4,13.1c19.1,16.2,38.5,26,53.9,31.9
			c17.4,6.7,36.8,6.3,53.9-1.1c38.3-16.5,113.3-48.8,112.6-86.5c-0.8-40.7-0.9-60.6-11.2-82.3c-4.1-8.6-13.2-13.7-22.7-12.7
			c-140,13.8-184.5,13-245.1,13c-60.7,0-105.2,0.8-245.8-13.1c-9.1-0.9-17.8,3.9-21.7,12.2c-10.6,21.9-10.7,41.8-11.5,82.9
			c-0.7,37.7,74.3,70,112.6,86.5c17.1,7.4,36.5,7.8,53.9,1.1c15.4-5.9,34.7-15.7,53.9-31.9c9.6-8.2,21.8-12.7,34.4-13.1
			L3026.8,2399.9z"/>
		<path class="st0" d="M3412.2,2232.9v255.7l13.8-12.9c4.4-4.1,6.9-9.9,6.9-15.9v-199.2c0-4.1-1.6-8.1-4.5-11L3412.2,2232.9z"/>
		<polygon class="st0" points="3305.8,2562.6 3261.5,2581.6 3274.8,2545.9 3305.8,2514.6 		"/>
		<g>
			<polygon class="st0" points="3405.5,2436.1 3405.5,2220.1 3312.8,2154.6 3312.8,2378.3 3354.2,2378.3 			"/>
			<polygon class="st0" points="3354.2,2392.3 3312.8,2392.3 3312.8,2559.9 3346.8,2543.3 3405.5,2499.9 3405.5,2450.1 			"/>
		</g>
	</g>
	<path class="st0" d="M3904.2,2319.1l92.3-36l78-1.3l-20.7,22.7l-58.7,0.7l-69.3,52l1.3,152.7l28,35.3l134.7-169.3l15.9-1.7
		c7.8-0.7,13.7-7.3,13.6-15.1l2.5-51.8l27.5-147.7c0.8-4.2,1.2-8.4,1.2-12.7v-64.9c0-2.2-2.8-3.2-4.2-1.5l-45.8,56.8l-11.7-194
		c-0.1-1.1-1.6-1.3-2-0.2l-17,52.9l-10,56.7l-8,26.3c-1.2,3.8-4.7,6.4-8.6,6.4l0,0c-3.6,0-6.8,2.3-8,5.7l-9.6,27.7l-54-34.5
		l-33-148.5l-32-104.1c-0.7-2.4-4.1-2.4-4.9,0l-32,104.1l-33,148.5l-54,34.5l-9.6-27.7c-1.2-3.4-4.4-5.7-8-5.7l0,0
		c-4,0-7.5-2.6-8.6-6.4l-8-26.3l-10-56.7l-17-52.9c-0.3-1.1-1.9-0.9-2,0.2l-11.7,194l-45.8-56.8c-1.4-1.7-4.2-0.8-4.2,1.5v64.9
		c0,4.2,0.4,8.5,1.2,12.7l27.5,147.7l2.5,51.8c-0.1,7.8,5.8,14.4,13.6,15.1l15.9,1.7l134.7,169.3l28-35.3l1.3-152.7l-69.3-52
		l-58.7-0.7l-20.7-22.7l78,1.3L3904.2,2319.1z"/>
	<g>
		<path class="st0" d="M5393.7,1914.4l116.8,134.7l40.5-32.4l72.5,61.3l32.4-166.2l-74.3,98.7l-8.5-43.5
			c-1.5-7.5-6.5-13.7-13.4-16.8l-141.5-62.6c-15.6-6.9-33.5-6.9-49.1,0l-141.5,62.6c-7,3.1-12,9.4-13.4,16.8l-8.5,43.5l-74.3-98.7
			l32.4,166.2l72.5-61.3l40.5,32.4L5393.7,1914.4z"/>
		<polygon class="st0" points="5393.7,2324 5531,2221.9 5592.3,2154.6 5629.5,2214.1 5636.8,2197.3 5617.5,2093.7 5551.7,2041.2 
			5514.5,2070.5 5509.6,2059.8 5393.7,1925.3 5276.7,2061.2 5272.9,2070.5 5235.8,2041.2 5169.9,2093.7 5150.6,2197.3 
			5157.9,2214.1 5195.1,2154.6 5256.4,2221.9 		"/>
		<path class="st0" d="M5393.7,2532.4l138.8-107.5l33.3-106.3h29.7l20.7-71.2l-27-55l-52.4,51.4c-2.9,2.9-5,6.5-6.1,10.5l-6,22.8
			l-131.2,88.3l-131.2-88.3l-6-22.8c-1.1-4-3.2-7.6-6.1-10.5l-52.4-51.4l-27,55l20.7,71.2h29.7l33.3,106.3L5393.7,2532.4z"/>
	</g>
	<g>
		<path class="st0" d="M4816,1985.5c-40.8-44.9-77.2-67-102.6-77.8c-23.6-10.1-50.3-10.1-74,0c-25.4,10.8-61.7,32.9-102.6,77.8
			c-77.9,85.6-99.4,121.2-99.5,144.9c-0.1,15.4,23.2,100.9,51.9,104.4c17.6,2.1,29,4.7,35.1,5c3.7,0.2,7.2,1.7,9.8,4.2l75.4,67.8
			c0,0,26.8,29.4,66.9,29.4c40.1,0,66.9-29.4,66.9-29.4l75.4-67.8c2.7-2.5,6.2-4,9.8-4.2c6.1-0.3,17.5-2.9,35.1-5
			c28.6-3.5,51.9-89,51.9-104.4C4915.3,2106.7,4893.8,2071.1,4816,1985.5z M4544.6,2166.4c-13.4,0-24.2-10.8-24.2-24.2
			c0-13.4,10.8-24.2,24.2-24.2c13.4,0,24.2,10.8,24.2,24.2C4568.9,2155.5,4558,2166.4,4544.6,2166.4z M4676.4,2287.8
			c-32.7,0-59.2-26.5-59.2-59.2c0-32.7,26.5-59.2,59.2-59.2c32.7,0,59.2,26.5,59.2,59.2C4735.6,2261.3,4709.1,2287.8,4676.4,2287.8z
			 M4808.2,2166.4c-13.4,0-24.2-10.8-24.2-24.2c0-13.4,10.8-24.2,24.2-24.2s24.2,10.8,24.2,24.2
			C4832.4,2155.5,4821.6,2166.4,4808.2,2166.4z"/>
		<path class="st0" d="M4988.4,2249.5c-8.1-28.6-26.4-50.3-38-61.9c-5.5-5.5-14.4-5.6-20.1-0.3l-47.6,45.1
			c-5.6,5.3-12.5,8.9-20,10.4l-32.4,5.3c-2,0.3-3.9,1.2-5.5,2.4c-75.3,60.8-112.5,95.8-116.7,108.8c-1.6,4.8-8,6.3-13.1,6.3h-18.7
			h-18.7c-5.1,0-11.6-1.4-13.1-6.3c-4.4-14.3-41.4-48-116.7-108.8c-1.6-1.3-3.5-2.1-5.5-2.4l-32.4-5.3c-7.5-1.5-14.5-5.1-20-10.4
			l-47.6-45.1c-5.7-5.4-14.6-5.3-20.1,0.3c-11.6,11.6-29.9,33.4-38,61.9c-3,10.6-3.1,21.8-0.3,32.4c6.9,26.6,25.4,86.6,61.5,134.4
			c0,0,47.7,58.3,89.6,58.3c52.8,0,95-84.8,161.3-84.8c66.3,0,108.4,84.8,161.3,84.8c41.9,0,89.6-58.3,89.6-58.3
			c36.1-47.8,54.6-107.8,61.5-134.4C4991.5,2271.3,4991.5,2260.1,4988.4,2249.5z M4419.9,2296.7c-9,0-16.3-10.1-16.3-22.6
			s7.3-22.6,16.3-22.6s22.6,11.7,22.6,24.2S4428.9,2296.7,4419.9,2296.7z M4546.8,2409.9c-27.2,0-49.3-22.1-49.3-49.3
			c0-27.2,22.1-49.3,49.3-49.3c27.2,0,49.3,22.1,49.3,49.3C4596.1,2387.8,4574,2409.9,4546.8,2409.9z M4806,2409.9
			c-27.2,0-49.3-22.1-49.3-49.3c0-27.2,22.1-49.3,49.3-49.3s49.3,22.1,49.3,49.3C4855.4,2387.8,4833.3,2409.9,4806,2409.9z
			 M4932.9,2296.7c-9,0-22.6-8.5-22.6-21s13.6-24.2,22.6-24.2s16.3,10.1,16.3,22.6S4941.9,2296.7,4932.9,2296.7z"/>
	</g>
	<g>
		<path class="st0" d="M5194.4,527.6c2.3,11.6,1.3,10.5-3.3,88.7c-5.5,92.2,40,158,40,158c-20.7-5.3-31.3-20.7-31.3-20.7l19.3,36.7
			c-110-77.3-115.3-164-115.3-164c-6,20-2.7,43.5-2.7,43.5c-82-231.1,49-334.5,49-334.5c27-76.4,99.5-108,99.5-108
			c-42-61.5-9-121.5-9-121.5s17.5,55.1,58.5,76.1c0,0-31-46-9-113c0,0,23,36,40,48c0,0,127-24,138,73c0,0,115,24,146,182
			c0,0,123.7,131.8,23,270c0,0,8.7-25.7,2.7-58.3c0,0-10.7,151.3-104.7,206.7c0,0,70.7-139.3,36.7-256.7c0,0-6,20-10.7,31.3
			c0,0-1.3-72.4-22-116.9c0,0-13.3,77.2-154.7,57.2c0,0,48.7-11.3,71.7-53.7c0,0-90.3,76-202.3,67.3c0,0,28.7-12,44.7-44
			c0,0-20.3,23.7-62,37.3C5202,523.6,5194.4,527.6,5194.4,527.6"/>
		<path class="st0" d="M5609.1,193.6l6,101.3c0,0,12.7,6.7,28.7,0l-3.3-95.3C5640.4,199.6,5625.1,184.9,5609.1,193.6z"/>
		<circle class="st0" cx="5679.8" cy="244.4" r="38.9"/>
		<path class="st0" d="M5577.6,543.4c0,0-12.9-1-22.4,0.7c-1.3-5.8-6.4-10.2-12.7-10.2h-119.4c-13.1,0-24,8.3-28.2,19.7h-15.8h-15.8
			c-4.2-11.4-15.1-19.7-28.2-19.7h-119.4c-6.2,0-11.3,4.3-12.7,10c-8.3-1.5-18.5-0.5-18.5-0.5l-5.5,34.5
			c20.7-7.5,27.3,4.6,29.3,13.1l1,7.2l1.7,12.6c2.9,24.7,25.5,43.5,50.4,44l62.7,1.4c10.7,0.2,20.4-5.1,26.1-13.5
			c0,0,11.9-13.7,14.8-34c3.3-22.5,14-20.5,14-20.5s10.7-2,14,20.5c3,20.2,14.8,33.9,14.8,34c5.7,8.4,15.4,13.7,26.1,13.5l62.7-1.4
			c24.9-0.5,47.5-19.3,50.4-44l1.7-12.6l0.8-6.2c2-8.5,9.1-21.9,33.5-14.1L5577.6,543.4z M5343.2,570l-7.7,49.5
			c-1.4,8.9-9.1,15.5-18.1,15.5h-53.8c-16.2,0-29.7-12.3-31.1-28.4l-3.4-38c-0.7-8,5.6-14.9,13.6-14.9h86.5
			C5337.9,553.6,5344.6,561.4,5343.2,570z M5529.1,568.5l-3.4,38c-1.5,16.1-14.9,28.4-31.1,28.4h-53.8c-9,0-16.7-6.6-18.1-15.5
			L5415,570c-1.3-8.6,5.3-16.3,14-16.3h86.5C5523.5,553.6,5529.8,560.5,5529.1,568.5z"/>
		<g>
			<path class="st0" d="M5555.2,233.1c7.9,7.6,17.5,18.5,25.2,32.3l46.7-1.4v-35L5555.2,233.1z"/>
			<path class="st0" d="M5195.5,253.8l-142.4,8.2v19l122-3.6C5179.7,270.6,5186.6,261.8,5195.5,253.8z"/>
		</g>
	</g>
	<g>
		<path class="st0" d="M5387.2,1079.6c-54.5-0.7-156.8,17.8-191.6,103.2c-33.3,81.7,1.4,116.8-2.8,184.4c0,0,39.5,1.7,83.3-25.2
			c0,0-20.6,22.5-37.5,28.8c0,0,140.8-5.6,194.6-96.3c0,0-8.8,36.3-28.8,62.6c0,0,81.3-42.9,107.6-135.8c1.9,12.9,16,43.4,22.9,54.3
			c12.5,19.7,29.7,37,34.9,60.5c4.1,18.2,3.7,38.9-0.3,57.2c0,0,32.5-46.3,23.1-134.5S5532.8,1081.4,5387.2,1079.6z"/>
		<path class="st0" d="M5177.5,1163.7l-11.5-21.4v0l-80.7-150.2l-20-16.3c-1.5-1.2-3.7-0.2-3.7,1.8v38.4l31.9,210.4l35,64.5
			c1.6,2.9,4.6,4.7,8,4.7h9.6C5146,1295.7,5134.1,1229.5,5177.5,1163.7z"/>
		<path class="st0" d="M5098.4,1328.8l-21.5,26.2c-6,7.3-7.4,17.4-3.7,26.2l46.3,107.5c4.7,10.8,15.3,17.8,27,17.8h14.7l-24.2-200.7
			h-4.9c-3.3,0-6.4-1.8-8-4.7l-31.7-58.6l0.5,59.8c-0.1,7.5,1,18.7,4.8,25.3L5098.4,1328.8z"/>
		<polygon class="st0" points="5280.6,1495.9 5276,1510 5204.2,1544.7 5199,1506.5 		"/>
		<polygon class="st0" points="5284.4,1564.4 5219.6,1623.5 5254.4,1651.7 5286.3,1575.2 		"/>
		<path class="st0" d="M5596.9,1163.7l11.5-21.4v0l80.7-150.2l20-16.3c1.5-1.2,3.7-0.2,3.7,1.8v38.4l-31.9,210.4l-35,64.5
			c-1.6,2.9-4.6,4.7-8,4.7h-9.6C5628.4,1295.7,5640.3,1229.5,5596.9,1163.7z"/>
		<path class="st0" d="M5387.2,1027c-125.8,0-196.8,82.1-215.9,107.8l11.1,21.8c6.4-8.8,13.7-17.5,22.3-26
			c75.1-74.5,182.4-74.5,182.4-74.5s107.3,0,182.4,74.5c8.6,8.5,16,17.3,22.3,26l11.1-21.8C5583.9,1109.1,5513,1027,5387.2,1027z"/>
		<path class="st0" d="M5675.9,1328.8l21.5,26.2c6,7.3,7.4,17.4,3.7,26.2l-46.3,107.5c-4.7,10.8-15.3,17.8-27,17.8h-14.7l24.2-200.7
			h4.9c3.3,0,6.4-1.8,8-4.7l31.7-58.6l-0.5,59.8c0.1,7.5-1,18.7-4.8,25.3L5675.9,1328.8z"/>
		<polygon class="st0" points="5477.8,1495.9 5482.5,1510 5554.2,1544.7 5559.4,1506.5 		"/>
		<polygon class="st0" points="5474,1564.4 5538.8,1623.5 5504,1651.7 5472.1,1575.2 		"/>
	</g>
</g>
</svg>
